<?xml version="1.0" encoding="UTF-8" standalone="no"?>
<!-- Created with Inkscape (http://www.inkscape.org/) -->

<svg
   xmlns:dc="http://purl.org/dc/elements/1.1/"
   xmlns:cc="http://creativecommons.org/ns#"
   xmlns:rdf="http://www.w3.org/1999/02/22-rdf-syntax-ns#"
   xmlns:svg="http://www.w3.org/2000/svg"
   xmlns="http://www.w3.org/2000/svg"
   xmlns:sodipodi="http://sodipodi.sourceforge.net/DTD/sodipodi-0.dtd"
   xmlns:inkscape="http://www.inkscape.org/namespaces/inkscape"
   width="48"
   height="48"
   id="svg6353"
   version="1.1"
   inkscape:version="0.48.5 r10040"
   sodipodi:docname="second.svg">
  <defs
     id="defs6355" />
  <sodipodi:namedview
     id="base"
     pagecolor="#ffffff"
     bordercolor="#666666"
     borderopacity="1.0"
     inkscape:pageopacity="0.0"
     inkscape:pageshadow="2"
     inkscape:zoom="2.8832329"
     inkscape:cx="-0.22486772"
     inkscape:cy="12.695756"
     inkscape:document-units="px"
     inkscape:current-layer="layer1"
     showgrid="false"
     inkscape:window-width="1366"
     inkscape:window-height="705"
     inkscape:window-x="-8"
     inkscape:window-y="-8"
     inkscape:window-maximized="1" />
  <metadata
     id="metadata6358">
    <rdf:RDF>
      <cc:Work
         rdf:about="">
        <dc:format>image/svg+xml</dc:format>
        <dc:type
           rdf:resource="http://purl.org/dc/dcmitype/StillImage" />
        <dc:title></dc:title>
      </cc:Work>
    </rdf:RDF>
  </metadata>
  <g
     inkscape:label="Layer 1"
     inkscape:groupmode="layer"
     id="layer1"
     transform="translate(0,-1004.3622)">
    <g
       id="g6312"
       transform="matrix(0.48732227,0,0,0.48732227,-183.20612,637.52049)">
      <g
         id="g6306">
        <path
           style="fill:#ff0000;fill-opacity:1;stroke:#8e2323;stroke-width:4.39955282;stroke-miterlimit:4.69999981;stroke-opacity:0;stroke-dasharray:none"
           d="m 563.84869,698.18156 c -20.47559,0 -37.00067,16.5859 -37.00067,36.93654 0,20.35064 16.52508,36.93655 37.00067,36.93655 20.47558,0 37.25718,-16.58591 37.25718,-36.93655 0,-20.35064 -16.7816,-36.93654 -37.25718,-36.93654 z m 0.12826,5.51483 c 0.73147,0 1.34664,2.0931 1.34664,4.68119 l 0,17.95527 c 0,1.49345 -0.20659,2.73701 -0.51301,3.59105 2.54254,0.38894 4.48882,2.57727 4.48882,5.1942 0,2.89208 -2.39047,5.25833 -5.32245,5.25833 -2.93197,0 -5.32246,-2.36625 -5.32246,-5.25833 0,-2.61693 1.94628,-4.80526 4.48882,-5.1942 -0.30642,-0.85404 -0.51301,-2.0976 -0.51301,-3.59105 l 0,-17.95527 c 0,-2.58809 0.61519,-4.68119 1.34665,-4.68119 z"
           id="path6253"
           inkscape:connector-curvature="0" />
      </g>
    </g>
    <path
       style="fill:#000000;fill-opacity:1;stroke:#1f0b0b;stroke-width:2.31749034;stroke-miterlimit:4;stroke-opacity:0;stroke-dasharray:none"
       d="m -36.939591,972.85408 c -10.321934,0.52243 -18.625,9.05366 -18.625,19.4375 0,10.71872 8.840464,19.43752 19.625,19.43752 10.784541,0 19.5,-8.7188 19.5,-19.43752 0,-10.7188 -8.715459,-19.4375 -19.5,-19.4375 -0.337017,0 -0.667034,-0.0168 -1,0 z m 0.9375,9.625 c 0.963158,0 1.75,0.59622 1.75,1.34375 l 0,5.1875 c 0,0.33372 -0.180713,0.63994 -0.4375,0.875 0.878394,0.46504 1.46875,1.35407 1.46875,2.40625 0,1.22067 -0.792168,2.23054 -1.90625,2.59375 0.382806,0.39504 0.625,1.04554 0.625,1.78125 l 0,8.37502 c 0,1.2092 -0.665263,2.1875 -1.5,2.1875 -0.834737,0 -1.5,-0.9783 -1.5,-2.1875 l 0,-8.37502 c 0,-0.73571 0.242194,-1.38621 0.625,-1.78125 -1.114082,-0.36321 -1.90625,-1.37308 -1.90625,-2.59375 0,-1.05218 0.590356,-1.94121 1.46875,-2.40625 -0.256787,-0.23506 -0.4375,-0.54128 -0.4375,-0.875 l 0,-5.1875 c 0,-0.74753 0.786842,-1.34375 1.75,-1.34375 z"
       id="path6324"
       inkscape:connector-curvature="0" />
    <g
       id="g7009"
       transform="translate(0,-0.41537072)">
      <rect
         ry="2.6623507"
         rx="1.4354637"
         y="1007.2073"
         x="2.6198559"
         height="43.140591"
         width="42.760288"
         id="rect6949"
         style="fill:#000000;fill-opacity:1;stroke:#1f0b0b;stroke-width:2.2486546;stroke-linejoin:miter;stroke-miterlimit:4;stroke-opacity:0;stroke-dasharray:none;stroke-dashoffset:0" />
      <path
         id="rect6951"
         d="m 25.904782,1009.1339 c -0.877861,0 -1.589705,0.3244 -1.589705,0.7302 l 0,4.203 c 0,0.4057 0.711844,0.7302 1.589705,0.7302 l 15.753837,0 c 0.877861,0 1.589705,-0.3245 1.589705,-0.7302 l 0,-4.203 c 0,-0.4058 -0.711844,-0.7302 -1.589705,-0.7302 l -15.753837,0 z m -19.8355121,0.3207 c -0.728705,0 -1.3175942,0.8642 -1.3175942,1.9233 l 0,10.935 c 0,1.0591 0.5888892,1.9233 1.3175942,1.9233 l 13.0756841,0 c 0.728705,0 1.317593,-0.8642 1.317593,-1.9233 l 0,-10.935 c 0,-1.0591 -0.588888,-1.9233 -1.317593,-1.9233 l -13.0756841,0 z m 1.3319159,16.4557 c -1.8499297,0 -3.3369494,1.2883 -3.3369494,2.9029 l 0,16.6873 c 0,1.6147 1.4870197,2.9208 3.3369494,2.9208 l 33.1976292,0 c 1.849929,0 3.336949,-1.3061 3.336949,-2.9208 l 0,-16.6873 c 0,-1.6146 -1.48702,-2.9029 -3.336949,-2.9029 l -33.1976292,0 z"
         style="fill:#ffffff;fill-opacity:1;stroke:#1f0b0b;stroke-width:1.82411337;stroke-linejoin:miter;stroke-miterlimit:4;stroke-opacity:0;stroke-dasharray:none;stroke-dashoffset:0"
         inkscape:connector-curvature="0" />
      <path
         id="path6975"
         d="m 4.1502367,1026.0172 -0.2291467,21.8163 0.3580423,0 0,0.3918 39.3273037,0.196 0,-0.4631 -27.855647,-0.1425 0.04294,-4.0961 4.998263,0.036 -0.04294,4.0783 0.08593,0 0.486937,0 0.04294,0 0.04294,0 0.04294,-4.0783 4.955298,0.018 -0.04294,4.0605 0.0143,0 0.07161,0 0.472615,0 0.02865,0 0.05728,0 0.04294,-4.0605 4.983942,0.036 -0.04294,4.0249 0.04294,0 0.529901,0 0.0143,0 0.04294,-4.0249 5.084193,0.017 -0.04294,4.0071 0.529902,0 0.04294,0 0.04294,-3.9893 5.041227,0.017 -0.04294,3.9715 0.572867,0 0.229146,-21.8164 -0.558545,0 -0.04294,3.6331 -5.041227,-0.017 0.04294,-3.6153 -0.02865,0 -0.544223,0 -0.04294,3.5975 -5.069871,-0.017 0.04294,-3.5797 -0.04294,0 -0.51558,0 -0.02865,0 -0.04294,3.5797 -4.998262,-0.036 0.04294,-3.5441 -0.05728,0 -0.02865,0 -0.486937,0 -0.04294,0 -0.04294,0 -0.04294,3.5441 -4.940977,-0.018 0.04294,-3.5262 -0.02865,0 -0.07161,0 -0.472616,0 -0.08593,0 -0.04294,3.5262 -4.983941,-0.036 0.04294,-3.4906 -0.04294,0 -0.515581,0 -0.02865,0 -0.04294,3.4906 -5.055549,-0.017 0.04294,-3.4729 -0.02865,0 -0.529902,0 -0.04294,0 -0.04294,3.4729 -5.0412277,-0.035 0.042943,-3.4372 -0.572866,0 z m 0.529902,3.9002 5.0412273,0.036 -0.04294,4.0961 -5.0412271,-0.036 0.042943,-4.0961 z m 5.6427373,0.036 5.05555,0.017 -0.05728,4.0961 -5.041228,-0.017 0.04294,-4.0961 z m 5.642738,0.017 4.983941,0.035 -0.04294,4.0962 -4.998262,-0.036 0.05728,-4.0961 z m 5.642738,0.035 4.940976,0.017 -0.04294,4.0962 -4.940976,-0.017 0.04294,-4.0962 z m 5.599773,0.017 4.998262,0.035 -0.05728,4.0961 -4.983941,-0.036 0.04294,-4.0962 z m 5.585451,0.035 5.06987,0.017 -0.04294,4.0961 -5.084192,-0.017 0.05728,-4.0961 z m 5.642737,0.036 5.041228,0.017 -0.04294,4.0961 -5.041228,-0.017 0.04294,-4.0962 z m -33.8134606,4.3989 5.0412267,0.035 -0.04294,4.0961 -5.0412282,-0.036 0.042943,-4.0962 z m 5.6427376,0.036 5.055549,0.017 -0.04294,4.0961 -5.05555,-0.017 0.04294,-4.0961 z m 5.642737,0.017 4.983941,0.036 -0.04294,4.0962 -4.983941,-0.017 0.04294,-4.114 z m 5.642738,0.036 4.955298,0.017 -0.04294,4.1139 -4.955298,-0.036 0.04294,-4.0961 z m 5.599773,0.017 4.998262,0.036 -0.04294,4.0962 -4.998263,-0.017 0.04294,-4.1139 z m 5.585451,0.036 5.069871,0.017 -0.04294,4.114 -5.084194,-0.017 0.05728,-4.1139 z m 5.642738,0.036 5.041227,0.017 -0.04294,4.1139 -5.041228,-0.035 0.04294,-4.0962 z m -33.7991403,4.3988 5.0412274,0.036 -0.04294,4.0961 -5.0412281,-0.017 0.042943,-4.114 z m 5.6427383,0.036 5.041227,0.017 -0.04294,4.1141 -5.041228,-0.017 0.04294,-4.1139 z m 5.628415,0.035 4.998264,0.017 -0.04294,4.1139 -4.998262,-0.036 0.04294,-4.0962 z m 5.65706,0.017 4.940976,0.035 -0.04294,4.0962 -4.940976,-0.017 0.04294,-4.1138 z m 5.599773,0.035 4.983941,0.017 -0.04294,4.1139 -4.983941,-0.035 0.04294,-4.0961 z m 5.571129,0.036 5.084193,0.017 -0.05728,4.0961 -5.069871,-0.017 0.04294,-4.0961 z m 5.65706,0.017 5.041227,0.036 -0.05728,4.0962 -5.041228,-0.018 0.05728,-4.1139 z m -33.8134616,4.4168 5.0412267,0.017 -0.04294,4.0961 -5.0412273,-0.017 0.042943,-4.0961 z m 5.6427376,0.035 5.041228,0.017 -0.04294,4.0961 -5.041227,-0.017 0.04294,-4.0961 z"
         style="font-size:medium;font-style:normal;font-variant:normal;font-weight:normal;font-stretch:normal;text-indent:0;text-align:start;text-decoration:none;line-height:normal;letter-spacing:normal;word-spacing:normal;text-transform:none;direction:ltr;block-progression:tb;writing-mode:lr-tb;text-anchor:start;baseline-shift:baseline;color:#000000;fill:#000000;fill-opacity:1;fill-rule:nonzero;stroke:none;stroke-width:1px;marker:none;visibility:visible;display:inline;overflow:visible;enable-background:accumulate;font-family:Sans;-inkscape-font-specification:Sans"
         inkscape:connector-curvature="0" />
    </g>
  </g>
</svg>
