<?xml version="1.0" encoding="UTF-8" standalone="no"?>
<!-- Created with Inkscape (http://www.inkscape.org/) -->

<svg
   xmlns:dc="http://purl.org/dc/elements/1.1/"
   xmlns:cc="http://creativecommons.org/ns#"
   xmlns:rdf="http://www.w3.org/1999/02/22-rdf-syntax-ns#"
   xmlns:svg="http://www.w3.org/2000/svg"
   xmlns="http://www.w3.org/2000/svg"
   xmlns:sodipodi="http://sodipodi.sourceforge.net/DTD/sodipodi-0.dtd"
   xmlns:inkscape="http://www.inkscape.org/namespaces/inkscape"
   width="100"
   height="100"
   id="svg3045"
   version="1.1"
   inkscape:version="0.48.5 r10040"
   sodipodi:docname="New document 2">
  <defs
     id="defs3047" />
  <sodipodi:namedview
     id="base"
     pagecolor="#ffffff"
     bordercolor="#666666"
     borderopacity="1.0"
     inkscape:pageopacity="0.0"
     inkscape:pageshadow="2"
     inkscape:zoom="0.35"
     inkscape:cx="33.571429"
     inkscape:cy="520"
     inkscape:document-units="px"
     inkscape:current-layer="layer1"
     showgrid="false"
     inkscape:window-width="1366"
     inkscape:window-height="705"
     inkscape:window-x="-8"
     inkscape:window-y="-8"
     inkscape:window-maximized="1" />
  <metadata
     id="metadata3050">
    <rdf:RDF>
      <cc:Work
         rdf:about="">
        <dc:format>image/svg+xml</dc:format>
        <dc:type
           rdf:resource="http://purl.org/dc/dcmitype/StillImage" />
        <dc:title></dc:title>
      </cc:Work>
    </rdf:RDF>
  </metadata>
  <g
     inkscape:label="Layer 1"
     inkscape:groupmode="layer"
     id="layer1"
     transform="translate(0,-952.36218)">
    <g
       transform="matrix(0.30781429,0,0,0.30781429,92.621625,942.83557)"
       id="g3932">
      <path
         inkscape:connector-curvature="0"
         style="fill:#ffffff;fill-opacity:1;stroke:#000000;stroke-width:5;stroke-linejoin:miter;stroke-miterlimit:4;stroke-opacity:1;stroke-dasharray:none;stroke-dashoffset:0"
         d="m -257.03125,216.78125 c -6.79015,0 -12.25,1.40382 -12.25,3.15625 l 0,12.21875 c 0,1.45056 3.76657,2.65684 8.90625,3.03125 l 0,65.21875 c -5.13968,0.37441 -8.90625,1.58069 -8.90625,3.03125 l 0,12.25 c 0,1.75243 5.45985,3.15625 12.25,3.15625 l 214.53125,0 c 44.75905,0.1298 48.14472,-102.00002 0,-102.0625 l -214.53125,0 z"
         id="path3874" />
      <path
         inkscape:connector-curvature="0"
         style="fill:#000000;fill-opacity:1;stroke:none"
         d="m -32.937786,227.14178 c 3.350119,0 6.031536,2.22078 6.031536,4.99303 l 0,68.66648 c 0,2.77225 -2.681417,5.04246 -6.031536,5.04246 l -2.492072,0 c -3.350119,0 -6.067653,-2.27021 -6.067653,-5.04246 l 0,-13.84206 c -0.373305,0.0554 -0.761531,0.0989 -1.155744,0.0989 l -165.488015,0 c -3.35012,0 -6.06765,-2.094 -6.06765,-4.69642 0,-2.60241 2.71753,-4.69641 6.06765,-4.69641 l 165.488015,0 c 0.394213,0 0.782439,0.0435 1.155744,0.0989 l 0,-4.79528 -20.803382,0 c -3.350119,0 -6.031537,-2.27021 -6.031537,-5.04246 l 0,-0.5438 c 0,-2.77225 2.681418,-4.99302 6.031537,-4.99302 l 20.803382,0 0,-4.79529 c -0.373305,0.0554 -0.761531,0.0989 -1.155744,0.0989 l -83.141295,0 c -3.35012,0 -6.03154,-2.094 -6.03154,-4.69642 0,-2.60241 2.68142,-4.69641 6.03154,-4.69641 l 83.141295,0 c 0.394213,0 0.782439,0.0435 1.155744,0.0989 l 0,-16.26442 c 0,-2.77225 2.717534,-4.99303 6.067653,-4.99303 l 2.492072,0 z"
         id="path3930" />
      <path
         style="fill:#800080;fill-opacity:1;stroke:#000000;stroke-width:5;stroke-miterlimit:4;stroke-opacity:1;stroke-dasharray:none"
         d="m -257.03125,216.78125 c -6.79015,0 -12.25,1.40382 -12.25,3.15625 l 0,12.21875 c 0,1.75243 5.45985,3.15625 12.25,3.15625 l 214.53125,0 c 17.03823,-1.1597 16.05865,65.02864 0,64.96875 l -214.53125,0 c -6.79015,0 -12.25,1.40382 -12.25,3.15625 l 0,12.25 c 0,1.75243 5.45985,3.15625 12.25,3.15625 l 214.53125,0 c 44.75905,0.1298 48.14472,-102.00002 0,-102.0625 z"
         id="path3876"
         inkscape:connector-curvature="0"
         sodipodi:nodetypes="ssssccssssccs" />
      <path
         style="fill:#008080;fill-opacity:1;stroke:#000000;stroke-width:3.62891316;stroke-miterlimit:4;stroke-opacity:1;stroke-dasharray:none"
         d="m -51.32791,105.99279 c 5.66773,0 10.22504,0.88593 10.22504,1.99185 l 0,7.711 c 0,1.10593 -4.55731,1.99184 -10.22504,1.99184 l -179.06871,0 c -14.22176,-0.73185 -13.40411,41.03825 0,41.00045 l 179.06871,0 c 5.66773,0 10.22504,0.88592 10.22504,1.99184 l 0,7.73073 c 0,1.10592 -4.55731,1.99184 -10.22504,1.99184 l -179.06871,0 c -37.36027,0.0819 -40.18628,-64.37011 0,-64.40955 z"
         id="path3928"
         inkscape:connector-curvature="0"
         sodipodi:nodetypes="ssssccssssccs" />
      <path
         inkscape:connector-curvature="0"
         style="fill:#ffffff;fill-opacity:1;stroke:#000000;stroke-width:5;stroke-linejoin:miter;stroke-miterlimit:4;stroke-opacity:1;stroke-dasharray:none;stroke-dashoffset:0"
         d="m -230.40625,106 c -40.18628,0.0394 -37.36026,64.48815 0,64.40625 l 179.09375,0 c 5.66773,0 10.21875,-0.89408 10.21875,-2 l 0,-7.71875 c 0,-1.03891 -4.03274,-1.90144 -9.21875,-2 l 0,-41 c 5.18601,-0.0986 9.21875,-0.96108 9.21875,-2 l 0,-7.6875 c 0,-1.10592 -4.55102,-2 -10.21875,-2 l -179.09375,0 z"
         id="path3878" />
      <path
         inkscape:connector-curvature="0"
         id="rect3917"
         d="m -239.75,112.09375 c -2.89867,0 -5.21875,1.40382 -5.21875,3.15625 l 0,43.40625 c 0,1.75243 2.32008,3.1875 5.21875,3.1875 l 2.15625,0 c 2.89867,0 5.25,-1.43507 5.25,-3.1875 l 0,-8.75 c 0.323,0.035 0.65891,0.0625 1,0.0625 l 143.1875,0 c 2.898668,0 5.25,-1.32368 5.25,-2.96875 0,-1.64507 -2.351332,-2.96875 -5.25,-2.96875 l -143.1875,0 c -0.34109,0 -0.677,0.0275 -1,0.0625 l 0,-3.03125 18,0 c 2.89867,0 5.21875,-1.43507 5.21875,-3.1875 l 0,-0.34375 c 0,-1.75243 -2.32008,-3.15625 -5.21875,-3.15625 l -18,0 0,-3.03125 c 0.323,0.035 0.65891,0.0625 1,0.0625 l 71.9375,0 c 2.89867,0 5.21875,-1.32368 5.21875,-2.96875 0,-1.64507 -2.32008,-2.96875 -5.21875,-2.96875 l -71.9375,0 c -0.34109,0 -0.677,0.0275 -1,0.0625 l 0,-10.28125 c 0,-1.75243 -2.35133,-3.15625 -5.25,-3.15625 l -2.15625,0 z"
         style="fill:#000000;fill-opacity:1;stroke:none" />
      <path
         sodipodi:nodetypes="ssssccssssccs"
         inkscape:connector-curvature="0"
         id="path3880"
         d="m -51.32791,105.99279 c 5.66773,0 10.22504,0.88593 10.22504,1.99185 l 0,7.711 c 0,1.10593 -4.55731,1.99184 -10.22504,1.99184 l -179.06871,0 c -14.22176,-0.73185 -13.40411,41.03825 0,41.00045 l 179.06871,0 c 5.66773,0 10.22504,0.88592 10.22504,1.99184 l 0,7.73073 c 0,1.10592 -4.55731,1.99184 -10.22504,1.99184 l -179.06871,0 c -37.36027,0.0819 -40.18628,-64.37011 0,-64.40955 z"
         style="fill:#008080;fill-opacity:1;stroke:#000000;stroke-width:3.62891316;stroke-miterlimit:4;stroke-opacity:1;stroke-dasharray:none" />
      <rect
         style="fill:#ff0000;fill-opacity:1;stroke:#000000;stroke-width:5;stroke-linejoin:miter;stroke-miterlimit:4;stroke-opacity:1;stroke-dasharray:none;stroke-dashoffset:0"
         id="rect3884"
         width="170"
         height="8.1659393"
         x="-234.40175"
         y="95.021835"
         rx="5.2322531"
         ry="3.1632397" />
      <g
         id="g3905">
        <rect
           ry="3.1632397"
           rx="5.2322531"
           y="67.925766"
           x="-247.02185"
           height="24.497816"
           width="188.55894"
           id="rect3872"
           style="fill:#008000;fill-opacity:1;stroke:#000000;stroke-width:5;stroke-linejoin:miter;stroke-miterlimit:4;stroke-opacity:1;stroke-dasharray:none;stroke-dashoffset:0" />
        <rect
           style="fill:#ffffff;fill-opacity:1;stroke:#000000;stroke-width:5;stroke-linejoin:miter;stroke-miterlimit:4;stroke-opacity:1;stroke-dasharray:none;stroke-dashoffset:0"
           id="rect3903"
           width="16.331879"
           height="20.786026"
           x="-230.13101"
           y="69.781662"
           rx="5.2322531"
           ry="3.1632397" />
      </g>
      <g
         id="g3911">
        <rect
           ry="3.1632397"
           rx="5.2322531"
           y="172.22708"
           x="-262.61136"
           height="43.05677"
           width="237.55458"
           id="rect3882"
           style="fill:#ffff00;fill-opacity:1;stroke:#000000;stroke-width:5;stroke-linejoin:miter;stroke-miterlimit:4;stroke-opacity:1;stroke-dasharray:none;stroke-dashoffset:0" />
        <rect
           style="fill:#ffffff;fill-opacity:1;stroke:#000000;stroke-width:5;stroke-linejoin:miter;stroke-miterlimit:4;stroke-opacity:1;stroke-dasharray:none;stroke-dashoffset:0"
           id="rect3909"
           width="36.375546"
           height="40.829693"
           x="-83.886459"
           y="173.34062"
           rx="5.2322531"
           ry="3.1632397" />
      </g>
    </g>
  </g>
</svg>
