<?xml version="1.0" encoding="UTF-8" standalone="no"?>
<!-- Created with Inkscape (http://www.inkscape.org/) -->

<svg
   xmlns:dc="http://purl.org/dc/elements/1.1/"
   xmlns:cc="http://creativecommons.org/ns#"
   xmlns:rdf="http://www.w3.org/1999/02/22-rdf-syntax-ns#"
   xmlns:svg="http://www.w3.org/2000/svg"
   xmlns="http://www.w3.org/2000/svg"
   xmlns:sodipodi="http://sodipodi.sourceforge.net/DTD/sodipodi-0.dtd"
   xmlns:inkscape="http://www.inkscape.org/namespaces/inkscape"
   width="45"
   height="45"
   id="svg4153"
   version="1.1"
   inkscape:version="0.48.5 r10040"
   sodipodi:docname="logo.svg">
  <defs
     id="defs4155" />
  <sodipodi:namedview
     id="base"
     pagecolor="#ffffff"
     bordercolor="#666666"
     borderopacity="1.0"
     inkscape:pageopacity="0.0"
     inkscape:pageshadow="2"
     inkscape:zoom="5.77"
     inkscape:cx="60.017468"
     inkscape:cy="24.100653"
     inkscape:document-units="px"
     inkscape:current-layer="g4201"
     showgrid="false"
     inkscape:window-width="1366"
     inkscape:window-height="705"
     inkscape:window-x="-8"
     inkscape:window-y="-8"
     inkscape:window-maximized="1" />
  <metadata
     id="metadata4158">
    <rdf:RDF>
      <cc:Work
         rdf:about="">
        <dc:format>image/svg+xml</dc:format>
        <dc:type
           rdf:resource="http://purl.org/dc/dcmitype/StillImage" />
        <dc:title></dc:title>
      </cc:Work>
    </rdf:RDF>
  </metadata>
  <g
     inkscape:label="Layer 1"
     inkscape:groupmode="layer"
     id="layer1"
     transform="translate(0,-1007.3622)">
    <path
       style="font-size:medium;font-style:normal;font-variant:normal;font-weight:normal;font-stretch:normal;text-indent:0;text-align:start;text-decoration:none;line-height:normal;letter-spacing:normal;word-spacing:normal;text-transform:none;direction:ltr;block-progression:tb;writing-mode:lr-tb;text-anchor:start;baseline-shift:baseline;color:#000000;fill:#f9ebeb;fill-opacity:1;stroke:none;stroke-width:6.0999999;marker:none;visibility:visible;display:inline;overflow:visible;enable-background:accumulate;font-family:Sans;-inkscape-font-specification:Sans"
       d="m 84.499945,1008.2608 c -1.778777,0 -3.669483,0.5136 -5.295446,1.4128 -1.616277,0.8937 -2.990474,2.1818 -3.610532,3.8074 -0.0036,0.01 -0.01484,0.015 -0.01852,0.026 l 0.0093,0 c -0.248976,0.6211 -0.179699,1.2034 -0.02776,1.8778 -0.566409,-0.4127 -1.152335,-0.7211 -1.768233,-0.87 l -0.02775,-0.01 -0.02776,0 c -0.458302,-0.081 -0.917931,-0.1152 -1.379407,-0.1034 -1.38443,0.035 -2.762022,0.4571 -3.999358,1.1026 -1.649782,0.8607 -3.082198,2.1243 -3.971584,3.5576 -0.889389,1.4335 -1.34768,3.2107 -1.323861,4.9705 0.02367,1.7491 0.537661,3.5029 1.740461,4.8153 0.0073,0.01 0.01117,0.017 0.01852,0.026 l 0.0092,0 c 0.452158,0.5054 1.032032,0.7417 1.731203,0.9562 -0.670609,0.2509 -1.255857,0.5679 -1.70343,0.9908 l -0.01852,0.016 -0.01852,0.026 c -1.218601,1.315 -1.7259,3.0728 -1.749719,4.8326 -0.02382,1.7598 0.434476,3.5457 1.323862,4.979 0.889389,1.4335 2.312544,2.6883 3.962326,3.5491 1.641532,0.8564 3.526316,1.3228 5.35099,1.0079 0.0092,0 0.01867,0 0.02776,0 l 0,-0.01 c 0.703188,-0.11 1.20858,-0.4542 1.758979,-0.9132 -0.100241,0.6632 -0.09531,1.2901 0.07406,1.8607 l 0.0093,0.026 0.0093,0.026 c 0.614614,1.6395 2.003084,2.9343 3.629049,3.8333 1.625962,0.8992 3.507412,1.4128 5.286187,1.4128 1.778774,0 3.669481,-0.5136 5.295446,-1.4128 1.616276,-0.8937 2.990474,-2.1817 3.61053,-3.8074 0.0036,-0.01 0.01484,-0.015 0.01852,-0.026 l -0.0093,0 c 0.248972,-0.6211 0.179696,-1.2034 0.02775,-1.8778 0.56641,0.4127 1.152337,0.7211 1.768233,0.8699 l 0.02775,0.01 0.02775,0 c 1.833214,0.3244 3.728983,-0.1472 5.378769,-1.0079 1.64978,-0.8606 3.08219,-2.1157 3.97158,-3.549 0.88939,-1.4334 1.34768,-3.2106 1.32386,-4.9704 -0.0237,-1.7516 -0.53406,-3.5109 -1.74046,-4.824 -0.006,-0.01 -0.0126,-0.01 -0.0185,-0.017 -0.45435,-0.5131 -1.03487,-0.7425 -1.74046,-0.9562 0.67061,-0.2507 1.25586,-0.5677 1.70343,-0.9906 l 0.0185,-0.018 0.0185,-0.026 c 1.2186,-1.315 1.7259,-3.0727 1.74972,-4.8325 0.0238,-1.7598 -0.43448,-3.5457 -1.32387,-4.979 -0.88938,-1.4335 -2.31254,-2.6884 -3.96232,-3.5492 -1.237338,-0.6454 -2.61493,-1.0756 -3.999359,-1.1111 -0.452245,-0.012 -0.902344,0.026 -1.351636,0.1033 l 0,-0.01 c -0.01004,0 -0.01778,0.01 -0.02775,0.01 -0.703235,0.11 -1.208584,0.4606 -1.758975,0.9218 0.100241,-0.6631 0.09531,-1.2901 -0.07406,-1.8607 l -0.0093,-0.026 -0.0093,-0.026 c -0.614607,-1.6396 -2.003081,-2.9342 -3.629047,-3.8334 -1.625963,-0.899 -3.507412,-1.4127 -5.286187,-1.4127 z m 0,1.6798 c 1.390242,0 3.007801,0.4323 4.360409,1.1801 1.342772,0.7425 2.397761,1.7766 2.832878,2.9116 0.137013,0.5074 -0.15456,2.2449 -0.879486,3.8678 -0.07729,0.173 -0.155575,0.3462 -0.240704,0.5169 -0.643902,0.7891 -1.225549,1.5886 -1.629367,2.3258 -0.07699,0.1405 -0.148408,0.2761 -0.212928,0.4134 -0.153605,0.1654 -0.299347,0.3176 -0.444375,0.4393 l -0.259217,0 c -1.098508,-0.3561 -2.286421,-0.5513 -3.52721,-0.5513 -1.243561,0 -2.435911,0.1936 -3.536471,0.5513 l -0.490661,0 c -0.01476,-0.01 -0.06471,-0.029 -0.138866,-0.094 -0.04251,-0.038 -0.105307,-0.1 -0.157382,-0.1552 -0.386149,-0.9824 -1.001261,-1.986 -1.721947,-2.9373 -0.01274,-0.029 -0.02441,-0.057 -0.03702,-0.086 -0.414025,-0.95 -0.769767,-1.9484 -0.972067,-2.7651 -0.202299,-0.8167 -0.140235,-1.5366 -0.166639,-1.473 l 0,-0.01 0.0093,-0.018 c 0.429126,-1.1447 1.489528,-2.1894 2.842137,-2.9373 1.352611,-0.748 2.979427,-1.1801 4.36967,-1.1801 z m 12.099908,6.1419 c 1.028095,0.031 2.136841,0.3503 3.166157,0.8873 1.37242,0.716 2.58213,1.8086 3.27725,2.9289 0.69512,1.1201 1.10297,2.6449 1.08316,4.1088 -0.0195,1.4426 -0.45095,2.8035 -1.27757,3.7214 -8.9e-4,8e-4 -0.008,-8e-4 -0.009,0 -0.38964,0.3629 -2.16139,1.0116 -4.045648,1.2404 -0.188325,0.023 -0.374758,0.045 -0.564724,0.06 -1.070367,-0.1269 -2.119091,-0.1902 -3.018034,-0.1465 -0.173066,0.01 -0.337275,0.026 -0.49992,0.044 -0.0537,-0.01 -0.105478,-0.015 -0.157382,-0.026 -0.324128,-2.6033 -1.941907,-4.8671 -4.286348,-6.2884 l -0.08332,-0.1378 c -2.97e-4,-0.018 -0.0042,-0.068 0.01852,-0.155 0.01524,-0.058 0.05371,-0.1459 0.08332,-0.224 0.718964,-0.8019 1.356181,-1.7989 1.879328,-2.8513 0.0041,-0.01 0.0052,-0.017 0.0093,-0.026 0.008,-0.01 0.01979,-0.016 0.02776,-0.026 0.677331,-0.8087 1.433306,-1.5909 2.092255,-2.1622 0.658949,-0.5714 1.350017,-0.8893 1.277574,-0.8787 l 0.01852,0 0.0093,0 c 0.319992,-0.056 0.657141,-0.079 0.99984,-0.069 z m -24.199816,0.01 c 0.326753,-0.011 0.637943,0.01 0.944293,0.06 0.534512,0.1351 2.022021,1.2425 3.175416,2.6445 0.118915,0.1445 0.238704,0.29 0.351794,0.4394 0.414313,0.9186 0.874541,1.7924 1.360892,2.4894 0.0891,0.1277 0.177095,0.2459 0.268475,0.3618 0.07328,0.1952 0.142408,0.3808 0.185156,0.5514 -2.373877,1.4541 -3.996863,3.7744 -4.267833,6.4348 -0.01697,0 -0.02951,0.01 -0.04629,0.01 -0.877585,-0.1421 -1.840945,-0.1761 -2.82362,-0.1292 -0.255911,0.012 -0.511903,0.029 -0.768395,0.052 -0.02174,0 -0.04305,-0.01 -0.0648,-0.01 -1.091356,-0.1413 -2.193816,-0.3576 -3.055065,-0.6029 -0.861248,-0.2454 -1.49951,-0.6475 -1.45347,-0.5944 l -0.0092,-0.01 -0.0092,-0.017 c -0.85085,-0.9182 -1.304048,-2.2918 -1.323861,-3.7558 -0.01982,-1.4639 0.388038,-2.9887 1.083159,-4.1089 0.695121,-1.1203 1.914087,-2.2129 3.286509,-2.9289 1.029319,-0.537 2.138063,-0.8561 3.166159,-0.8872 z m 22.209394,14.5495 c 1.097761,0.1786 2.3296,0.1886 3.564244,0.086 0.03702,0.01 0.07406,0 0.111091,0.01 1.091357,0.1415 2.193814,0.3577 3.055064,0.603 0.86125,0.2453 1.49951,0.6475 1.45347,0.5944 l 0.009,0.01 0.0185,0.01 c 0.85085,0.9182 1.29479,2.3005 1.31461,3.7644 0.0198,1.4639 -0.38804,2.9885 -1.08316,4.109 -0.69512,1.1203 -1.91409,2.2128 -3.286514,2.9287 -1.362859,0.7109 -2.854788,1.0356 -4.128965,0.8183 -0.543086,-0.1463 -2.01078,-1.2426 -3.1569,-2.6359 -0.118917,-0.1445 -0.238706,-0.2899 -0.351795,-0.4394 -0.414314,-0.9186 -0.874543,-1.7923 -1.360893,-2.4894 -0.08911,-0.1278 -0.177095,-0.246 -0.268476,-0.3619 -0.0744,-0.1981 -0.142561,-0.3872 -0.185155,-0.5599 2.371861,-1.456 3.990454,-3.7739 4.258575,-6.4348 0.01352,0 0.02378,-0.01 0.03703,-0.01 z m -23.783216,0.06 c 1.050987,0.1223 2.079164,0.1809 2.962486,0.1378 0.169779,-0.01 0.330916,-0.028 0.490661,-0.044 0.05442,0.011 0.104593,0.023 0.157384,0.034 0.324341,2.605 1.948652,4.8672 4.295606,6.2884 l 0.08332,0.1378 c 2.96e-4,0.019 0.0042,0.068 -0.01852,0.1551 -0.01523,0.058 -0.05372,0.1458 -0.08332,0.2239 -0.724521,0.8081 -1.363009,1.8158 -1.888585,2.8772 -0.008,0.01 -0.01976,0.016 -0.02775,0.026 -0.677332,0.8087 -1.433311,1.5908 -2.092256,2.1622 -0.658947,0.5714 -1.350011,0.8892 -1.277574,0.8787 l -0.01852,0 -0.0093,0 c -1.279976,0.2265 -2.784315,-0.1024 -4.156741,-0.8183 -1.372425,-0.7161 -2.591388,-1.8086 -3.286509,-2.9289 -0.695121,-1.1202 -1.102972,-2.645 -1.083159,-4.109 0.01952,-1.4422 0.451142,-2.8033 1.277572,-3.7214 0.0012,0 0.0082,0 0.0092,0 0.389627,-0.3628 2.161384,-1.0116 4.045647,-1.2404 0.205478,-0.025 0.411972,-0.043 0.620271,-0.06 z m 9.8873,7.4341 0.249959,0 c 1.10056,0.3577 2.29291,0.5599 3.536471,0.5599 1.240789,0 2.428702,-0.2037 3.52721,-0.5599 l 0.499921,0 c 0.01476,0.01 0.0647,0.03 0.138866,0.094 0.04251,0.038 0.105308,0.1 0.157382,0.155 0.386149,0.9826 1.001262,1.9862 1.721946,2.9375 0.01274,0.029 0.02441,0.057 0.03703,0.086 0.414025,0.9501 0.769767,1.9484 0.972065,2.7652 0.2023,0.8167 0.140239,1.5367 0.166641,1.473 l 0,0.01 -0.0093,0.017 c -0.429124,1.1447 -1.489526,2.1895 -2.842135,2.9375 -1.35261,0.7478 -2.979426,1.1801 -4.369669,1.1801 -1.390243,0 -3.007798,-0.4322 -4.360411,-1.1801 -1.338581,-0.7401 -2.385993,-1.7723 -2.823621,-2.903 -0.139827,-0.5018 0.143236,-2.2488 0.870231,-3.8763 0.07729,-0.1732 0.155576,-0.3463 0.240703,-0.5169 0.643901,-0.7907 1.225553,-1.5975 1.629367,-2.3346 0.07553,-0.1377 0.140123,-0.2713 0.203671,-0.4047 0.154944,-0.1671 0.307387,-0.3167 0.453631,-0.4394 z"
       id="rect2996-0-3-8"
       inkscape:connector-curvature="0" />
    <g
       transform="matrix(1.7881661,0,0,-1.5871351,-4.011988,1054.0997)"
       inkscape:label="icons"
       id="g4201">
      <path
         style="fill:#333333;fill-opacity:1;fill-rule:nonzero;stroke:none"
         d="M 1.8125 2.3125 L 1.8125 3.34375 L 2.40625 42.625 L 2.40625 43.65625 L 3.59375 43.40625 L 23.15625 38.8125 L 23.875 38.65625 L 23.875 38 L 23.84375 33.46875 L 24.3125 33.46875 L 24.34375 38.625 L 42.90625 42.15625 L 42.28125 7 L 41.875 3.15625 L 24.0625 5.53125 L 24.125 12.4375 L 23.65625 12.4375 L 23.59375 6.25 L 23.59375 5.5625 L 22.8125 5.4375 L 2.90625 2.5 L 1.8125 2.3125 z M 3.6875 4.28125 L 19.09375 6.59375 L 20.0625 36.59375 L 4.3125 41.03125 L 3.6875 4.28125 z M 23.65625 13.375 L 24.125 13.375 L 24.28125 32.8125 L 23.84375 32.8125 L 23.65625 13.375 z M 40.40625 20.09375 L 40.53125 25 L 39.1875 25.03125 L 39.0625 20.125 L 40.40625 20.09375 z "
         transform="matrix(0.55923217,0,0,-0.63006609,2.2436327,29.447714)"
         id="path4213" />
    </g>
  </g>
</svg>
