<?xml version="1.0" encoding="UTF-8" standalone="no"?>
<!-- Created with Inkscape (http://www.inkscape.org/) -->
<svg id="svg5678" xmlns:rdf="http://www.w3.org/1999/02/22-rdf-syntax-ns#" xmlns="http://www.w3.org/2000/svg" height="48" width="48" version="1.1" xmlns:cc="http://creativecommons.org/ns#" xmlns:dc="http://purl.org/dc/elements/1.1/">
 <metadata id="metadata5683">
  <rdf:RDF>
   <cc:Work rdf:about="">
    <dc:format>image/svg+xml</dc:format>
    <dc:type rdf:resource="http://purl.org/dc/dcmitype/StillImage"/>
    <dc:title/>
   </cc:Work>
  </rdf:RDF>
 </metadata>
 <g id="layer1" transform="translate(0,-1004.3622)">
  <g id="g5637" transform="matrix(0.21140836,0,0,0.20773441,18.335454,1018.2732)">
   <g id="g5601">
    <path id="path5594" stroke-linejoin="miter" d="m26.779,41.844c-2.5947,0-5.1674,0.10764-7.75,0.3125-0.59348,0.04708-1.3704-0.14964-1.7812,0.28125-4.6597,4.8875-6.7225,15.093-2.2188,20.125,1.2003,1.341,2.8204,2.3678,4.6562,3.0938-1.5224,5.7075-2.395,10.48-0.6875,10.031h17.125c1.7782-0.03015,0.77484-4.857-0.84375-10.625,1.2732-0.65756,2.3874-1.5013,3.2812-2.5,4.5037-5.0316,2.441-15.238-2.2188-20.125-0.41081-0.43089-1.1878-0.23417-1.7812-0.28125-2.5826-0.20486-5.1865-0.3125-7.7812-0.3125z" stroke-dashoffset="0" stroke="#160808" stroke-miterlimit="4" stroke-dasharray="none" stroke-width="4.08900023" fill="#f9fcf9"/>
    <path id="path5624" d="m29.491,41.844c-2.1022,0-4.1865,0.10764-6.2789,0.3125-0.48082,0.04708-1.1103-0.14964-1.4431,0.28125-3.7752,4.8875-5.4464,15.093-1.7976,20.125,0.97243,1.341,2.285,2.3678,3.7724,3.0938-1.2334,5.7075-1.9404,10.48-0.557,10.031h13.874c1.4406-0.03015,0.62776-4.857-0.68359-10.625,1.0315-0.65756,1.9342-1.5013,2.6584-2.5,3.6488-5.0316,1.9776-15.238-1.7976-20.125-0.33283-0.43089-0.96231-0.23417-1.4431-0.28125-2.0923-0.20486-4.202-0.3125-6.3042-0.3125z" fill="#000"/>
    <path id="path5599" stroke-linejoin="miter" d="m16.436,55.209,21.897,0.54033c6.434,0.15876,15.192,0.49856,15.583-0.251,21.24-1.328,82.074-105.44,46.664-113.72h-145.37c-35.392-2.5648,7.9863,109.17,49.725,111.25,0.40164,0.71554,5.0674,2.0178,11.501,2.1765z" stroke-dashoffset="0" stroke="#160808" stroke-miterlimit="4" stroke-dasharray="none" stroke-width="5.46236324" fill="#f9fcf9"/>
    <rect id="rect5060" stroke-linejoin="miter" stroke-dasharray="none" stroke-dashoffset="0" rx="6.7864" ry="4.1442" height="13.849" width="116.21" stroke="#160808" stroke-miterlimit="4" y="141.33" x="-31.31" stroke-width="5.9" fill="#f9fcf9"/>
    <path id="rect5570" stroke-linejoin="miter" d="m-18.817,103.4,90.594,0c14.852-0.85384,6.7864,27.561,6.7864,38.004,0,0.29444-3.0267,0.53147-6.7864,0.53147h-90.594c-3.7597,0-6.7864-0.23703-6.7864-0.53147,2.8221-14.903-8.84-37.967,6.7864-38.004z" stroke-dashoffset="0" stroke="#160808" stroke-miterlimit="4" stroke-width="5.9000001" fill="#f9fcf9"/>
    <path id="rect5572" stroke-linejoin="miter" d="m20.047,75.095,15.329-0.60212c3.7568-0.14757,6.5558,0.34844,6.7864,0.53147,4.3778,6.9958,46.036,27.706,27.534,27.768h-85.777c-18.808,0.99,24.091-23.292,29.341-27.163,0.237-0.175,3.03-0.384,6.787-0.532z" stroke-dashoffset="0" stroke="#160808" stroke-miterlimit="4" stroke-width="5.9000001" fill="#f9fcf9"/>
    <path id="path5620" fill="#000" d="m20.816,49.118,19.638,0.39091c5.7702,0.11486,13.625,0.36068,13.976-0.18159,19.049-0.96116,73.609-76.285,41.85-82.271h-130.37c-31.741-1.8556,7.1624,78.981,44.596,80.487,0.36021,0.51766,4.5446,1.4598,10.315,1.5746z"/>
    <rect id="rect5622" rx="6.7864" ry="4.1442" height="18.064" width="154.14" y="-53.758" x="-43.353" fill="#000"/>
    <path id="path5626" d="m28.711,75.095,12.886-0.60212c3.158-0.14757,5.5108,0.34844,5.7047,0.53147,3.68,6.9958,38.699,27.706,23.146,27.768h-72.105c-15.811,0.99,20.25-23.292,24.664-27.163,0.199-0.175,2.546-0.384,5.704-0.532z" fill="#000"/>
    <path id="path5628" d="m-11.783,103.4,84.194,0c13.803-0.85384,6.307,27.561,6.307,38.004,0,0.29444-2.8129,0.53147-6.307,0.53147h-84.194c-3.4941,0-6.307-0.23703-6.307-0.53147,2.6228-14.903-8.2155-37.967,6.307-38.004z" fill="#000"/>
    <rect id="rect5630" rx="6.259" ry="4.1442" height="13.849" width="107.18" y="141.33" x="-22.278" fill="#000"/>
    <rect id="rect5632" rx="5.9609" ry="3.6706" height="37.331" width="84.297" y="106.41" x="-13.849" fill="#FFF"/>
    <path id="path5634" d="m22.364,43.165,17.239,0.34192c5.0654,0.10048,11.961,0.31549,12.268-0.15884,16.722-0.84072,38.237-66.005,10.358-71.241l-64.262-1.4421c-27.864-1.623-17.519,69.806,15.342,71.123,0.31621,0.4528,3.9895,1.2769,9.0549,1.3773z" fill="#FFF"/>
   </g>
  </g>
 </g>
</svg>
