<?xml version="1.0" encoding="UTF-8" standalone="no"?>
<!-- Created with Inkscape (http://www.inkscape.org/) -->

<svg
   xmlns:dc="http://purl.org/dc/elements/1.1/"
   xmlns:cc="http://creativecommons.org/ns#"
   xmlns:rdf="http://www.w3.org/1999/02/22-rdf-syntax-ns#"
   xmlns:svg="http://www.w3.org/2000/svg"
   xmlns="http://www.w3.org/2000/svg"
   xmlns:sodipodi="http://sodipodi.sourceforge.net/DTD/sodipodi-0.dtd"
   xmlns:inkscape="http://www.inkscape.org/namespaces/inkscape"
   id="svg2"
   version="1.1"
   inkscape:version="0.48.5 r10040"
   width="150"
   height="150"
   sodipodi:docname="grammar.png">
  <metadata
     id="metadata8">
    <rdf:RDF>
      <cc:Work
         rdf:about="">
        <dc:format>image/svg+xml</dc:format>
        <dc:type
           rdf:resource="http://purl.org/dc/dcmitype/StillImage" />
        <dc:title></dc:title>
      </cc:Work>
    </rdf:RDF>
  </metadata>
  <defs
     id="defs6" />
  <sodipodi:namedview
     pagecolor="#ffffff"
     bordercolor="#666666"
     borderopacity="1"
     objecttolerance="10"
     gridtolerance="10"
     guidetolerance="10"
     inkscape:pageopacity="0"
     inkscape:pageshadow="2"
     inkscape:window-width="1366"
     inkscape:window-height="705"
     id="namedview4"
     showgrid="false"
     inkscape:zoom="3.1466667"
     inkscape:cx="36.161585"
     inkscape:cy="85.02941"
     inkscape:window-x="-8"
     inkscape:window-y="-8"
     inkscape:window-maximized="1"
     inkscape:current-layer="svg2" />
  <path
     style="fill:#000000"
     d=""
     id="path2987"
     inkscape:connector-curvature="0" />
  <path
     style="fill:#351d1d;fill-opacity:1;stroke:#271313;stroke-width:0;stroke-linecap:butt;stroke-linejoin:miter;stroke-miterlimit:4;stroke-opacity:1;stroke-dasharray:none"
     d="m 66.099047,11.09375 -1.8125,11.75 -11.84375,-0.96875 0,6.375 -10.5,-3.1875 1.28125,12.09375 -10.1875,0.3125 3.8125,8.5625 -10.15625,7 6.65625,5.71875 -13,6.03125 13.96875,7.625 -4.4375,6.0625 6.65625,3.8125 -1.90625,7.625 7.3125,2.21875 -0.625,7 6.96875,-1.28125 0,7.3125 9.5625,0.3125 0.9375,7.3125 11.125,-2.53125 3.8125,5.71875 11.125,-7.3125 8.5625,3.5 6.687503,-8.59375 6.03125,2.21875 -0.625,-6.34375 5.09375,0.9375 1.90625,-7.625 4.75,0 -1.59375,-5.0625 3.8125,0.9375 -0.625,-6.34375 7.9375,-1.59375 -4.75,-7.9375 3.5,-1.90625 -3.1875,-4.15625 7.3125,-4.75 -7.9375,-4.78125 5.375,-5.40625 -7.9375,-4.125 2.21875,-5.71875 -5.71875,-2.21875 1.59375,-8.25 -10.15625,-0.96875 -0.3125,-6.6875 -8.593753,2.25 -2.21875,-7 -9.21875,1.28125 -4.4375,-7.3125 -6.90625,6.96875 -9.3125,-8.875 z m 13.03125,18.75 c 7.713608,0 14.84132,2.490988 20.625,6.71875 L 94.099047,44 c -4.310866,-2.918974 -9.585975,-4.625 -15.28125,-4.625 -2.720859,0 -5.343173,0.397599 -7.8125,1.125 l -3.6875,-8.59375 c 3.689064,-1.321811 7.668889,-2.0625 11.8125,-2.0625 z m 0.59375,16.28125 c 4.467711,-0.169955 8.887248,1.136642 12.5625,3.75 l -5.5625,7.59375 c -3.240686,-2.051622 -7.407834,-2.364153 -11,-0.53125 l -3.9375,-8.875 c 2.545435,-1.215452 5.256874,-1.835527 7.9375,-1.9375 z m 0.34375,14.84375 c 2.808228,0 5.09375,2.285522 5.09375,5.09375 0,2.808228 -2.285522,5.09375 -5.09375,5.09375 -2.808228,0 -5.0625,-2.285522 -5.0625,-5.09375 0,-2.808228 2.254272,-5.09375 5.0625,-5.09375 z m -35.8125,1.21875 8.21875,0.9375 c -0.02503,0.448359 -0.03125,0.889425 -0.03125,1.34375 0,8.271545 4.204331,15.607963 10.6875,20.1875 l -5.71875,7.5 c -8.064655,-6.407029 -13.25,-16.279548 -13.25,-27.375 0,-0.872452 0.03089,-1.737413 0.09375,-2.59375 z m 16.3125,0.46875 9.53125,1.03125 c -0.86122,2.898084 -0.557103,6.145421 1.125,8.9375 0.648716,1.076788 1.464021,1.98251 2.375,2.75 l -5.3125,7.25 c -2.006118,-1.519545 -3.810136,-3.401248 -5.1875,-5.6875 -2.684077,-4.45523 -3.426413,-9.545088 -2.53125,-14.28125 z M 91.880297,66 l 8.968753,0.96875 c -0.1868,6.694531 -3.684505,13.164328 -9.843753,16.875 -0.874204,0.526668 -1.741655,0.993738 -2.65625,1.375 L 84.786547,77.25 c 0.596666,-0.230243 1.183392,-0.502393 1.75,-0.84375 C 90.264212,74.160499 92.187982,70.064201 91.880297,66 z m 12.843753,3.15625 8.9375,1.03125 C 111.90115,81.488809 104.73332,91.014196 94.880297,96 l -3.9375,-9.21875 c 7.062741,-3.494077 12.257103,-9.946874 13.781253,-17.625 z"
     id="path3757"
     inkscape:connector-curvature="0" />
  <path
     style="fill:#351d1d;fill-opacity:1;stroke:none"
     d="m 118.53125,95.9375 -1.59375,3.8125 -4.75,-1.28125 0.9375,2.5625 -3.5,3.8125 3.1875,2.21875 -3.8125,3.8125 5.09375,0.3125 0.625,5.71875 5.09375,-3.1875 4.125,2.875 0.96875,-4.78125 4.4375,-1.25 -2.21875,-4.78125 3.15625,-5.0625 -5.375,0 0,-3.84375 -4.46875,1.90625 -1.90625,-2.84375 z m 1.28125,6.6875 c 1.93066,0 3.5,1.53809 3.5,3.46875 0,1.93066 -1.56934,3.5 -3.5,3.5 -1.93066,0 -3.5,-1.56934 -3.5,-3.5 0,-1.93066 1.56934,-3.46875 3.5,-3.46875 z"
     id="path3817"
     inkscape:connector-curvature="0" />
  <path
     style="fill:#351d1d;fill-opacity:1;stroke:none"
     d="m 24.783898,86.410487 -2.21875,6.03125 -6.375,-4.125 -1.90625,6.34375 -6.3437497,-1.90625 3.4999997,9.875003 -5.7187497,1.90625 4.125,6.65625 -6.34375,3.1875 6.6562497,1.90625 -3.1874997,6.03125 6.9999997,0.96875 -2.21875,5.0625 7.9375,-1.25 0,5.0625 5.09375,-4.4375 4.75,6.03125 1.90625,-7.3125 6.0625,1.59375 -0.65625,-4.125 5.09375,-0.625 -0.9375,-4.46875 5.375,0 -3.46875,-7.625 4.75,-2.21875 -5.09375,-3.8125 1.59375,-3.5 -6.03125,-2.875003 1.90625,-5.375 -5.09375,1.5625 -0.625,-3.46875 -2.875,0.9375 -1.25,-2.84375 -2.875,1.90625 -2.53125,-5.09375 z m -1.28125,13.03125 0.96875,4.750003 -2.21875,0.96875 -0.96875,2.53125 -4.75,-0.625 0,-1.90625 0.625,-2.5625 1.90625,-1.90625 4.4375,-1.250003 z m 8.71875,1.187503 1.8125,0.5625 2.21875,1.40625 1.21875,2.40625 -0.15625,4.625 -4.8125,-0.5625 -0.21875,-2.4375 -2.125,-1.6875 2.0625,-4.3125 z m -4.90625,5.46875 c 1.755142,0 3.1875,1.43236 3.1875,3.1875 0,1.75514 -1.432358,3.1875 -3.1875,3.1875 -1.755142,0 -3.15625,-1.43236 -3.15625,-3.1875 0,-1.75514 1.401108,-3.1875 3.15625,-3.1875 z m -3.1875,7.53125 2.0625,1.28125 2.625,-0.625 2.15625,4.3125 -1.59375,1.0625 -2.46875,0.90625 -2.625,-0.5 -3.5625,-2.96875 3.40625,-3.46875 z"
     id="path3824"
     inkscape:connector-curvature="0" />
  <g
     id="g3858"
     transform="translate(-47.033898,-15.572034)" />
</svg>
