<?xml version="1.0" encoding="UTF-8" standalone="no"?>
<!-- Created with Inkscape (http://www.inkscape.org/) -->

<svg
   xmlns:dc="http://purl.org/dc/elements/1.1/"
   xmlns:cc="http://creativecommons.org/ns#"
   xmlns:rdf="http://www.w3.org/1999/02/22-rdf-syntax-ns#"
   xmlns:svg="http://www.w3.org/2000/svg"
   xmlns="http://www.w3.org/2000/svg"
   xmlns:sodipodi="http://sodipodi.sourceforge.net/DTD/sodipodi-0.dtd"
   xmlns:inkscape="http://www.inkscape.org/namespaces/inkscape"
   width="48px"
   height="48px"
   id="svg3012"
   version="1.1"
   inkscape:version="0.48.5 r10040"
   sodipodi:docname="icon-done.svg">
  <defs
     id="defs3014" />
  <sodipodi:namedview
     id="base"
     pagecolor="#ffffff"
     bordercolor="#666666"
     borderopacity="1.0"
     inkscape:pageopacity="0.0"
     inkscape:pageshadow="2"
     inkscape:zoom="8.8731437"
     inkscape:cx="24"
     inkscape:cy="24"
     inkscape:current-layer="layer1"
     showgrid="true"
     inkscape:grid-bbox="true"
     inkscape:document-units="px"
     inkscape:window-width="1366"
     inkscape:window-height="705"
     inkscape:window-x="-8"
     inkscape:window-y="-8"
     inkscape:window-maximized="1" />
  <metadata
     id="metadata3017">
    <rdf:RDF>
      <cc:Work
         rdf:about="">
        <dc:format>image/svg+xml</dc:format>
        <dc:type
           rdf:resource="http://purl.org/dc/dcmitype/StillImage" />
        <dc:title></dc:title>
      </cc:Work>
    </rdf:RDF>
  </metadata>
  <g
     id="layer1"
     inkscape:label="Layer 1"
     inkscape:groupmode="layer">
    <path
       style="fill:#060606"
       d="M 10.901107,41.741693 C 9.9374846,41.279736 8.9743839,40.28398 8.4120412,39.168234 7.9996197,38.349945 7.9581479,37.519622 7.9461948,29.841169 L 7.9330808,21.41236 5.4149528,18.679226 2.8968265,15.946088 4.7639195,14.13854 6.631015,12.330992 l 1.5221752,1.781166 1.5221777,1.781168 0.9805971,-0.550992 c 0.948298,-0.532844 1.315683,-0.550441 11.154286,-0.534205 l 10.17369,0.01678 1.598915,-1.801422 c 0.879401,-0.99078 2.82298,-3.223666 4.319064,-4.9619657 l 2.720153,-3.1605452 2.37313,1.4369064 2.37313,1.4369063 -5.070082,5.3035092 -5.07008,5.30351 -0.09477,9.546318 c -0.05213,5.250474 -0.149379,9.914717 -0.216131,10.364987 -0.155224,1.047065 -1.685433,2.988025 -2.726714,3.458641 -1.152421,0.520848 -20.200768,0.511837 -21.289443,-0.01008 z m 20.483891,-1.217524 c 0.479576,-0.14411 1.196637,-0.628458 1.59347,-1.076329 l 0.721511,-0.814311 0.07035,-9.437577 0.07035,-9.437579 -5.586204,5.849508 c -3.072413,3.217231 -5.917155,6.229789 -6.321652,6.694573 -0.404495,0.464786 -1.049983,1.089542 -1.434416,1.38835 l -0.698972,0.543286 -5.245895,-5.669831 -5.245898,-5.669834 0,7.634652 c 0,9.086921 0.032225,9.219247 2.437175,10.008621 0.936729,0.307463 18.612496,0.295286 19.640185,-0.01353 z m -5.511188,-18.363601 5.075085,-5.900154 -9.19893,-0.06945 c -6.907847,-0.05216 -9.434924,0.01419 -10.146469,0.266332 -0.521145,0.184681 -0.91862,0.454593 -0.883277,0.599803 0.03534,0.14521 2.110322,2.680431 4.611062,5.633823 2.819869,3.330285 4.721633,5.369804 5.00712,5.369804 0.284475,0 2.399054,-2.253915 5.535409,-5.900155 z"
       id="path3986"
       inkscape:connector-curvature="0" />
  </g>
</svg>
