<svg aria-hidden="true" style="position: absolute; width: 0; height: 0; overflow: hidden;" version="1.1" xmlns="http://www.w3.org/2000/svg" xmlns:xlink="http://www.w3.org/1999/xlink">
<defs>

<!-- elements -->

<symbol id="icon-sign-triangle" viewBox="0 0 32 32">
<path d="M71.97 62.69l2.337-2.874 8.765 12.646 13.293-18.586 2.995 2.395-16.434 20.693zM-31.039-79.022l2.337-2.874 8.765 12.646 13.293-18.586 2.994 2.395-16.434 20.693zM60.758 14.666l6.857-9.018 6.431 6.226 4.618-5.452 6.815 5.771-5.911 5.138 8.179 6.926-9.375 9.227-5.207-6.75-4.617 5.453-6.362-5.387 5.317-7.201z"></path>
<path d="M-130.489 0.978c-6.577 0-11.911 4.124-11.911 9.222 0 0.137 0.014 0.265 0.022 0.4l5.556-0.489c-0.097-0.366-0.153-0.787-0.156-1.221v-0.001c0.088-2.891 2.615-4.838 5.133-4.889 2.221-0.046 4.436 1.389 4.978 4.889 0 2.795-2.249 5.067-5.045 5.067-0.389 0-0.77-0.050-1.133-0.134l-0.022 0.023-0.533-0.201-0.422 6.379h7.111l-0.133-0.979c4.894-1.151 8.466-4.678 8.466-8.844 0-5.097-5.334-9.222-11.911-9.222zM-130.422 21.067c-2.519 0.051-5.045 1.998-5.133 4.889 0.002 2.797 2.269 5.065 5.066 5.067h0c2.795 0 5.045-2.271 5.045-5.067-0.542-3.499-2.756-4.934-4.978-4.889zM36.245 2.409l2.977 16.089h7.133l1.801-16.089h-11.911zM42.867 21.231c-2.797 0.002-5.065 2.269-5.067 5.066v0c0.002 2.797 2.269 5.065 5.066 5.067h0c2.795 0 5.045-2.271 5.045-5.067s-2.249-5.067-5.045-5.067z"></path>
<path d="M28.948 25.785c-2.201 3.813-23.697 3.813-25.899 0s8.547-22.429 12.95-22.429 15.151 18.616 12.95 22.429z"></path>
</symbol>
<symbol id="icon-radiobtn" viewBox="0 0 32 32">
<path d="M28.801 16c0 7.070-5.732 12.802-12.802 12.802s-12.802-5.732-12.802-12.802v0c0-7.070 5.732-12.802 12.802-12.802s12.802 5.732 12.802 12.802v0z"></path>
</symbol>
<symbol id="icon-question" viewBox="0 0 32 32">
<path d="M71.97 62.69l2.337-2.874 8.765 12.646 13.293-18.586 2.995 2.395-16.434 20.693zM-31.039-79.022l2.337-2.874 8.765 12.646 13.293-18.586 2.994 2.395-16.434 20.693zM60.758 14.666l6.857-9.018 6.431 6.226 4.618-5.452 6.815 5.771-5.911 5.138 8.179 6.926-9.375 9.227-5.207-6.75-4.617 5.453-6.362-5.387 5.317-7.201z"></path>
<path d="M16 0.978c-6.577 0-11.911 4.124-11.911 9.222 0 0.137 0.014 0.265 0.022 0.4l5.556-0.489c-0.097-0.366-0.153-0.787-0.156-1.221v-0.001c0.088-2.891 2.615-4.838 5.133-4.889 2.221-0.046 4.436 1.389 4.978 4.889 0 2.795-2.249 5.067-5.045 5.067-0.389 0-0.77-0.050-1.133-0.134l-0.022 0.023-0.533-0.201-0.422 6.379h7.111l-0.133-0.979c4.894-1.151 8.466-4.678 8.466-8.844 0-5.097-5.334-9.222-11.911-9.222zM16.067 21.067c-2.519 0.051-5.045 1.998-5.133 4.889 0.002 2.797 2.269 5.065 5.066 5.067h0c2.795 0 5.045-2.271 5.045-5.067-0.542-3.499-2.756-4.934-4.978-4.889zM36.245 2.409l2.977 16.089h7.133l1.801-16.089h-11.911zM42.867 21.231c-2.797 0.002-5.065 2.269-5.067 5.066v0c0.002 2.797 2.269 5.065 5.066 5.067h0c2.795 0 5.045-2.271 5.045-5.067s-2.249-5.067-5.045-5.067z"></path>
</symbol>
<symbol id="icon-multiply" viewBox="0 0 32 32">
<path d="M71.97 62.69l2.337-2.874 8.765 12.646 13.293-18.586 2.995 2.395-16.434 20.693zM-31.039-79.022l2.337-2.874 8.765 12.646 13.293-18.586 2.994 2.395-16.434 20.693zM3.597 11.093l6.857-9.018 6.431 6.226 4.618-5.452 6.815 5.771-5.911 5.138 8.179 6.926-9.375 9.227-5.207-6.75-4.617 5.453-6.362-5.387 5.317-7.201z"></path>
</symbol>
<symbol id="icon-minus" viewBox="0 0 32 32">
<path d="M3.029 13.546l25.617-3.506 0.324 11.92-25.617-0.701z"></path>
<path d="M71.97 62.69l2.337-2.874 8.765 12.646 13.293-18.586 2.995 2.395-16.434 20.693zM-31.039-79.022l2.337-2.874 8.765 12.646 13.293-18.586 2.994 2.395-16.434 20.693zM60.758 14.666l6.857-9.018 6.431 6.226 4.618-5.452 6.815 5.771-5.911 5.138 8.179 6.926-9.375 9.227-5.207-6.75-4.617 5.453-6.362-5.387 5.317-7.201z"></path>
</symbol>

<symbol id="icon-plus" viewBox="0 0 32 32">
</symbol>


<symbol id="icon-exlamation" viewBox="0 0 32 32">
<path  d="M71.97 62.69l2.337-2.874 8.765 12.646 13.293-18.586 2.995 2.395-16.434 20.693zM-31.039-79.022l2.337-2.874 8.765 12.646 13.293-18.586 2.994 2.395-16.434 20.693zM60.758 14.666l6.857-9.018 6.431 6.226 4.618-5.452 6.815 5.771-5.911 5.138 8.179 6.926-9.375 9.227-5.207-6.75-4.617 5.453-6.362-5.387 5.317-7.201z"></path>
<path  d="M10.044 1.522l2.978 16.090h7.132l1.801-16.090h-11.911zM16.667 20.345c-2.797 0.002-5.064 2.269-5.067 5.066v0c0.002 2.797 2.269 5.065 5.066 5.067h0c2.795 0 5.044-2.271 5.044-5.067s-2.249-5.067-5.044-5.067z"></path>
</symbol>
<symbol id="icon-equals" viewBox="0 0 32 32">
<path  d="M71.97 62.69l2.337-2.874 8.765 12.646 13.293-18.586 2.995 2.395-16.434 20.693zM-31.039-79.022l2.337-2.874 8.765 12.646 13.293-18.586 2.994 2.395-16.434 20.693zM60.758 14.666l6.857-9.018 6.431 6.226 4.618-5.452 6.815 5.771-5.911 5.138 8.179 6.926-9.375 9.227-5.207-6.75-4.617 5.453-6.362-5.387 5.317-7.201z"></path>
<path  d="M28.644 2.933l-25.622 3.511 0.333 7.711 25.622 0.689-0.334-11.911zM3.022 17.156l0.333 11.911 25.622-3.511-0.334-7.711-25.622-0.689z"></path>
</symbol>
<symbol id="icon-dot" viewBox="0 0 32 32">
<path  d="M30.588 16c0 8.057-6.532 14.588-14.588 14.588s-14.588-6.532-14.588-14.588v0c0-8.057 6.532-14.588 14.588-14.588s14.588 6.532 14.588 14.588v0z"></path>
</symbol>

<symbol id="icon-divide" viewBox="0 0 32 32">
<path d="M71.97 62.69l2.337-2.874 8.765 12.646 13.293-18.586 2.995 2.395-16.434 20.693zM-31.039-79.022l2.337-2.874 8.765 12.646 13.293-18.586 2.994 2.395-16.434 20.693zM60.758 14.666l6.857-9.018 6.431 6.226 4.618-5.452 6.815 5.771-5.911 5.138 8.179 6.926-9.375 9.227-5.207-6.75-4.617 5.453-6.362-5.387 5.317-7.201z"></path>
<path d="M2.305 27.015l22.030-25.008 5.359 4.763-23.817 23.222z"></path>
</symbol>
<symbol id="icon-cross" viewBox="0 0 32 32">
<path  d="M27.506 1.281l-11.397 12.997-5.653-10.167-1.969 1.985 5.949 9.555-12.486 12.89 2.065 2.011 11.399-12.998 5.652 10.168 1.97-1.985-5.95-9.556 12.486-12.89-2.066-2.011z"></path>
</symbol>
<symbol id="icon-chbox" viewBox="0 0 32 32">
<path  d="M5.876 3.487h20.248c1.32 0 2.389 1.245 2.389 2.78v19.466c0 1.536-1.070 2.78-2.389 2.78h-20.248c-1.32 0-2.389-1.245-2.389-2.78v-19.466c0-1.536 1.070-2.78 2.389-2.78z"></path>
</symbol>
<symbol id="icon-arrow" viewBox="0 0 32 32">
<path d="M11.615 27.949l-2.064-12.127h-6.707l12.383-12.128 13.929 11.771-7.738 0.713-1.032 12.127z"></path>
</symbol>

<!-- learning -->
<symbol id="icon-head" viewBox="0 0 32 32">
<path d="M16 0.72c-5.406 0-9.79 4.075-9.79 9.103 0 0.43 0.034 0.852 0.096 1.266v0.006c-0.048 0.634-0.075 1.373-0.075 2.118 0 0.363 0.006 0.725 0.019 1.085l-0.001-0.052c-0.467-0.148-1.035-0.326-1.42-0.319-0.258 0.005-0.433 0.095-0.433 0.332 0 0.189 0.865 1.713 0.959 1.87-0.214 0.25-0.273 0.693-0.273 1.049-0.117 0.539 0.262 1.111 0.296 1.364-0.244 0.595-0.412 0.713-0.417 1.353 0 0.791 0.153 1.027 0.889 1.027 0.566 0 0.948-0.285 1.094-0.777 0.781 3.829 2.093 6.82 3.509 8.235 1.137 1.74 3.196 2.902 5.546 2.902s4.406-1.162 5.543-2.901c1.417-1.415 2.731-4.406 3.513-8.235 0.146 0.491 0.528 0.775 1.094 0.775 0.736 0 0.889-0.235 0.889-1.026-0.005-0.64-0.173-0.757-0.417-1.353 0.034-0.253 0.412-0.825 0.296-1.364 0-0.356-0.057-0.799-0.27-1.049 0.095-0.157 0.956-1.681 0.956-1.87 0-0.238-0.175-0.327-0.434-0.332-0.385-0.007-0.954 0.171-1.422 0.318 0.035-1.098 0.016-2.155-0.057-3.144 0.063-0.417 0.099-0.843 0.099-1.277 0-5.028-4.384-9.103-9.79-9.103z"></path>
</symbol>
<symbol id="icon-steps" viewBox="0 0 32 32">
<path d="M6.544 1.351c-0.074-0.001-0.15 0-0.224 0.003-1.377 0.058-2.579 0.91-3.47 1.71-0.813 0.731-1.234 1.7-1.501 2.635-0.512 2.876-0.263 4.973 1.502 6.699 1.515 1.551 4.033 4.915 4.033 4.915 1.724-1.642 3.561-2.774 5.535-3.276 0 0 0.175-5.504-0.753-8.125-0.425-1.2-1.004-2.465-2.156-3.348-0.785-0.601-1.856-1.184-2.965-1.213zM25.456 10.032c-1.109 0.028-2.18 0.612-2.965 1.212-1.152 0.883-1.732 2.148-2.156 3.348-0.928 2.622-0.753 8.125-0.753 8.125 1.975 0.502 3.811 1.634 5.535 3.276 0 0 2.519-3.364 4.033-4.914 1.765-1.728 2.015-3.824 1.502-6.7-0.267-0.936-0.688-1.904-1.502-2.635-0.89-0.8-2.093-1.651-3.47-1.71-0.042-0.002-0.092-0.003-0.142-0.003-0.029 0-0.057 0-0.086 0.001l0.004-0zM12.933 15.444c-0.178 0-0.348 0.048-0.514 0.16-0.936 0.626-3.3 1.497-4.223 2.672-0.692 0.883 2.022 3.044 4.128 3.598s4.988-1.466 4.033-2.885c-0.718-1.067-2.18-3.54-3.424-3.546zM19.067 24.124c-1.244 0.006-2.705 2.478-3.424 3.546-0.956 1.419 1.929 3.44 4.033 2.885 2.106-0.555 4.82-2.716 4.128-3.598-0.923-1.175-3.287-2.047-4.223-2.672-0.143-0.1-0.32-0.16-0.511-0.16-0.001 0-0.002 0-0.003 0h0z"></path>
</symbol>
<symbol id="icon-gears" viewBox="0 0 32 32">
<path d="M14.101 2.367l-0.387 2.507-2.527-0.207v1.36l-2.24-0.68 0.273 2.58-2.173 0.067 0.813 1.827-2.167 1.493 1.42 1.22-2.773 1.287 2.98 1.627-0.947 1.293 1.42 0.813-0.407 1.627 1.56 0.473-0.133 1.493 1.487-0.273v1.56l2.040 0.067 0.2 1.56 2.373-0.54 0.813 1.22 2.373-1.56 1.827 0.747 1.427-1.833 1.287 0.474-0.133-1.353 1.087 0.2 0.407-1.627h1.013l-0.34-1.080 0.813 0.2-0.133-1.353 1.693-0.34-1.013-1.693 0.747-0.407-0.68-0.887 1.56-1.013-1.693-1.020 1.147-1.153-1.693-0.88 0.473-1.22-1.22-0.473 0.34-1.76-2.167-0.207-0.067-1.427-1.833 0.48-0.473-1.493-1.967 0.274-0.947-1.56-1.473 1.487-1.987-1.893zM16.881 6.367c0.004 0 0.009 0 0.014 0 1.65 0 3.174 0.538 4.407 1.448l-0.020-0.014-1.206 1.587c-0.919-0.623-2.045-0.987-3.26-0.987-0.58 0-1.14 0.085-1.667 0.24l-0.787-1.833c0.75-0.278 1.616-0.439 2.52-0.44h0zM17.008 9.84c0.049-0.002 0.107-0.003 0.165-0.003 0.943 0 1.816 0.301 2.528 0.812l-0.013-0.009-1.187 1.62c-0.691-0.438-1.58-0.504-2.347-0.114l-0.84-1.893c0.495-0.241 1.074-0.391 1.685-0.413l0.008-0zM17.081 13.007c0.6 0.001 1.086 0.487 1.087 1.086v0c-0.001 0.6-0.487 1.086-1.087 1.087h-0c-0.599 0-1.080-0.487-1.080-1.087s0.481-1.086 1.080-1.086zM9.441 13.267l1.753 0.2c-0.005 0.096-0.007 0.19-0.007 0.287 0 1.764 0.897 3.33 2.28 4.307l-1.22 1.6c-1.721-1.367-2.827-3.473-2.827-5.84 0-0.186 0.006-0.371 0.020-0.553zM12.921 13.367l2.033 0.22c-0.063 0.204-0.1 0.439-0.1 0.682 0 0.452 0.126 0.875 0.346 1.235l-0.006-0.010c0.14 0.227 0.308 0.421 0.503 0.584l0.004 0.003-1.133 1.547c-0.428-0.324-0.813-0.726-1.107-1.213-0.573-0.95-0.731-2.036-0.54-3.046zM19.601 14.080l1.914 0.207c-0.040 1.428-0.786 2.808-2.1 3.6-0.186 0.112-0.371 0.212-0.567 0.293l-0.76-1.7c0.145-0.055 0.268-0.116 0.384-0.186l-0.011 0.006c0.795-0.479 1.206-1.353 1.14-2.22zM22.341 14.753l1.907 0.22c-0.375 2.411-1.905 4.443-4.007 5.507l-0.84-1.967c1.507-0.745 2.615-2.122 2.94-3.76z"></path>
<path d="M25.287 20.467l-0.34 0.813-1.013-0.273 0.2 0.547-0.747 0.813 0.68 0.473-0.813 0.813 1.087 0.067 0.133 1.22 1.087-0.68 0.88 0.613 0.207-1.020 0.947-0.267-0.473-1.020 0.673-1.080h-1.147v-0.82l-0.953 0.407-0.407-0.607zM25.56 21.893c0.412 0 0.747 0.328 0.747 0.74s-0.335 0.747-0.747 0.747c-0.412 0-0.747-0.335-0.747-0.747s0.335-0.74 0.747-0.74zM5.287 18.434l-0.473 1.287-1.36-0.88-0.407 1.353-1.353-0.407 0.747 2.107-1.22 0.407 0.88 1.42-1.353 0.68 1.42 0.407-0.68 1.287 1.493 0.206-0.473 1.080 1.693-0.267v1.080l1.087-0.947 1.013 1.287 0.407-1.56 1.293 0.34-0.14-0.88 1.087-0.133-0.2-0.953h1.147l-0.74-1.627 1.013-0.473-1.087-0.813 0.34-0.747-1.287-0.613 0.407-1.147-1.087 0.333-0.133-0.74-0.613 0.2-0.267-0.607-0.613 0.407-0.54-1.087zM5.014 21.214l0.207 1.013-0.473 0.206-0.207 0.54-1.013-0.133v-0.407l0.134-0.547 0.407-0.407 0.947-0.267zM6.874 21.468l0.387 0.12 0.473 0.3 0.26 0.513-0.033 0.987-1.027-0.12-0.047-0.52-0.453-0.36 0.44-0.92zM5.827 22.634c0.375 0.001 0.679 0.305 0.68 0.68v0c-0.001 0.375-0.305 0.679-0.68 0.68h-0c-0.374 0-0.673-0.305-0.673-0.68s0.299-0.68 0.673-0.68zM5.147 24.241l0.44 0.273 0.56-0.133 0.46 0.92-0.34 0.227-0.527 0.194-0.56-0.107-0.76-0.633 0.727-0.74z"></path>
</symbol>
<symbol id="icon-flower" viewBox="0 0 32 32">
<path  d="M16 0.639c-1.265 0-2.61 0.366-3.766 1.006-1.149 0.635-2.126 1.551-2.567 2.707-0.003 0.007-0.011 0.011-0.014 0.019h0.007c-0.178 0.442-0.128 0.855-0.020 1.335-0.402-0.294-0.819-0.513-1.257-0.619l-0.020-0.007h-0.020c-0.258-0.048-0.554-0.076-0.857-0.076-0.044 0-0.087 0.001-0.131 0.002l0.006-0c-0.984 0.025-1.963 0.326-2.844 0.784-1.173 0.612-2.192 1.51-2.824 2.53s-0.959 2.283-0.942 3.534c0.017 1.244 0.383 2.491 1.237 3.424l0.014 0.018h0.007c0.321 0.36 0.733 0.528 1.23 0.681-0.476 0.178-0.892 0.404-1.211 0.704l-0.014 0.011-0.013 0.018c-0.867 0.935-1.227 2.185-1.244 3.437s0.309 2.522 0.942 3.541c0.633 1.020 1.645 1.911 2.817 2.524 1.168 0.609 2.508 0.94 3.805 0.716h0.020v-0.007c0.5-0.078 0.86-0.323 1.252-0.649-0.072 0.471-0.068 0.917 0.052 1.323l0.007 0.019 0.006 0.018c0.437 1.166 1.424 2.086 2.581 2.726s2.494 1.005 3.759 1.005c1.265 0 2.61-0.366 3.766-1.005 1.149-0.636 2.126-1.552 2.567-2.708 0.003-0.007 0.011-0.011 0.014-0.018h-0.007c0.178-0.441 0.128-0.855 0.020-1.335 0.402 0.293 0.819 0.512 1.257 0.619l0.020 0.007h0.020c1.303 0.23 2.652-0.105 3.825-0.717s2.192-1.505 2.824-2.524c0.633-1.019 0.959-2.283 0.942-3.534-0.017-1.245-0.38-2.496-1.237-3.43-0.004-0.007-0.009-0.007-0.014-0.012-0.323-0.365-0.736-0.528-1.237-0.68 0.476-0.178 0.892-0.404 1.211-0.704l0.013-0.014 0.014-0.018c0.867-0.935 1.227-2.185 1.244-3.436s-0.309-2.522-0.942-3.541c-0.633-1.019-1.645-1.911-2.817-2.523-0.88-0.459-1.86-0.765-2.844-0.79-0.033-0.001-0.072-0.001-0.11-0.001-0.301 0-0.595 0.027-0.88 0.079l0.030-0.005v-0.007c-0.007 0-0.013 0.007-0.020 0.007-0.5 0.078-0.86 0.327-1.252 0.656 0.072-0.471 0.068-0.917-0.052-1.323l-0.007-0.019-0.006-0.019c-0.437-1.166-1.424-2.086-2.581-2.726s-2.494-1.005-3.759-1.005zM16 1.833c0.988 0 2.139 0.308 3.1 0.839 0.955 0.528 1.705 1.264 2.015 2.071 0.097 0.361-0.11 1.596-0.626 2.751-0.055 0.123-0.11 0.246-0.171 0.368-0.458 0.562-0.872 1.13-1.159 1.654-0.054 0.1-0.105 0.196-0.151 0.294-0.1 0.111-0.203 0.213-0.312 0.309l-0.004 0.004h-0.184c-0.745-0.249-1.604-0.393-2.496-0.393-0.004 0-0.009 0-0.013 0h0.001c-0.006 0-0.012-0-0.019-0-0.892 0-1.751 0.144-2.554 0.409l0.057-0.016h-0.348c-0.011-0.007-0.046-0.021-0.1-0.067-0.039-0.036-0.075-0.072-0.11-0.11l-0.001-0.001c-0.275-0.698-0.713-1.412-1.225-2.089l-0.026-0.061c-0.294-0.676-0.548-1.385-0.691-1.966s-0.1-1.093-0.119-1.047v-0.007l0.007-0.013c0.304-0.814 1.059-1.557 2.020-2.089s2.119-0.839 3.108-0.839zM24.604 6.201c0.731 0.022 1.52 0.249 2.251 0.631 0.976 0.509 1.836 1.286 2.33 2.083s0.784 1.881 0.77 2.921c-0.014 1.026-0.32 1.994-0.908 2.647h-0.007c-0.277 0.258-1.536 0.719-2.876 0.882-0.134 0.016-0.267 0.032-0.402 0.043-0.761-0.090-1.507-0.135-2.146-0.104-0.143 0.009-0.266 0.020-0.387 0.034l0.032-0.003c-0.038-0.007-0.075-0.011-0.112-0.018-0.23-1.852-1.381-3.461-3.049-4.472l-0.059-0.097c0-0.013-0.003-0.048 0.014-0.11 0.011-0.041 0.038-0.104 0.059-0.159 0.511-0.57 0.964-1.28 1.337-2.028l0.006-0.018c0.006-0.007 0.014-0.011 0.019-0.018 0.466-0.558 0.953-1.061 1.474-1.525l0.014-0.012c0.469-0.406 0.96-0.633 0.908-0.625h0.021c0.227-0.040 0.466-0.056 0.71-0.049zM7.396 6.208c0.233-0.007 0.454 0.007 0.671 0.043 0.38 0.097 1.438 0.884 2.258 1.881 0.085 0.102 0.169 0.206 0.25 0.313 0.294 0.653 0.621 1.274 0.967 1.77 0.064 0.090 0.127 0.175 0.191 0.257 0.052 0.139 0.101 0.27 0.132 0.392-1.688 1.034-2.842 2.684-3.035 4.576-0.012 0-0.021 0.007-0.033 0.007-0.624-0.101-1.309-0.125-2.008-0.092-0.182 0.009-0.364 0.021-0.546 0.038-0.016 0-0.031-0.007-0.046-0.007-0.776-0.101-1.56-0.255-2.172-0.429s-1.067-0.461-1.033-0.423l-0.007-0.007-0.006-0.012c-0.604-0.653-0.927-1.63-0.942-2.671s0.276-2.125 0.77-2.921c0.495-0.796 1.362-1.574 2.337-2.084 0.732-0.381 1.52-0.608 2.251-0.631zM23.189 16.555c0.78 0.127 1.656 0.134 2.534 0.061 0.026 0.007 0.053 0 0.078 0.007 0.777 0.1 1.561 0.255 2.173 0.429s1.067 0.461 1.033 0.422l0.007 0.007 0.013 0.007c0.605 0.654 0.921 1.636 0.935 2.677s-0.276 2.125-0.77 2.922c-0.495 0.796-1.362 1.574-2.337 2.083-0.969 0.505-2.030 0.736-2.936 0.582-0.386-0.105-1.429-0.884-2.245-1.875-0.085-0.103-0.17-0.206-0.25-0.313-0.294-0.653-0.622-1.274-0.967-1.77-0.072-0.103-0.135-0.187-0.2-0.268l0.008 0.011c-0.043-0.104-0.088-0.237-0.125-0.372l-0.006-0.026c1.687-1.035 2.837-2.684 3.028-4.576 0.010 0 0.017-0.007 0.026-0.007zM6.276 16.597c0.747 0.087 1.479 0.128 2.107 0.098 0.121-0.007 0.235-0.020 0.348-0.031 0.039 0.007 0.075 0.016 0.112 0.024 0.23 1.852 1.385 3.461 3.054 4.471l0.060 0.098c0 0.014 0.003 0.048-0.014 0.11-0.011 0.041-0.038 0.104-0.059 0.159-0.516 0.575-0.969 1.291-1.343 2.046-0.006 0.007-0.014 0.011-0.020 0.018-0.466 0.558-0.952 1.061-1.474 1.525l-0.014 0.012c-0.469 0.407-0.96 0.633-0.908 0.626h-0.021c-0.91 0.161-1.979-0.073-2.955-0.583-0.976-0.508-1.843-1.286-2.337-2.082s-0.784-1.881-0.771-2.923c0.014-1.025 0.321-1.993 0.909-2.645h0.007c0.277-0.258 1.536-0.72 2.876-0.882 0.146-0.018 0.293-0.031 0.441-0.043zM13.308 21.884h0.178c0.75 0.252 1.614 0.397 2.511 0.397s1.761-0.145 2.569-0.414l-0.057 0.017h0.356c0.011 0.007 0.046 0.021 0.099 0.067 0.039 0.036 0.076 0.072 0.111 0.109l0.001 0.001c0.274 0.699 0.713 1.412 1.225 2.089l0.026 0.061c0.294 0.676 0.548 1.385 0.691 1.966s0.1 1.093 0.119 1.047v0.007l-0.007 0.012c-0.304 0.814-1.059 1.557-2.020 2.089s-2.119 0.839-3.108 0.839-2.139-0.307-3.1-0.839c-0.953-0.526-1.697-1.26-2.008-2.064-0.1-0.357 0.102-1.599 0.619-2.756 0.055-0.123 0.111-0.246 0.171-0.368 0.459-0.562 0.872-1.136 1.159-1.66 0.054-0.097 0.1-0.192 0.145-0.287 0.101-0.111 0.206-0.213 0.317-0.309l0.005-0.004z"></path>
</symbol>

<!-- basic modes -->

<symbol id="icon-home" viewBox="0 0 32 32">
<path d="M16.712 1.007l-14.004 16.377 1.898 1.109 1.663-2.293 0.474 14.319 0.315 0.319 18.754 0.155 1.029-14.874 1.818 1.344 0.634-1.184-5.224-6.413-0.080-0.475 0.794-5.694-4.43-0.24 0.075 1.978-3.716-4.43zM16.712 3.379l9.494 12.501-0.869 12.741-2.217-0.235 0.869-9.734-6.643-0.080 0.63 9.814h-10.204l-0.949-13.135 9.889-11.872zM16.712 6.071l-2.532 3.401 2.372 2.058 0.395-0.235 1.823-1.503 0.235-0.399-2.293-3.321zM8.561 19.206l0.319 6.248h5.933l0.235-6.248h-6.488z"></path>
</symbol>

<symbol id="icon-planning" viewBox="0 0 32 32">
<path d="M2.12 2.431l1.106 22.855 13.49 0.316v-0.799l-12.533-0.79-1.431-20.941 19.993 1.58-0.316 10.251-0.79-0.57v-8.566l-17.457-1.589 0.948 16.5 12.235 0.781-0.176 0.176-0.316 1.589 0.158 2.378 1.273 2.378 3.010 1.589 3.967-0.799 2.063-1.905 2.536-3.642-2.221-5.398-1.264-1.273-0.957-0.158-2.045-0.957 0.623-11.735-21.898-1.273zM5.446 4.81l15.552 1.747 0.316 7.548-1.536-1.097 0.149 0.167-1.001-0.737h0.070l-1.334-0.957-0.562-0.377-0.843-0.614 0.737 0.632 0.509 0.518 0.632 0.632-2.063 0.316 2.607-0.132 1.431 0.913 1.044 1.123 2.221 1.747 0.728 0.29 1.966 2.73-0.851-2.273 0.535 0.211h1.115l0.948 1.106 1.431 5.082-3.493 4.757-3.651 0.948-2.852-1.58-1.431-2.703-0.158-1.106 0.614-1.527 0.974 0.413 1.273-0.632 0.316-1.273-0.641-2.221 0.167 2.703-0.957 0.948h-1.115l1.589-3.967-1.106-0.948-1.589-1.431-0.632-0.957-0.939-0.158-0.14-0.149-0.825-1.044-0.474-1.72v0.553l-0.167-0.807 0.079-0.061 0.088 0.316v-0.386l0.079-0.070 0.957-0.474 1.264-0.114-0.448-0.298 0.053-0.026 0.176 0.123-0.334-0.281-0.097 0.044-0.070-0.044h-0.79l-1.747 0.474v1.273l1.273 2.378 2.378 2.063 2.027 2.501-0.597 1.369 0.518-0.983-0.36 1.080-0.351 0.351 0.193-0.448-0.281 0.535-0.176 0.176-11.761-1.246-0.641-14.92z"></path>
</symbol>

<symbol id="icon-portfolio" viewBox="0 0 32 32">
<path d="M20.688 5.719l-0.521 0.708-16.479-0.188-2.188 2.896 0.479 16.063 0.188 0.604 0.625 0.396 26.521 0.083 0.333-0.333c0 0-0.002-0.043 0.188-0.375s0.667-18.583 0.667-18.583v-0.375l-0.667-0.75-9.146-0.146zM26.813 6.469l2.896 0.104 0.229 0.479-0.417 18.292-0.333 0.521h-0.146l0.146-0.313-24.458-1.479-0.729 1-1.188-0.708-0.417-15.667 0.333-0.479h0.292l-0.271 0.792 17.542 0.5 1.229-2.729h8.146l-2.854-0.313zM3.833 6.573l16.063 0.146-0.896 1.313-15.75-0.667 0.583-0.792zM2.813 24.448l0.646 1.271h-0.292l-0.333-0.333-0.021-0.938z"></path>
</symbol>




<symbol id="icon-estimate" viewBox="0 0 32 32">
<path  d="M15.997 15.069c-0.366 0-0.728 0.015-1.092 0.043-0.084 0.007-0.193-0.021-0.251 0.039-0.657 0.677-0.947 2.090-0.313 2.787 0.169 0.186 0.397 0.328 0.656 0.428-0.214 0.79-0.338 1.451-0.097 1.389h2.413c0.251-0.004 0.109-0.672-0.119-1.471 0.179-0.091 0.336-0.208 0.462-0.346 0.635-0.697 0.344-2.11-0.313-2.787-0.058-0.060-0.167-0.033-0.251-0.039-0.328-0.027-0.71-0.043-1.096-0.043h-0z"></path>
<path  d="M16.38 15.069c-0.296 0-0.59 0.015-0.885 0.043-0.068 0.007-0.156-0.021-0.203 0.039-0.532 0.677-0.768 2.090-0.253 2.787 0.137 0.186 0.322 0.328 0.532 0.428-0.174 0.79-0.273 1.451-0.079 1.389h1.955c0.203-0.004 0.088-0.672-0.096-1.471 0.148-0.093 0.272-0.209 0.372-0.342l0.003-0.004c0.514-0.697 0.279-2.11-0.253-2.787-0.047-0.060-0.136-0.033-0.203-0.039-0.266-0.027-0.575-0.043-0.888-0.043h-0z"></path>
<path  d="M14.54 16.92l3.086 0.075c0.907 0.022 2.141 0.069 2.196-0.035 2.993-0.184 11.567-14.602 6.576-15.749h-20.487c-4.988-0.355 1.125 15.119 7.008 15.407 0.057 0.099 0.714 0.279 1.621 0.301z"></path>
<path d="M8.767 28.846h14.465c0.528 0 0.956 0.257 0.956 0.574v0.77c0 0.317-0.428 0.574-0.956 0.574h-14.465c-0.528 0-0.956-0.257-0.956-0.574v-0.77c0-0.317 0.428-0.574 0.956-0.574z"></path>
<path  d="M9.571 23.594h12.768c2.093-0.118 0.956 3.817 0.956 5.263 0 0.041-0.426 0.074-0.956 0.074h-12.768c-0.53 0-0.956-0.033-0.956-0.074 0.398-2.064-1.246-5.258 0.956-5.263zM15.049 19.674l2.16-0.083c0.529-0.020 0.924 0.048 0.956 0.074 0.617 0.969 6.488 3.837 3.88 3.846h-12.089c-2.651 0.137 3.395-3.226 4.135-3.762 0.033-0.024 0.427-0.053 0.957-0.074z"></path>
<path  d="M15.157 16.076l2.768 0.054c0.813 0.016 1.92 0.050 1.97-0.025 2.685-0.133 10.374-10.565 5.898-11.394h-18.373c-4.473-0.257 1.009 10.938 6.285 11.146 0.051 0.072 0.641 0.202 1.454 0.218z"></path>
<path  d="M7.070 1.829h19.811c0.528 0 0.956 0.257 0.956 0.574v1.354c0 0.317-0.428 0.574-0.956 0.574h-19.811c-0.528 0-0.956-0.257-0.956-0.574v-1.354c0-0.317 0.428-0.574 0.956-0.574z"></path>
<path d="M16.27 19.674l1.816-0.083c0.445-0.020 0.777 0.048 0.804 0.074 0.519 0.969 5.454 3.837 3.262 3.846h-10.162c-2.228 0.137 2.854-3.226 3.476-3.762 0.028-0.024 0.359-0.053 0.804-0.074zM10.563 23.594h11.866c1.945-0.118 0.889 3.817 0.889 5.263 0 0.041-0.396 0.074-0.889 0.074h-11.866c-0.492 0-0.889-0.033-0.889-0.074 0.37-2.064-1.158-5.258 0.889-5.263z"></path>
<path  d="M9.966 28.846h13.341c0.487 0 0.882 0.257 0.882 0.574v0.77c0 0.317-0.395 0.574-0.882 0.574h-13.341c-0.487 0-0.882-0.257-0.882-0.574v-0.77c0-0.317 0.395-0.574 0.882-0.574z"></path>
<path style="fill: var(--color1, rgb(122, 76, 6))"   d="M11.112 24.010h10.2c0.464 0 0.84 0.228 0.84 0.508v4.153c0 0.281-0.376 0.508-0.84 0.508h-10.2c-0.464 0-0.84-0.228-0.84-0.508v-4.153c0-0.281 0.376-0.508 0.84-0.508z"></path>
<path    d="M15.375 15.252l2.43 0.047c0.714 0.014 1.686 0.044 1.729-0.022 2.357-0.116 5.389-9.141 1.46-9.866l-9.057-0.2c-3.927-0.225-2.469 9.667 2.162 9.85 0.045 0.063 0.562 0.177 1.276 0.191z"></path>
</symbol>



<symbol id="icon-clock" viewBox="0 0 32 32">
<path  style="fill: var(--color1, rgb(122, 76, 6))"   d="M3.698 15.999c0-6.795 5.508-12.304 12.301-12.304s12.301 5.509 12.301 12.304c0 6.795-5.508 12.301-12.299 12.301-6.798 0-12.304-5.509-12.304-12.301z"></path>
<path d="M14.136 16.002c0-1.016 0.835-1.839 1.864-1.839s1.864 0.823 1.864 1.839c0 1.016-0.835 1.839-1.864 1.839-1.030 0-1.864-0.823-1.864-1.839z"></path>
<path d="M16 25.953c-0.555 0-1.004-0.651-1.004-1.455v-5.589c0-0.804 0.45-1.455 1.004-1.455s1.004 0.651 1.004 1.455v5.589c0 0.804-0.45 1.455-1.004 1.455z"></path>
<path d="M16 14.716c-0.64 0-1.159-0.403-1.159-0.9v-3.455c0-0.497 0.519-0.9 1.159-0.9s1.159 0.403 1.159 0.9v3.455c0 0.497-0.519 0.9-1.159 0.9z"></path>
<path d="M16.035 28.969c7.189 0 12.998-5.823 12.998-12.969s-5.808-12.968-12.998-12.968c-7.19 0-13.068 5.823-13.068 12.968s5.878 12.969 13.068 12.969zM16.035 27.625c-6.399 0-11.6-5.182-11.6-11.625s5.201-11.624 11.6-11.624 11.6 5.182 11.6 11.624c0 6.443-5.201 11.625-11.6 11.625z"></path>
</symbol>

<symbol id="icon-second" viewBox="0 0 32 32">
<path fill="rgb(122, 76, 6)" style="fill: var(--color1, rgb(122, 76, 6))"  d="M27.383 16c0 6.287-5.096 11.384-11.382 11.384s-11.382-5.097-11.382-11.384c0-6.287 5.096-11.382 11.38-11.382 6.29 0 11.384 5.097 11.384 11.382z"></path>
<path d="M17.724 15.998c0 0.94-0.772 1.701-1.725 1.701s-1.725-0.762-1.725-1.701c0-0.94 0.772-1.701 1.724-1.701s1.725 0.762 1.725 1.701z"></path>
<path d="M15.999 5.79c0.237 0 0.429 0.68 0.429 1.518v5.829c0 0.838-0.192 1.518-0.429 1.518s-0.429-0.68-0.429-1.518v-5.829c0-0.838 0.192-1.518 0.429-1.518z"></path>
<path d="M15.967 4c-6.652 0-12.026 5.388-12.026 11.999s5.374 11.999 12.026 11.999c6.652 0 12.091-5.387 12.091-11.999s-5.439-11.999-12.091-11.999zM15.967 5.244c5.921 0 10.733 4.794 10.733 10.755s-4.812 10.755-10.733 10.755-10.733-4.794-10.733-10.755c0-5.962 4.812-10.755 10.733-10.755z"></path>
</symbol>



<symbol id="icon-calendar" viewBox="0 0 32 32">
<path  d="M2.703 1.619h26.593c0.528 0 0.957 0.795 0.957 1.775v25.211c0 0.98-0.428 1.775-0.957 1.775h-26.593c-0.528 0-0.957-0.795-0.957-1.775v-25.211c0-0.98 0.428-1.775 0.957-1.775z"></path>
<path style="fill: var(--color1, rgb(122, 76, 6))" d="M17.27 2.904c-0.585 0-1.060 0.216-1.060 0.487v2.802c0 0.271 0.475 0.487 1.060 0.487h10.503c0.585 0 1.060-0.216 1.060-0.487v-2.802c0-0.271-0.475-0.487-1.060-0.487h-10.503zM4.046 3.117c-0.485 0-0.878 0.577-0.878 1.283v7.29c0 0.706 0.393 1.282 0.878 1.282h8.717c0.486 0 0.879-0.576 0.879-1.282v-7.29c0-0.707-0.393-1.282-0.879-1.282h-8.717zM4.934 14.088c-1.233 0-2.225 0.859-2.225 1.935v11.125c0 1.077 0.991 1.947 2.225 1.947h22.133c1.233 0 2.225-0.871 2.225-1.947v-11.125c0-1.076-0.991-1.935-2.225-1.935h-22.133z"></path>
<path    d="M2.767 14.159l-0.153 14.544h0.239v0.261l26.218 0.131v-0.309l-18.57-0.095 0.029-2.731 3.332 0.024-0.029 2.719h0.439l0.029-2.719 3.303 0.012-0.029 2.707h0.43l0.028-2.707 3.323 0.024-0.029 2.683h0.393l0.029-2.683 3.389 0.011-0.029 2.671h0.381l0.029-2.66 3.36 0.011-0.028 2.648h0.382l0.153-14.544h-0.373l-0.029 2.422-3.36-0.011 0.028-2.411h-0.382l-0.029 2.399-3.38-0.011 0.029-2.387h-0.391l-0.029 2.387-3.332-0.024 0.029-2.363h-0.439l-0.029 2.363-3.293-0.012 0.028-2.351h-0.44l-0.029 2.351-3.322-0.024 0.028-2.327h-0.391l-0.029 2.327-3.37-0.011 0.029-2.315h-0.401l-0.029 2.315-3.36-0.023 0.028-2.291h-0.382zM3.12 16.759l3.361 0.024-0.029 2.731-3.36-0.024 0.028-2.731zM6.882 16.783l3.37 0.011-0.038 2.731-3.361-0.011 0.029-2.731zM10.644 16.795l3.323 0.023-0.029 2.731-3.333-0.024 0.039-2.731zM14.405 16.818l3.294 0.011-0.029 2.731-3.293-0.011 0.028-2.731zM18.139 16.829l3.332 0.023-0.038 2.731-3.323-0.024 0.029-2.731zM21.863 16.853l3.38 0.011-0.029 2.731-3.39-0.011 0.039-2.731zM25.624 16.877l3.361 0.011-0.029 2.731-3.361-0.011 0.029-2.731zM3.082 19.81l3.361 0.023-0.029 2.731-3.361-0.024 0.029-2.731zM6.844 19.833l3.37 0.011-0.029 2.731-3.37-0.011 0.029-2.731zM10.605 19.845l3.323 0.024-0.029 2.731-3.323-0.011 0.029-2.743zM14.367 19.869l3.303 0.011-0.029 2.743-3.303-0.024 0.029-2.731zM18.101 19.88l3.332 0.024-0.029 2.731-3.332-0.011 0.029-2.743zM21.824 19.904l3.38 0.011-0.029 2.743-3.389-0.011 0.038-2.743zM25.586 19.928l3.361 0.011-0.029 2.743-3.36-0.023 0.028-2.731zM3.053 22.861l3.361 0.023-0.029 2.731-3.361-0.011 0.029-2.743zM6.815 22.885l3.36 0.011-0.028 2.743-3.361-0.011 0.029-2.743zM10.567 22.908l3.332 0.011-0.029 2.743-3.332-0.024 0.029-2.731zM14.339 22.919l3.294 0.023-0.029 2.731-3.293-0.011 0.028-2.742zM18.072 22.943l3.323 0.011-0.029 2.743-3.323-0.023 0.029-2.731zM21.786 22.967l3.389 0.011-0.038 2.731-3.38-0.011 0.029-2.731zM25.557 22.978l3.361 0.024-0.038 2.731-3.361-0.012 0.038-2.743zM3.015 25.923l3.36 0.011-0.028 2.731-3.361-0.011 0.029-2.731zM6.777 25.946l3.361 0.011-0.029 2.731-3.361-0.011 0.029-2.731z"></path>
</symbol>

<symbol id="icon-timetable" viewBox="0 0 32 32">
<path d="M2.708 1.625c-0.53 0-0.958 0.788-0.958 1.771v25.208c0 0.983 0.428 1.771 0.958 1.771h26.583c0.53 0 0.958-0.788 0.958-1.771v-25.208c0-0.983-0.428-1.771-0.958-1.771h-26.583zM4.083 3.708h23.833c0.585 0 1.063 0.229 1.063 0.5v2.792c0 0.27-0.477 0.5-1.063 0.5h-23.833c-0.585 0-1.063-0.23-1.063-0.5v-2.792c0-0.271 0.477-0.5 1.063-0.5zM4.063 10.75h6.188c0.406 0 0.729 0.493 0.729 1.083v6.083c0 0.59-0.323 1.083-0.729 1.083h-6.188c-0.406 0-0.729-0.493-0.729-1.083v-6.083c0-0.59 0.323-1.083 0.729-1.083zM12.917 10.75h6.167c0.406 0 0.729 0.493 0.729 1.083v6.083c0 0.59-0.323 1.083-0.729 1.083h-6.167c-0.406 0-0.729-0.493-0.729-1.083v-6.083c0-0.59 0.323-1.083 0.729-1.083zM21.75 10.75h6.188c0.406 0 0.729 0.493 0.729 1.083v6.083c0 0.59-0.323 1.083-0.729 1.083h-6.188c-0.406 0-0.729-0.493-0.729-1.083v-6.083c0-0.59 0.323-1.083 0.729-1.083zM4.167 20.042h6.187c0.406 0 0.729 0.493 0.729 1.083v6.083c0 0.59-0.323 1.083-0.729 1.083h-6.188c-0.406 0-0.729-0.493-0.729-1.083v-6.083c0-0.59 0.323-1.083 0.729-1.083zM13.021 20.042h6.146c0.406 0 0.75 0.493 0.75 1.083v6.083c0 0.59-0.344 1.083-0.75 1.083h-6.146c-0.406 0-0.75-0.493-0.75-1.083v-6.083c0-0.59 0.344-1.083 0.75-1.083zM21.833 20.042h6.188c0.406 0 0.729 0.493 0.729 1.083v6.083c0 0.59-0.323 1.083-0.729 1.083h-6.188c-0.406 0-0.729-0.493-0.729-1.083v-6.083c0-0.59 0.323-1.083 0.729-1.083z"></path>
</symbol>

<symbol id="icon-done" viewBox="0 0 32 32">
<path d="M7.267 27.828c-0.643-0.308-1.285-0.972-1.659-1.716-0.275-0.545-0.303-1.099-0.311-6.218l-0.009-5.619-3.357-3.644 2.489-2.411 2.029 2.375 0.654-0.367c0.632-0.356 0.877-0.367 7.436-0.357l6.783 0.011 1.066-1.201c0.587-0.66 1.882-2.149 2.879-3.307l1.813-2.107 3.164 1.916-6.76 7.071-0.063 6.364c-0.035 3.5-0.099 6.61-0.144 6.91-0.103 0.698-1.123 1.992-1.817 2.306-0.769 0.347-13.467 0.341-14.193-0.007zM20.923 27.016c0.32-0.096 0.798-0.419 1.062-0.717l0.481-0.543 0.093-12.584-3.724 3.9c-2.048 2.145-3.945 4.153-4.214 4.463s-0.7 0.727-0.957 0.926l-0.466 0.362-6.994-7.56v5.090c0 6.058 0.021 6.147 1.625 6.673 0.625 0.205 12.408 0.197 13.093-0.009zM17.249 14.774l3.383-3.933-6.133-0.047c-4.605-0.035-6.29 0.009-6.765 0.177-0.347 0.123-0.612 0.303-0.589 0.4s1.407 1.787 3.074 3.756c1.88 2.22 3.148 3.58 3.338 3.58s1.6-1.503 3.691-3.933z"></path>
</symbol>

<symbol id="icon-docs" viewBox="0 0 33 32">
<path d="M25.684 0.523l-20.359 0.469-0.619 0.465-0.441 0.558v0.375l0.267 0.652 0.619 0.094v0.652l-0.975 0.094-0.178 0.652 0.178 0.371 1.149-0.094 0.178 0.656-0.797 0.746-0.971 1.023-0.619 1.211v1.867l0.263 1.863 0.53 1.492h-1.238l-0.178 1.214v1.492l0.178 1.304 0.089 1.211h-0.619l-0.619 0.558v0.656l0.352 0.836 0.797 0.375 0.089 3.171v2.144l-0.178 2.050-0.619 0.187-0.441 0.652-0.014-0.049-0.075 0.232v0.562l0.267 0.746 0.441 0.277 24.697 0.187 2.21-0.187 1.242-0.84 0.794-1.117 0.445-1.585 0.263-1.957-0.263-2.706-0.797-1.769-1.505-1.679-1.149-0.84 0.089-0.746 0.085-1.211-0.174-1.492-0.267-1.304-0.441-0.375 0.263-0.184 0.178-0.375-0.089-0.652-0.53-0.465-0.352-1.027v-1.398l0.174-1.679 0.089-0.84h0.619l0.178-0.465v-0.558l-0.441-0.558-2.744-0.094v-0.281h0.619v-1.398l-0.445-0.281h0.797v-2.89zM1.507 29.471l0.014-0.045 0.263-0.375-0.352 0.187 0.075 0.232zM24.798 1.55v0.652l-19.206 0.371-0.352-0.184 0.174-0.375 0.445-0.187 18.939-0.277zM24.624 4.159l0.263 0.469-20.092-0.187 19.828-0.281zM27.101 5.932l0.356 0.652h-0.356l-21.775 0.281-0.441 0.746-0.267 1.117v1.304l0.267 1.308 0.797 1.398 0.441 0.465 21.245-0.652-0.267 0.652-21.949 0.094-0.534-0.094-0.352-0.465-0.619-1.867-0.089-1.211 0.089-1.398 0.619-0.84 1.327-1.304 21.508-0.187zM26.393 7.143l-0.089 1.304-6.904-0.184-0.263 0.465 6.904 0.375 0.352 2.144 0.267 0.93-20.537 0.094-0.263-0.93 14.071-0.562h-13.982l-0.267-1.675 5.135-0.281 0.174-0.187-5.31-0.371v-0.84l20.711-0.281zM5.504 14.415l1.505 0.469-0.356 2.050 0.089 1.211-0.883-0.094-0.445-2.050 0.089-1.585zM25.421 15.067l0.619 1.492-0.178 1.308h-0.441v-2.8zM2.849 19.73l25.316 0.187 1.238 0.652 0.971 1.398 0.534 1.585 0.174 1.585v1.957l-0.619 1.679-0.797 1.585-1.327 0.558-25.757-0.558-0.352-0.375 0.178-0.281 0.619-0.277 25.49 0.84 0.975-1.308 0.352-1.582 0.089-1.492 0.089-1.96-0.178-1.211-0.441-1.211-0.797-0.84-26.024-0.094-0.263-0.094-0.089-0.558 0.619-0.187zM3.468 21.409l24.871 0.187v0.93l-0.089 0.652-5.398-0.465-0.619 0.652 5.665 0.375 0.267 0.371v2.613l-16.818-0.187-1.238-2.89h1.858v-0.469l-8.231 0.281-0.267-2.050zM4.795 24.205l-0.352 3.448 0.352 0.281 6.726-0.281v-0.465l3.278-0.187 13.366 0.558v1.867l-25.049-1.027 0.352-3.823 1.327-0.371z"></path>
</symbol>

<!-- esl -->
<symbol id="icon-speaking-skill" viewBox="0 0 32 32">
<path d="M4.607 20.697l4.123-2.374 10.37-0.125 1.124-0.875 0.375-1.374 0.25-8.995-0.999-1.375-0.999-0.375-16.742-0.375-1.124 0.5-0.375 0.999v0.999l1.124 10.37 0.625 0.749 0.75 0.25h2.374z"></path>
<path d="M27.508 27.294l-4.123-2.374-10.37-0.125-1.124-0.875-0.375-1.374-0.25-8.995 0.999-1.374 0.999-0.375 16.742-0.375 1.124 0.5 0.375 1v0.999l-1.124 10.37-0.625 0.75-0.75 0.25h-2.374z"></path>
</symbol>

<symbol id="icon-vocab-skill" viewBox="0 0 32 32">
<path d="M6.691 4.835c-0.723 0-1.339 0.423-1.81 1.071s-0.833 1.531-1.119 2.571c-0.572 2.082-0.83 4.795-0.809 7.524s0.298 5.451 0.881 7.524c0.291 1.037 0.665 1.928 1.119 2.571s1.046 1.076 1.738 1.072h20.834c0.383 0 0.741-0.079 1.024-0.238s0.5-0.405 0.5-0.762v-2.643c0-0.296-0.167-0.51-0.381-0.667-0.14-0.102-0.323-0.136-0.5-0.19-0.050-0.315 0.051-4.92-0.739-7.070-0.872-2.379 0.046-6.23 0.739-6.286 0.177-0.055 0.36-0.066 0.5-0.168 0.214-0.156 0.381-0.394 0.381-0.69v-2.619c0-0.357-0.217-0.627-0.5-0.786s-0.641-0.235-1.024-0.213c-6.585 0.358-13.063 0.827-20.834 0zM27.358 5.502c0.283 0.159 0.524 0.453 0.524 0.81-2.761 1.549-16.741 0.238-20.857 0.738-0.724 0-1.339 0.304-1.81 0.952s-0.142 2.103-0.429 3.143c-0.573 2.082-0.83 4.795-0.809 7.524 0.018 2.389 0.244 4.789 0.69 6.738-0.183-0.43-0.331-0.91-0.476-1.429-0.583-2.074-0.884-4.794-0.905-7.524s0.237-5.442 0.81-7.524c0.286-1.041 0.648-1.922 1.119-2.571 1.372-1.266 17.484 1.412 22.142-0.857zM14.477 8.668c4.326-0.061 8.649 0.157 12.976 0.453-0.427 0.145-0.939 3.899-0.738 6.476 0.219 2.811 0.698 7.016 0.738 7.262-6.923 1.75-13.839 0.157-20.762 0-0.034 0-0.062 0.012-0.095 0v-2.809c0.037 0.011 0.057 0.023 0.095 0.023 3.179-0.635 13.681 0.422 16.667-1-4.386-0.274-13.078-1-16.667-1-0.038 0-0.059 0.011-0.095 0.023-0.1-1.935 1.483-1.727 2.595-2.071l1.714-0.119c0.587-0.043-2.117-0.406-2.428-0.5l-1.881-0.571v-1c0.037 0.011 0.009-0.904 5.953-0.904 8.232-0.358-0.971-1.072-5.858-1.072-0.038 0-0.059 0.012-0.095 0.024v-2.738c0.036-0.008 0.058-0.030 0.095-0.024 2.596-0.278 5.19-0.416 7.786-0.453zM17.381 24.335c3.173-0.034 6.35-0.034 9.524 0.119-0.004 0.008-0.059 0.077-0.071 0.095h0.69c0.005-0.018 0.013-0.034 0.024-0.048l-0 0c0.091-0.008 0.175-0.018 0.262-0.023 0.35 0.116 0.548 0.254 0.548 0.404 0 0.053-0.161 0.091-0.358 0.12-0.128 0.018-0.29 0.015-0.452 0.023-0.009 0.020-0.017 0.044-0.023 0.069l-0.001 0.003h-0.69c0.011-0.018 0.067-0.091 0.071-0.095-6.347-0.305-12.701-0.027-19.048 0h-0.095v0.095h-0.976v-0.548h0.976v-0.095h0.095c3.173-0.014 6.352-0.084 9.524-0.119zM-18.848-25.507c-0.723 0-1.34 0.434-1.81 1.082s-0.838 1.519-1.124 2.56c-0.573 2.082-0.832 4.803-0.811 7.533s0.312 5.459 0.894 7.532c0.292 1.037 0.649 1.916 1.103 2.56s1.056 1.086 1.748 1.082h20.83c0.008 0 0.018 0 0.028 0 0.363 0 0.704-0.093 1.002-0.256l-0.011 0.005c0.283-0.159 0.52-0.414 0.52-0.77v-2.622c0-0.296-0.181-0.53-0.395-0.686-0.139-0.102-0.322-0.133-0.499-0.187-0.050-0.315 0.061-4.924-0.728-7.075-0.873-2.378 0.036-6.207 0.728-6.263 0.178-0.055 0.36-0.085 0.499-0.187 0.215-0.157 0.396-0.391 0.396-0.687v-2.601c0-0.356-0.238-0.632-0.521-0.791-0.261-0.146-0.572-0.232-0.904-0.232-0.041 0-0.081 0.001-0.121 0.004l0.005-0c-6.584 0.358-13.059 0.827-20.83 0zM-18.848-21.221c6.923-0.741 13.845-0.473 20.767 0-0.427 0.145-0.949 3.895-0.749 6.472 0.219 2.811 0.709 7.037 0.749 7.284-6.923 1.749-13.845 0.156-20.767 0-0.038-0.001-0.074-0.009-0.106-0.022l0.002 0.001v-2.789c0.037 0.012 0.066 0.022 0.104 0.022 3.179-0.635 13.682 0.423 16.668-0.999-4.386-0.274-13.080-0.999-16.668-0.999-0.038 0.001-0.073 0.008-0.106 0.021l0.002-0.001c-0.099-1.935 1.49-1.738 2.601-2.081l1.726-0.125c0.587-0.043-2.112-0.392-2.423-0.486l-1.904-0.575v-0.999c0.037 0.011 0.027-0.899 5.971-0.899 8.232-0.358-0.98-1.078-5.867-1.078-0.038 0.001-0.073 0.009-0.107 0.021l0.002-0.001v-2.747c0.036-0.008 0.067-0.027 0.104-0.021z"></path>
</symbol>

<symbol id="icon-writing-skill" viewBox="0 0 32 32">
<path d="M1.946 1.275c-0.56 0-0.998 0.81-0.998 1.801v25.406c0 0.991 0.438 1.777 0.998 1.777h0.219v-26.331c0-0.246 0.132-0.461 0.341-0.584v25.139c0 0.991 0.289 1.777 0.657 1.777h0.146v-26.331c0-0.376 0.204-0.681 0.462-0.681h4.38v26.136c0 0.166 0.151 0.292 0.316 0.292h0.049c0.166 0 0.316-0.126 0.316-0.292v-26.136h22.218v-0.17c0-0.991-0.438-1.801-0.998-1.801h-28.108zM27.109 3.927c-1.358 0.013 2.291 1.899 3.188 2.774 0.455-0.725-0.434-1.814-1.363-2.434-0.942-0.231-1.512-0.344-1.825-0.341zM26.111 4.317c-0.779 0.086-1.676 0.703-2.312 1.655l-4.575 5.938 0.024 0.122c-0.098 0.037-0.181 0.077-0.243 0.17l-0.511 0.779c-0.158 0.236-0.090 0.548 0.146 0.706s0.548 0.090 0.706-0.146l0.243-0.365 0.024 0.049 4.697-6.717 0.049 0.024c1.073-1.015 0.925-0.936 0.17 0.024l-10.099 15.137c-0.917 1.373-2.962 5.796-2.166 6.327l0.195 0.146 1.63 1.071c0.796 0.532 4.096-3.056 5.013-4.429l10.099-15.137c0.917-1.373 1.040-2.899 0.243-3.431l-1.825-1.217c-0.050-0.034-0.092-0.073-0.146-0.097-0.384-0.099-0.709-0.383-1.046-0.608-0.106-0.009-0.205-0.012-0.316 0zM12.459 28.166l-0.608 0.925c-0.394 0.59-0.393 1.27 0 1.533s1.017 0 1.411-0.584l0.608-0.925-1.411-0.949zM25.065 6.994l0.438 0.292c-0.081 0.106-0.166 0.201-0.243 0.316l-2.458 3.675c-0.169-0.088-0.332-0.159-0.487-0.195l2.409-3.602c0.113-0.17 0.218-0.338 0.341-0.487zM21.755 11.934c0.092 0.128 0.22 0.243 0.365 0.365l-6.571 9.832c-0.759 1.137-2.381 4.393-2.434 5.524l-0.195-0.122c-0.603-0.403 1.425-4.5 2.288-5.792l6.546-9.807zM12.216 29.747c0.079-0.020 0.15 0 0.219 0.049 0.137 0.092 0.178 0.281 0.073 0.438s-0.301 0.213-0.438 0.122-0.153-0.306-0.049-0.462c0.052-0.079 0.116-0.126 0.195-0.146z"></path>
</symbol>

<symbol id="icon-reading-skill" viewBox="0 0 32 32">
<path d="M3.095 1.56v1.452h24.786v24h1.048l1.357-25.452h-27.19zM1.714 4.726v1.738h24.452v-1.738h-24.452zM1.714 7.44v1.738h24.452v-1.738h-24.452zM1.714 10.155v1.738h24.452v-1.738h-24.452zM17.548 12.369c0.166 0.101 0.31 0.239 0.429 0.405-0.055-0.008-0.086 0-0.143 0h-0.31c-0.758 0-1.357 0.689-1.357 1.548v7c-0.938 1.155-1.579 2.665-2 4.143-0.361 1.268-0.355 2.666-0.143 3.976 0.056 0.344 0.148 0.676 0.262 1h11.714c0.11-1.075 0.173-2.159 0.333-3.143 0.123-0.754 0.379-1.593 0-2.286-0.756-1.381-0.261-1.562-4.143-2.976-0.917-0.334-1.936-1.337-3.095-1.952v-6.214c0-0.765-0.671-1.372-1.548-1.5zM15.667 12.655c-0.438 0.282-0.714 0.716-0.714 1.214v7.024c-1.282 1.155-2.163 2.641-2.738 4.119-0.493 1.268-0.456 2.69-0.167 4 0.11 0.499 0.312 0.966 0.571 1.429h1c-0.209-0.502-0.388-1.028-0.476-1.571-0.212-1.31-0.242-2.708 0.119-3.976 0.421-1.478 1.086-2.988 2.024-4.143v-7c0-0.418 0.146-0.818 0.381-1.095zM2.929 13.226v7.262h10.619v-7.262h-10.619zM20.5 13.488v1.476h5.571v-1.476h-5.571zM19.952 15.964v2.262h5.571v-2.262h-5.571zM22.19 19.464v1.762h3.881v-1.762h-3.881zM3.762 21.726v2h8.643v-2h-8.643zM20.905 22.059c0.677 0.346 1.146 0.644 1.476 0.881-0.263-0.144-0.55-0.299-0.905-0.476-0.18-0.090-0.38-0.241-0.571-0.405zM4.048 25.226v1.5h6.143v-1.5h-6.143z"></path>
</symbol>

<symbol id="icon-listening-skill" viewBox="0 0 32 32">
<path d="M91.806 64.712c-0.723 0-1.339 0.423-1.81 1.071s-0.833 1.531-1.119 2.571c-0.573 2.082-0.83 4.794-0.809 7.524s0.298 5.45 0.881 7.524c0.291 1.036 0.665 1.928 1.119 2.571s1.046 1.076 1.738 1.071h20.834c0.383 0 0.741-0.078 1.023-0.238s0.501-0.405 0.501-0.762v-2.643c0-0.296-0.167-0.51-0.381-0.667-0.14-0.102-0.323-0.137-0.501-0.19-0.050-0.315 0.052-4.921-0.738-7.071-0.873-2.378 0.046-6.229 0.738-6.286 0.178-0.054 0.36-0.065 0.501-0.167 0.214-0.156 0.381-0.395 0.381-0.69v-2.619c0-0.356-0.217-0.626-0.501-0.786s-0.64-0.235-1.023-0.214c-6.585 0.358-13.063 0.827-20.834 0zM112.472 65.379c0.283 0.159 0.523 0.453 0.523 0.809-2.76 1.55-16.739 0.238-20.857 0.738-0.722 0-1.339 0.304-1.81 0.952s-0.142 2.102-0.428 3.143c-0.573 2.082-0.83 4.794-0.81 7.524 0.018 2.389 0.244 4.789 0.691 6.738-0.183-0.43-0.331-0.91-0.476-1.429-0.583-2.074-0.884-4.794-0.905-7.524s0.237-5.442 0.81-7.524c0.286-1.041 0.648-1.923 1.118-2.571 1.373-1.266 17.486 1.412 22.143-0.857zM99.592 68.546c4.326-0.061 8.649 0.156 12.976 0.453-0.427 0.145-0.939 3.899-0.738 6.476 0.219 2.811 0.698 7.015 0.738 7.262-6.923 1.749-13.839 0.157-20.762 0-0.034 0-0.062 0.012-0.095 0v-2.81c0.037 0.011 0.057 0.024 0.095 0.024 3.179-0.635 13.681 0.422 16.667-1-4.386-0.274-13.078-1-16.667-1-0.038 0-0.059 0.011-0.095 0.024-0.1-1.935 1.483-1.728 2.595-2.071l1.714-0.119c0.587-0.043-2.117-0.406-2.428-0.501l-1.881-0.571v-1c0.037 0.011 0.009-0.905 5.952-0.905 8.232-0.358-0.97-1.071-5.857-1.071-0.038 0-0.059 0.012-0.095 0.024v-2.738c0.035-0.008 0.058-0.030 0.095-0.023 2.596-0.279 5.19-0.417 7.786-0.453zM102.496 84.213c3.173-0.035 6.35-0.034 9.524 0.119-0.004 0.008-0.059 0.076-0.071 0.095h0.69c0.005-0.018 0.013-0.034 0.024-0.048l-0 0c0.091-0.008 0.175-0.018 0.262-0.024 0.35 0.116 0.547 0.254 0.547 0.405 0 0.052-0.16 0.091-0.357 0.119-0.129 0.018-0.29 0.015-0.453 0.024-0.009 0.020-0.017 0.044-0.023 0.069l-0.001 0.003h-0.69c0.011-0.018 0.067-0.091 0.071-0.095-6.347-0.305-12.701-0.027-19.048 0h-0.095v0.095h-0.976v-0.547h0.976v-0.095h0.095c3.173-0.014 6.352-0.085 9.524-0.12zM-18.848-25.507c-0.723 0-1.34 0.434-1.81 1.082s-0.838 1.519-1.124 2.56c-0.573 2.082-0.832 4.803-0.811 7.533s0.312 5.459 0.894 7.532c0.292 1.037 0.649 1.916 1.103 2.56s1.056 1.086 1.748 1.082h20.83c0.008 0 0.018 0 0.028 0 0.363 0 0.704-0.093 1.002-0.256l-0.011 0.005c0.283-0.159 0.52-0.414 0.52-0.77v-2.622c0-0.296-0.181-0.53-0.395-0.686-0.139-0.102-0.322-0.133-0.499-0.187-0.050-0.315 0.061-4.924-0.728-7.075-0.873-2.378 0.036-6.207 0.728-6.263 0.178-0.055 0.36-0.085 0.499-0.187 0.215-0.157 0.396-0.391 0.396-0.687v-2.601c0-0.356-0.238-0.632-0.521-0.791-0.261-0.146-0.572-0.232-0.904-0.232-0.041 0-0.081 0.001-0.121 0.004l0.005-0c-6.584 0.358-13.059 0.827-20.83 0zM-18.848-21.221c6.923-0.741 13.845-0.473 20.767 0-0.427 0.145-0.949 3.895-0.749 6.472 0.219 2.811 0.709 7.037 0.749 7.284-6.923 1.749-13.845 0.156-20.767 0-0.038-0.001-0.074-0.009-0.106-0.022l0.002 0.001v-2.789c0.037 0.012 0.066 0.022 0.104 0.022 3.179-0.635 13.682 0.423 16.668-0.999-4.386-0.274-13.080-0.999-16.668-0.999-0.038 0.001-0.073 0.008-0.106 0.021l0.002-0.001c-0.099-1.935 1.49-1.738 2.601-2.081l1.726-0.125c0.587-0.043-2.112-0.392-2.423-0.486l-1.904-0.575v-0.999c0.037 0.011 0.027-0.899 5.971-0.899 8.232-0.358-0.98-1.078-5.867-1.078-0.038 0.001-0.073 0.009-0.107 0.021l0.002-0.001v-2.747c0.036-0.008 0.067-0.027 0.104-0.021z"></path>
<path d="M25.312 1.722c-0.136 0-0.256 0.096-0.386 0.183 0.648 3.304 2.6 8.396 2.6 14.116 0 5.722-1.953 10.813-2.6 14.116 0.13 0.087 0.251 0.142 0.386 0.142 1.613 0 4.448-6.377 4.448-14.258s-2.834-14.299-4.448-14.299zM20.742 3.185c-0.136 0-0.255 0.084-0.386 0.162 0.648 2.965 2.6 7.539 2.6 12.674 0 5.137-1.953 9.688-2.6 12.653 0.131 0.078 0.251 0.142 0.386 0.142 1.613 0 4.448-5.722 4.448-12.795s-2.834-12.836-4.448-12.836zM16.843 4.322c-0.136 0-0.256 0.051-0.386 0.122 0.648 2.705 2.6 6.893 2.6 11.577 0 4.686-1.953 8.852-2.6 11.557 0.13 0.072 0.251 0.101 0.386 0.101 1.613 0 3.131-5.205 3.131-11.658s-1.518-11.699-3.131-11.699zM14.182 4.464c-0.458-0.011-0.85 0.024-1.117 0.122-1.306 0.478-3.872 3.814-5.666 6.885 0.206 0.236 0.325 0.564 0.325 0.914v8.225c0 0.151-0.018 0.293-0.061 0.427 1.88 2.952 4.456 6.075 5.748 6.499 3.608-7.333 2.472-13.362 0.772-23.072zM3.742 9.826c-0.002 0-0.003 0-0.005 0-0.827 0-1.497 0.67-1.497 1.497 0 0.002 0 0.004 0 0.006v-0 9.342c0 0.835 0.668 1.503 1.502 1.503h1.259c0.002 0 0.004 0 0.006 0 0.827 0 1.497-0.67 1.497-1.497 0-0.002 0-0.004 0-0.006v0-9.342c0-0.002 0-0.004 0-0.006 0-0.827-0.67-1.497-1.497-1.497-0.002 0-0.004 0-0.006 0h0z"></path>
</symbol>

<symbol id="icon-speech-bulb" viewBox="0 0 32 32">
<path d="M7.67 26.795l5.61-3.23 14.11-0.17 1.53-1.19 0.51-1.87 0.34-12.24-1.36-1.87-1.36-0.51-22.78-0.51-1.53 0.68-0.51 1.36v1.36l1.531 14.11 0.85 1.019 1.019 0.341h3.23z"></path>
</symbol>

<!-- subjects -->

<symbol id="icon-british-fl" viewBox="0 0 32 32">
<path fill="#fff" style="fill: var(--color1, #fff)" d="M0.848 6.971h30.388v18.173h-30.388z"></path>
<path fill="#f00" style="fill: var(--color2, #f00)" d="M28.41 6.958l-9.271 5.681 2.043 0.105 9.527-5.692-2.298-0.094zM14.552 6.969v7.309h-13.832v3.455h13.832v7.309h2.897v-7.309h13.832v-3.455h-13.832v-7.309h-2.897zM0.851 7.378v1.019l7.317 4.568 2.465-0.105-9.782-5.482zM23.603 18.804l-2.465 0.105 9.782 5.482v-1.019l-7.317-4.568zM10.378 19.056l-9.271 5.681 2.043 0.105 9.527-5.692-2.298-0.094z"></path>
<path fill="#000080" style="fill: var(--color3, #000080)" d="M5.024 6.972l8.426 4.978v-4.873l-8.426-0.105zM26.974 6.972l-8.426 0.105v4.873l8.426-4.978zM0.824 8.873l-0.088 3.855 6.295-0.2-6.207-3.654zM31.174 8.873l-6.208 3.655 6.295 0.199-0.088-3.854zM0.736 18.954l0.088 3.855 6.207-3.655-6.295-0.2zM31.262 18.954l-6.295 0.2 6.208 3.655 0.088-3.854zM13.45 19.742l-8.426 4.978 8.426-0.105v-4.873zM18.548 19.742v4.873l8.426 0.105-8.426-4.978z"></path>
</symbol>

<symbol id="icon-ukr-fl" viewBox="0 0 32 32">
<path fill="#00f" style="fill: var(--color4, #00f)" d="M0.578 6.91h30.844v9.208h-30.844z"></path>
<path fill="#ff0" style="fill: var(--color5, #ff0)" d="M0.578 16.053h30.844v9.208h-30.844z"></path>
</symbol>



<symbol id="icon-it" viewBox="0 0 32 32">
<path d="M31.142 2.349l-27.413 0.382-0.472 0.382-0.126 0.516v19.232l-2.273 3.973-0.472 0.64v1.795l0.597 0.382 29.679-0.382 0.481-0.134 0.232-1.28v-0.515l-0.357-3.581 0.597-20.254v-0.774l-0.472-0.382zM4.156 4.001l25.63 0.248 0.312 0.258v0.334l-0.312 16.273-0.079 0.678-0.312 0.076-24.285-0.076-0.954-0.172-0.152-0.258 0.152-17.362zM30.18 22.298v0.592l-25.151-0.505 25.15-0.086zM7.070 23.148l-0.437 0.62 17.054 0.019 0.009-0.133 0.089 0.133h5.448l0.071 0.038-5.492 0.010 0.116 0.162v0.497l4.699 0.009 0.053 0.038-4.752 0.010v1.070h6.169l0.081 0.038-6.25 0.009v1.118l-0.392-0.076 0.053-1.042-18.285 0.019-0.766 1.099 0.686-1.099h-2.112l-0.856 1.099 0.686-1.099h-0.606l0.66-0.076 1.086-1.756h-0.401l0.446-0.057 0.347-0.564h0.553l-0.419 0.535h1.81l0.339-0.535 0.312-0.086zM7.819 23.157l17.287 0.019 0.053 0.038-17.795 0.029 0.455-0.086zM23.688 23.835l-17.108 0.019-1.221 1.748 18.232 0.019 0.062-1.070-12.766 0.019 0.455-0.086 12.312 0.010 0.035-0.659zM4.548 23.854l-1.364 1.748h2.095l1.096-1.748h-1.829zM18.634 26.28v0.258l-5.617 0.086-0.874 0.763 0.472-1.021 6.018-0.086zM30.098 27.722l0.081 0.421-0.232 0.258-29.027-0.172v0.678l-0.321-1.020 29.501-0.163z"></path>
</symbol>

<symbol id="icon-physics" viewBox="0 0 32 32">
<path d="M23.458 2.92l-6.299 3.28-1.691-2.482-1.805 2.819-6.533-2.654c-1.162 0.904-2.159 1.945-2.989 3.113l-0.030 0.045 0.738 4.694-3.366 3.237c-0.004 0.139-0.009 0.276-0.009 0.416 0 1.371 0.192 2.699 0.547 3.957l2.725 1.762 2.62 5.96c0.57 0.422 1.166 0.808 1.796 1.145l6.758-2.021 4.964 2.889c2.884-1.051 5.27-2.894 6.963-5.266l0.030-0.044-3.47 0.244-0.547 1.648h-1.179l-0.538 1.987-6.1-3.54-6.368 1.917-2.629-6.012-4.634-2.994 4.72-4.555-1.18-7.54 8.269 3.358 1.466-2.274 1.354 2.004 7.877-4.093c-0.422-0.332-0.898-0.661-1.393-0.962l-0.065-0.036zM25.131 4.43l-8.138 4.234-1.241-1.822-1.327 2.074-7.557-3.071 1.076 6.889-4.312 4.147 4.234 2.741 2.403 5.483 5.813-1.744 5.562 3.237 0.503-1.822h1.076l0.503-1.501 3.48-0.244-0.824-5.318 3.072-3.15-4.651-2.907 0.329-7.227zM25.886 4.743l-0.303 6.542 4.91 3.071c-0.068-0.979-0.223-1.889-0.457-2.765l0.023 0.101-2.281-1.423 0.147-3.175c-0.616-0.881-1.287-1.65-2.030-2.343l-0.009-0.008zM23.458 6.59l-0.269 5.813 3.749 2.342-2.473 2.542 0.667 4.277-2.811 0.2-0.398 1.206h-0.868l-0.399 1.466-4.485-2.603-4.677 1.406-1.935-4.416-3.41-2.204 3.47-3.349-0.867-5.544 6.082 2.472 1.076-1.674 0.998 1.474 6.551-3.41zM22.624 7.666l-5.76 3.002-0.877-1.292-0.946 1.466-5.345-2.169 0.763 4.876-3.054 2.933 2.993 1.943 1.701 3.879 4.113-1.232 3.939 2.29 0.356-1.292h0.763l0.356-1.059 2.464-0.173-0.581-3.766 2.169-2.229-3.288-2.057 0.234-5.118zM21.435 9.193l-0.19 4.122 2.654 1.657-1.752 1.796 0.477 3.028-1.995 0.148-0.277 0.85h-0.616l-0.277 1.041-3.176-1.848-3.314 0.998-1.371-3.124-2.411-1.562 2.456-2.369-0.616-3.931 4.312 1.752 0.754-1.189 0.712 1.051 4.633-2.421zM16.655 11.459c-0.236 0.076-0.434 0.257-0.53 0.485-1.865 0.366-3.253 1.988-3.253 3.935 0 0.002 0 0.003 0 0.005v-0c0 0.001 0 0.001 0 0.002 0 2.212 1.794 4.006 4.006 4.006 0.001 0 0.001 0 0.002 0h-0c0.001 0 0.002 0 0.003 0 2.212 0 4.006-1.794 4.006-4.006 0-0.001 0-0.001 0-0.002v0c0-1.934-1.371-3.55-3.192-3.931-0.072-0.179-0.2-0.322-0.361-0.414l-0.004-0.002-0.442 1.154-0.078-0.009-0.156-1.223zM16.517 11.693l0.069 1.354c0.098 0.040 0.2 0.069 0.312 0.069l0.504-1.301 0.321 0.703c1.521 0.391 2.627 1.749 2.629 3.366v0c0 0.001 0 0.002 0 0.003 0 1.918-1.553 3.473-3.469 3.477h-0c-1.917-0.003-3.47-1.559-3.47-3.477 0-0.001 0-0.002 0-0.003v0c0-0.002 0-0.004 0-0.006 0-1.636 1.133-3.007 2.658-3.372l0.024-0.005c0.008 0.030 0.023 0.057 0.034 0.086l0.018-0.087 0.373-0.807zM30.511 14.643l-3.192 3.288 0.85 5.405c0.789-1.191 1.425-2.571 1.833-4.045l0.024-0.102-0.104-0.686 0.347-0.347c0.172-0.895 0.261-1.822 0.261-2.768 0-0.251-0.005-0.498-0.018-0.747zM16.889 15.033c-0.469 0-0.859 0.382-0.859 0.85s0.39 0.85 0.859 0.85 0.842-0.381 0.842-0.85c0-0.469-0.373-0.85-0.842-0.85z"></path>
</symbol>

<!-- IT -->

<symbol id="icon-processing" viewBox="0 0 32 32">
<path d="M15.071 1.953c-7.755 0-14.047 6.293-14.047 14.047s6.293 14.048 14.047 14.048c0.312 0 0.622-0.028 0.929-0.048 0.307 0.020 0.617 0.048 0.929 0.048 7.755 0 14.047-6.293 14.047-14.048s-6.293-14.048-14.047-14.048c-0.312 0-0.622 0.028-0.929 0.048-0.307-0.020-0.617-0.048-0.929-0.048zM16 5.381c3.446 0.303 6.392 2.207 8.117 4.955l0.026 0.044h1.857c1.001 1.591 1.595 3.527 1.595 5.601 0 0.006 0 0.013-0 0.019v-0.001c0 2.061-0.584 3.987-1.595 5.619h-1.858c-1.751 2.792-4.696 4.697-8.102 4.997l-0.040 0.003c-3.447-0.304-6.392-2.208-8.117-4.956l-0.026-0.044h-1.856c-1.002-1.592-1.596-3.528-1.596-5.602 0-0.006 0-0.012 0-0.018v0.001c0-2.061 0.584-3.987 1.595-5.619h1.858c1.751-2.792 4.696-4.697 8.102-4.997l0.040-0.003z"></path>
<path d="M7.924 15.487c0.28-0.008 0.509-0.095 0.685-0.26s0.294-0.391 0.352-0.679c0.058-0.288 0.089-0.78 0.093-1.477s0.015-1.156 0.033-1.377c0.033-0.35 0.094-0.632 0.183-0.845s0.199-0.383 0.33-0.51c0.131-0.127 0.299-0.224 0.503-0.291 0.138-0.042 0.364-0.063 0.677-0.063h0.306v0.983h-0.17c-0.379 0-0.63 0.078-0.754 0.235s-0.186 0.506-0.186 1.048c0 1.093-0.020 1.783-0.060 2.071-0.065 0.447-0.178 0.791-0.336 1.033s-0.407 0.457-0.746 0.645c0.4 0.192 0.691 0.485 0.871 0.879s0.27 1.040 0.27 1.937c0 0.814 0.007 1.298 0.022 1.452 0.029 0.284 0.103 0.482 0.221 0.595s0.35 0.169 0.696 0.169h0.169v0.982h-0.306c-0.357 0-0.615-0.033-0.775-0.1-0.233-0.095-0.429-0.256-0.577-0.464l-0.002-0.003c-0.153-0.215-0.252-0.487-0.298-0.817s-0.070-0.87-0.074-1.621c-0.004-0.751-0.034-1.27-0.093-1.558s-0.176-0.515-0.352-0.682c-0.176-0.167-0.405-0.254-0.685-0.263zM12.365 19.317v-1.283h1.12v1.283zM15.467 19.317v-1.283h1.12v1.283zM18.57 19.317v-1.283h1.12v1.283zM24.075 15.487v1.020c-0.28 0.008-0.509 0.096-0.685 0.263s-0.294 0.393-0.352 0.679c-0.058 0.285-0.089 0.777-0.093 1.474s-0.015 1.156-0.033 1.377c-0.033 0.355-0.094 0.637-0.183 0.848s-0.199 0.38-0.331 0.507-0.299 0.224-0.503 0.291c-0.138 0.046-0.364 0.069-0.677 0.069h-0.306v-0.982h0.169c0.379 0 0.63-0.078 0.754-0.235s0.186-0.508 0.186-1.054c0-1.043 0.017-1.705 0.049-1.984 0.058-0.463 0.175-0.833 0.35-1.111s0.422-0.493 0.743-0.648c-0.419-0.229-0.714-0.533-0.885-0.911s-0.257-1.015-0.257-1.912c0-0.814-0.009-1.3-0.027-1.458-0.025-0.28-0.098-0.475-0.216-0.585s-0.35-0.166-0.696-0.166h-0.169v-0.983h0.306c0.357 0 0.615 0.033 0.776 0.1 0.234 0.092 0.43 0.252 0.577 0.46l0.002 0.003c0.153 0.217 0.252 0.49 0.298 0.82s0.070 0.87 0.074 1.621c0.004 0.751 0.035 1.269 0.093 1.555s0.176 0.512 0.352 0.679c0.177 0.167 0.405 0.254 0.685 0.263z"></path>
</symbol>

<symbol id="icon-output" viewBox="0 0 32 32">
<path d="M14.906 1.96c5.757 0 10.686 3.466 12.853 8.424h-3.776c-1.883-3.035-5.244-5.059-9.077-5.059-5.895 0-10.675 4.781-10.675 10.675s4.78 10.675 10.674 10.675c3.834 0 7.195-2.024 9.078-5.059h3.776c-2.167 4.958-7.096 8.424-12.853 8.424-7.755 0-14.040-6.285-14.040-14.040s6.285-14.040 14.040-14.040z"></path>
<path d="M21.848 10.312c-0.142 0.015-0.271 0.057-0.386 0.122l0.005-0.003c-0.514 0.296-0.855 1.396-1.048 2.809h-6.595c-0.606 0-1.096 0.9-1.096 2.024v1.477c0 1.124 0.489 2.024 1.096 2.024h6.594c0.193 1.413 0.533 2.513 1.048 2.81 1.643 0.949 9.666-3.674 9.666-5.572 0-1.779-7.050-5.957-9.285-5.691z"></path>
</symbol>

<symbol id="icon-input" viewBox="0 0 32 32">
<path d="M17.095 1.96c-5.758 0-10.687 3.466-12.853 8.424h3.776c1.882-3.035 5.243-5.059 9.077-5.059 5.894 0 10.674 4.781 10.674 10.675s-4.78 10.675-10.674 10.675c-3.834 0-7.195-2.024-9.077-5.059h-3.778c2.167 4.958 7.096 8.424 12.853 8.424 7.755 0 14.040-6.285 14.040-14.040s-6.286-14.040-14.040-14.040z"></path>
<path d="M9.985 10.312c-0.142 0.015-0.271 0.057-0.386 0.122l0.005-0.003c-0.513 0.296-0.855 1.396-1.047 2.809h-6.596c-0.606 0-1.095 0.9-1.095 2.024v1.477c0 1.124 0.489 2.024 1.095 2.024h6.596c0.192 1.413 0.533 2.513 1.048 2.81 1.643 0.949 9.666-3.674 9.666-5.572 0-1.779-7.050-5.957-9.285-5.691z"></path>
</symbol>

<symbol id="icon-find" viewBox="0 0 32 32">
<path d="M15.989 0.459c-5.402 0-9.771 4.369-9.771 9.771 0 4.993 3.731 9.092 8.563 9.687-0.445 0.624-0.771 2.633-0.771 5.063v1.291c0 2.929 0.477 5.271 1.062 5.271h1.833c0.586 0 1.063-2.343 1.063-5.271v-1.291c0-2.432-0.325-4.441-0.771-5.063 4.831-0.595 8.583-4.695 8.583-9.687 0-5.402-4.39-9.771-9.792-9.771zM15.989 1.187c4.94 0 8.959 4.019 8.959 8.959s-4.019 8.958-8.959 8.958c-4.939 0-8.937-4.019-8.937-8.958s3.998-8.959 8.937-8.959zM15.989 1.854c-4.579 0-8.271 3.713-8.271 8.292s3.692 8.313 8.271 8.313c4.58 0 8.292-3.733 8.292-8.313 0-4.579-3.713-8.291-8.292-8.291zM15.906 2.354c4.391 0 7.938 3.568 7.938 7.959s-3.547 7.958-7.938 7.958c-4.391 0-7.958-3.567-7.958-7.958s3.567-7.959 7.958-7.959z"></path>
</symbol>

<symbol id="icon-link" viewBox="0 0 32 32">
<path d="M15.751 0.668c-3.598 0.075-6.459 3.116-6.459 6.729v6.333c0 0.791 0.145 1.542 0.396 2.25 0.004 0.013-0.005 0.030 0 0.041-0.025 0.083-0.053 0.158-0.063 0.187-0.001 0.007-0.028 0.049-0.063 0.167-0.014 0.049-0.027 0.112-0.041 0.167-0.039 0.147-0.079 0.269-0.104 0.397-0.033 0.161-0.061 0.336-0.083 0.52-0.003 0.022-0.013 0.084-0.021 0.167-0.011 0.117-0.007 0.135 0 0.063-0.013 0.147-0.017 0.278-0.021 0.417-0.001 0.065 0 0.125 0 0.167v6.333c0 0.212-0.003 0.427 0.021 0.667 0.053 0.489 0.148 0.934 0.285 1.36l-0.013-0.048c0.060 0.196 0.137 0.369 0.208 0.542 0.003 0.020 0.014 0.016 0.021 0.041 0.003 0.007-0.002 0.015 0 0.020 0.005 0.013-0.005 0.008 0 0.021 0.083 0.198 0.175 0.383 0.271 0.563 0.2 0.379 0.411 0.74 0.687 1.083 0.141 0.174 0.297 0.333 0.438 0.479 0.147 0.151 0.285 0.291 0.459 0.438 0.177 0.151 0.361 0.285 0.52 0.395 0.319 0.228 0.681 0.437 1.064 0.609l0.040 0.016c0.397 0.173 0.837 0.304 1.271 0.396s0.879 0.145 1.333 0.145h0.333c3.598-0.075 6.479-3.116 6.479-6.729v-6.333c0-0.789-0.145-1.543-0.396-2.25 0.013-0.039-0.005-0.033 0-0.063 0.008-0.017 0.025-0.015 0.042-0.063 0.060-0.176 0.075-0.333 0.104-0.438 0.031-0.116 0.070-0.245 0.104-0.417 0.013-0.067 0.017-0.123 0.021-0.145 0.031-0.179 0.067-0.357 0.083-0.521 0.020-0.2 0.041-0.403 0.041-0.645v-6.334c0-0.244-0.020-0.477-0.041-0.687-0.067-0.666-0.229-1.312-0.48-1.917-0.091-0.222-0.2-0.413-0.291-0.583-1.113-2.093-3.277-3.542-5.791-3.542h-0.354zM15.771 1.668h0.334c2.133 0 3.967 1.212 4.917 3 0.097 0.182 0.188 0.35 0.25 0.5 0.211 0.509 0.338 1.049 0.396 1.625 0.020 0.204 0.041 0.425 0.041 0.605v6.333c0 0.175-0.021 0.357-0.041 0.563-0.018 0.176-0.040 0.325-0.068 0.473l0.006-0.035c-0.011 0.061-0.017 0.088-0.021 0.104-0.020 0.098-0.044 0.229-0.083 0.375-0.043 0.159-0.077 0.273-0.105 0.354 0.003-0.007-0.015 0.033-0.041 0.104-0.005 0.015 0.004 0.008 0 0.021-0.562 1.5-1.686 2.678-3.109 3.299l-0.037 0.014v0.020h-0.021c-0.097 0.041-0.235 0.091-0.376 0.135l-0.041 0.011h-0.021c-0.023 0.008-0.010 0.015-0.021 0.020h-0.021c-0.007 0.007-0.065 0.031-0.041 0.021-0.466 0.153-1.003 0.244-1.56 0.25l-0.003 0h-0.209c-0.647 0-1.253-0.181-1.833-0.396v-0.771c0-0.811 0.374-1.416 0.938-1.729 0.039-0.022 0.081-0.045 0.125-0.063 0.193 0.077 0.387 0.153 0.604 0.167 0.027 0.007 0.078 0 0.167 0h0.042c0.294-0.021 0.612-0.025 0.979-0.125 0.043 0.017 0.080 0.023 0.125 0.041l0.229 0.104 0.208-0.125c0.876-0.489 1.479-1.455 1.479-2.604v-1.75h-0.021v-4.813c0-0.837-0.316-1.595-0.833-2.125s-1.232-0.813-2-0.813h-0.354c-1.49 0.076-2.688 1.323-2.688 2.937v4.605c-1.12 0.553-1.985 1.441-2.645 2.5-0.037-0.26-0.125-0.502-0.125-0.771v-6.333c0-3.083 2.434-5.665 5.479-5.729zM15.771 5.459h0.334c0.526 0 0.966 0.188 1.291 0.521s0.542 0.828 0.542 1.417v4.458c-0.454-0.131-0.981-0.22-1.524-0.249l-0.018-0.001v-0.063h-0.5c-0.213 0-0.409 0.024-0.583 0.041h-0.125c-0.069 0.013-0.085 0.023-0.063 0.021-0.401 0.046-0.761 0.119-1.11 0.22l0.047-0.012v-4.417c0-1.137 0.737-1.879 1.709-1.938zM15.896 12.543h0.209c0.653 0 1.248 0.178 1.833 0.396v0.771c0 0.853-0.46 1.498-1.083 1.792-0.225-0.088-0.459-0.171-0.75-0.167h-0.209c-0.182 0-0.381 0.021-0.583 0.063-0.085 0.017-0.153 0.039-0.229 0.063-0.019-0.010-0.044-0.010-0.063-0.021h-0.5c-0.876 0.49-1.479 1.455-1.479 2.604v1.417l0.021 0.041v5.104c-0.001 0.027-0.001 0.059-0.001 0.091 0 1.163 0.695 2.164 1.692 2.61l0.018 0.007v0.020h0.021c0.185 0.077 0.366 0.135 0.521 0.167 0.196 0.039 0.399 0.042 0.583 0.042h0.355c1.487-0.079 2.687-1.325 2.687-2.937v-4.625c1.114-0.557 1.97-1.443 2.625-2.5 0.039 0.267 0.146 0.515 0.146 0.792v6.333c0 3.076-2.444 5.653-5.479 5.729h-0.333c-0.020 0-0.044 0-0.068 0-0.374 0-0.739-0.038-1.091-0.11l0.035 0.006c-0.415-0.093-0.776-0.215-1.12-0.369l0.037 0.015c-0.328-0.143-0.611-0.329-0.917-0.542-0.165-0.115-0.335-0.207-0.459-0.312-0.136-0.116-0.26-0.256-0.395-0.396-0.373-0.378-0.692-0.81-0.944-1.283l-0.014-0.030c-0.069-0.123-0.146-0.281-0.215-0.442l-0.014-0.037v-0.020c-0.058-0.131-0.121-0.304-0.176-0.481l-0.011-0.040c-0.104-0.318-0.185-0.693-0.227-1.079l-0.002-0.025c-0.014-0.151-0.021-0.327-0.021-0.505 0-0.028 0-0.055 0.001-0.083l-0 0.004v-6.333c0-0.058-0.001-0.091 0-0.125 0.003-0.129 0.011-0.259 0.021-0.375 0.011-0.113 0.008-0.137 0-0.063 0.001-0.013 0.012-0.050 0.021-0.125 0.017-0.139 0.031-0.283 0.062-0.437 0.027-0.13 0.055-0.249 0.083-0.354 0.011-0.041 0.028-0.079 0.042-0.125-0.001 0.007 0.027-0.059 0.063-0.167 0.032-0.099 0.033-0.163 0.041-0.187 0.547-1.508 1.692-2.725 3.146-3.333 0.087-0.038 0.194-0.062 0.313-0.105 0.123-0.043 0.158-0.073 0.125-0.063l0.063-0.021c0.289-0.092 0.626-0.143 0.979-0.187 0.047-0.007 0.039-0.015 0.062-0.021h0.063c0.188-0.019 0.365-0.041 0.521-0.041zM17.938 20.168v4.437c0 1.133-0.74 1.876-1.709 1.937h-0.333c-0.141-0.003-0.278-0.017-0.41-0.044l0.015 0.002v0.021c-0.128-0.027-0.239-0.063-0.345-0.109l0.012 0.005c-0.546-0.229-0.961-0.72-1.083-1.396-0.025-0.128-0.021-0.258-0.021-0.417v-4.417c0.58 0.176 1.196 0.271 1.833 0.271h0.209c0.648 0 1.259-0.117 1.833-0.292z"></path>
</symbol>



<symbol id="icon-avaAlice" viewBox="0 0 32 32">
<path fill="#f2c189" style="fill: var(--color1, #f2c189)" d="M16.234 22.957c-0.374 0-0.679 0.192-0.679 0.418v1.697c-3.253 0.374-4.736 1.873-5.742 4.045h14.537l-0.209-0.548c-0.049-0.155-0.102-0.284-0.164-0.409l0.008 0.017c-0.84-2.163-3.743-2.976-6.055-3.158v-1.645c0-0.226-0.305-0.418-0.679-0.418h-1.018z"></path>
<path fill="#f2c189" style="fill: var(--color1, #f2c189); stroke: var(--color2, #000)" stroke="#000" stroke-linejoin="miter" stroke-linecap="butt" stroke-miterlimit="4" stroke-width="0.4836" d="M22.938 15.811c0 4.513-2.773 8.172-6.193 8.172s-6.193-3.659-6.193-8.172 2.773-8.172 6.193-8.172c3.42 0 6.193 3.659 6.193 8.172z"></path>
<path fill="#000" style="fill: var(--color2, #000)" d="M13.95 19.822c0.015 0.684 1.262 1.234 2.795 1.234s2.78-0.551 2.795-1.234c-0.629 0.386-1.645 0.637-2.795 0.637s-2.166-0.251-2.795-0.637z"></path>
<path fill="#000" style="fill: var(--color2, #000)" d="M15.403 14.407c0 0.345-0.266 0.624-0.594 0.624s-0.595-0.28-0.595-0.624c0-0.345 0.266-0.624 0.595-0.624s0.595 0.279 0.595 0.624z"></path>
<path fill="#fff" style="fill: var(--color3, #fff)" d="M18.679 12.656c-0.821 0-1.484 0.972-1.484 2.17 0 0.502 0.118 0.963 0.315 1.331 0.338-0.149 0.738-0.238 1.17-0.238 0.432 0 0.835 0.089 1.174 0.238 0.196-0.368 0.315-0.829 0.315-1.331 0-1.198-0.667-2.17-1.488-2.17z"></path>
<path fill="#276f20" style="fill: var(--color4, #276f20)" d="M19.746 14.432c0 0.6-0.463 1.087-1.035 1.087s-1.035-0.487-1.035-1.087c0-0.6 0.463-1.087 1.035-1.087s1.035 0.486 1.035 1.087z"></path>
<path fill="#000" style="fill: var(--color2, #000)" d="M19.176 14.432c0 0.27-0.208 0.489-0.465 0.489s-0.465-0.219-0.465-0.489c0-0.27 0.208-0.489 0.465-0.489s0.465 0.219 0.465 0.489z"></path>
<path fill="#fff" style="fill: var(--color3, #fff)" d="M14.807 12.656c-0.821 0-1.484 0.972-1.484 2.17 0 0.502 0.118 0.963 0.315 1.331 0.338-0.149 0.738-0.238 1.17-0.238 0.432 0 0.835 0.089 1.174 0.238 0.196-0.368 0.315-0.829 0.315-1.331 0-1.198-0.667-2.17-1.488-2.17z"></path>
<path fill="#276f20" style="fill: var(--color4, #276f20)" d="M15.85 14.466c0 0.6-0.463 1.087-1.035 1.087s-1.035-0.487-1.035-1.087c0-0.6 0.463-1.087 1.035-1.087s1.035 0.486 1.035 1.087z"></path>
<path fill="#000" style="fill: var(--color2, #000)" d="M15.28 14.466c0 0.27-0.208 0.489-0.465 0.489s-0.465-0.219-0.465-0.489c0-0.27 0.208-0.489 0.465-0.489s0.465 0.219 0.465 0.489z"></path>
<path fill="#fff" style="fill: var(--color3, #fff)" d="M19.147 13.816c-0.022 0.015-0.065 0.044-0.065 0.066 0 0.044 0.062 0.065 0.13 0.065s0.13-0.021 0.13-0.065c0-0.044-0.063-0.066-0.13-0.066-0.034 0-0.043-0.014-0.066 0zM15.464 13.882c-0.038 0-0.066 0.054-0.066 0.097 0 0.044 0.028 0.066 0.066 0.066s0.066-0.021 0.066-0.066c0-0.043-0.028-0.097-0.066-0.097zM18.854 14.24c-0.050 0-0.066 0.048-0.066 0.098s0.016 0.098 0.066 0.098c0.053-0.003 0.095-0.045 0.098-0.098v-0c-0.004-0.052-0.046-0.094-0.098-0.097h-0zM15.073 14.306c-0.044 0-0.098 0.021-0.098 0.066 0 0.043 0.054 0.097 0.098 0.097s0.066-0.054 0.066-0.097c0-0.044-0.022-0.066-0.066-0.066z"></path>
<path fill="#000" style="fill: var(--color2, #000)" d="M16.743 15.526c-0.739 0-1.335 0.786-1.335 1.755 0 0.087 0.003 0.174 0.012 0.258 0.096-0.846 0.651-1.496 1.323-1.496s1.227 0.651 1.323 1.496c0.009-0.084 0.016-0.171 0.016-0.258 0-0.969-0.6-1.755-1.339-1.755z"></path>
<path fill="#000" style="fill: var(--color2, #000)" d="M18.679 11.137c-0.739 0-1.335 0.298-1.335 0.666 0 0.033 0.003 0.066 0.012 0.098 0.096-0.321 0.651-0.568 1.323-0.568s1.227 0.247 1.323 0.568c0.009-0.032 0.016-0.065 0.016-0.098 0-0.368-0.6-0.666-1.339-0.666zM14.807 11.137c-0.739 0-1.335 0.298-1.335 0.666 0 0.033 0.003 0.066 0.012 0.098 0.096-0.321 0.651-0.568 1.323-0.568s1.228 0.247 1.323 0.568c0.009-0.032 0.016-0.065 0.016-0.098 0-0.368-0.6-0.666-1.339-0.666z"></path>
<path fill="#d47912" style="fill: var(--color5, #d47912); stroke: var(--color2, #000)" stroke="#000" stroke-linejoin="miter" stroke-linecap="butt" stroke-miterlimit="4" stroke-width="0.5021" d="M17.513 2.873c-1.763 0-3.237 1.111-3.598 2.594-0.852-0.83-2.016-1.343-3.299-1.343-2.611 0-4.727 2.12-4.727 4.731 0 0.591 0.108 1.156 0.307 1.678-0.221-0.039-0.475-0.061-0.734-0.061-0.006 0-0.012 0-0.018 0h0.001c-2.386 0-4.32 1.875-4.32 4.191 0 1.144 0.473 2.18 1.238 2.936-1.029 0.309-1.771 1.161-1.771 2.17 0 1.269 1.172 2.299 2.618 2.299 0.551 0 1.063-0.148 1.484-0.403-0.010 0.091-0.016 0.181-0.016 0.274 0 1.341 1.087 2.428 2.428 2.428 1.194 0 2.181-0.861 2.384-1.997 0.772-0.342 1.334-1.071 1.432-1.944 0.247-0.037 0.462-0.087 0.671-0.15l-0.033 0.009c-0.638-1.285-1.008-2.822-1.008-4.473 0-1.084 0.161-2.119 0.452-3.066 2.909 0.514 4.24-1.761 4.34-3.892v-0.016c0.608 0.397 1.36 0.633 2.17 0.633 0.327 0 0.642-0.041 0.944-0.113 0.556 1.19 1.866 2.025 3.396 2.025-0.107 3.519 1.018 1.817 1.085 4.429 0 1.81-0.447 3.482-1.202 4.836 0.282 0.16 0.608 0.298 0.951 0.399l0.033 0.008c-0 0.019 0 0.038 0 0.057 0 1.496 1.382 2.706 3.090 2.706 1.298 0 2.409-0.701 2.868-1.694 1.572-0.376 2.731-1.66 2.731-3.186 0-0.815-0.333-1.558-0.879-2.134 0.071-0.256 0.113-0.526 0.113-0.803 0-1.179-0.692-2.212-1.73-2.795 0.047-0.211 0.069-0.426 0.069-0.649 0-1.822-1.645-3.299-3.679-3.299h-0.008c0.154-0.364 0.242-0.757 0.242-1.17 0-1.822-1.649-3.299-3.683-3.299-0.326 0-0.643 0.038-0.944 0.109-0.556-1.19-1.866-2.025-3.396-2.025z"></path>
<path fill="#d43737" style="fill: var(--color6, #d43737)" d="M20.174 25.385c-0.086 1.203-1.495 2.166-3.21 2.166-1.69 0-3.090-0.934-3.21-2.114-2.060 0.653-3.14 1.963-3.941 3.707h14.537l-0.209-0.575c-0.049-0.155-0.102-0.284-0.164-0.409l0.008 0.017c-0.58-1.495-2.135-2.353-3.811-2.793z"></path>
</symbol>

</defs>
</svg>




