<?xml version="1.0" encoding="UTF-8" standalone="no"?>
<!-- Created with Inkscape (http://www.inkscape.org/) -->

<svg
   xmlns:dc="http://purl.org/dc/elements/1.1/"
   xmlns:cc="http://creativecommons.org/ns#"
   xmlns:rdf="http://www.w3.org/1999/02/22-rdf-syntax-ns#"
   xmlns:svg="http://www.w3.org/2000/svg"
   xmlns="http://www.w3.org/2000/svg"
   xmlns:sodipodi="http://sodipodi.sourceforge.net/DTD/sodipodi-0.dtd"
   xmlns:inkscape="http://www.inkscape.org/namespaces/inkscape"
   width="48px"
   height="48px"
   id="svg3012"
   version="1.1"
   inkscape:version="0.48.5 r10040"
   sodipodi:docname="New document 3">
  <defs
     id="defs3014" />
  <sodipodi:namedview
     id="base"
     pagecolor="#ffffff"
     bordercolor="#666666"
     borderopacity="1.0"
     inkscape:pageopacity="0.0"
     inkscape:pageshadow="2"
     inkscape:zoom="9.3780178"
     inkscape:cx="24"
     inkscape:cy="24"
     inkscape:current-layer="layer1"
     showgrid="true"
     inkscape:grid-bbox="true"
     inkscape:document-units="px"
     inkscape:window-width="1366"
     inkscape:window-height="705"
     inkscape:window-x="-8"
     inkscape:window-y="-8"
     inkscape:window-maximized="1" />
  <metadata
     id="metadata3017">
    <rdf:RDF>
      <cc:Work
         rdf:about="">
        <dc:format>image/svg+xml</dc:format>
        <dc:type
           rdf:resource="http://purl.org/dc/dcmitype/StillImage" />
        <dc:title></dc:title>
      </cc:Work>
    </rdf:RDF>
  </metadata>
  <g
     id="layer1"
     inkscape:label="Layer 1"
     inkscape:groupmode="layer">
    <path
       inkscape:connector-curvature="0"
       id="path3000"
       d="m 23.73465,45.043278 c -0.466562,-0.165847 -1.157729,-0.390073 -3.077833,-0.998497 -0.852775,-0.270218 -0.969535,-0.357406 -2.37394,-1.772678 -1.58337,-1.59562 -1.722765,-1.825201 -2.248505,-3.703249 -0.150964,-0.53927 -0.451266,-1.568787 -0.667339,-2.287814 -0.216072,-0.719027 -0.541646,-1.836788 -0.7235,-2.483913 -0.537932,-1.914236 -0.822662,-2.508699 -1.305946,-2.726575 -0.367385,-0.165626 -0.487393,-0.164742 -0.971296,0.0071 -0.524149,0.186185 -0.579894,0.181152 -1.100417,-0.09934 -0.877818,-0.473024 -1.132938,-0.847671 -1.196352,-1.756858 -0.03009,-0.431416 -0.1475267,-1.284444 -0.2609717,-1.895618 -0.225744,-1.216177 -0.193561,-2.118245 0.122794,-3.441907 0.2512597,-1.051291 0.4369747,-1.264447 1.1016747,-1.264447 0.465224,0 0.557294,-0.05068 0.771803,-0.42488 0.150607,-0.262721 0.213171,-0.524669 0.163925,-0.686344 -0.169061,-0.555038 -0.56513,-7.008669 -0.465345,-7.582471 0.09963,-0.572949 0.54928,-2.639877 0.741942,-3.410557 0.199398,-0.7976266 0.381952,-1.0745031 1.796208,-2.7242709 1.085025,-1.2657117 2.45796,-2.4827244 3.765062,-3.3374727 0.653424,-0.4272892 0.770963,-0.4559353 2.519155,-0.6139344 1.008565,-0.091152 2.051847,-0.2255236 2.318408,-0.2986029 0.714312,-0.195833 3.170606,-0.1694198 3.942656,0.042397 0.363861,0.099827 1.342559,0.2234894 2.174885,0.2748044 1.709541,0.105399 1.80378,0.1426145 3.514978,1.388068 0.723115,0.5263019 1.560769,1.325055 2.498506,2.382475 1.554358,1.7527416 1.862258,2.203441 1.862932,2.7269245 2.42e-4,0.193489 0.04895,0.384139 0.108229,0.423668 0.05928,0.03953 0.138037,0.263611 0.175021,0.497961 0.117885,0.746985 0.291731,1.580276 0.495847,2.376735 0.169354,0.660823 0.180791,1.025708 0.07818,2.494399 -0.06611,0.94619 -0.17402,1.873097 -0.239806,2.059792 -0.09674,0.274526 -0.172403,2.296411 -0.139053,3.715626 0.01024,0.435778 0.332836,0.695683 0.863492,0.695683 0.52725,0 0.920899,0.318715 1.005072,0.813751 0.02782,0.16361 0.117344,0.65045 0.198944,1.081867 0.265156,1.401866 0.273345,1.649037 0.08165,2.464394 -0.103951,0.442152 -0.254609,1.296723 -0.334795,1.899047 -0.171053,1.284881 -0.511644,1.820818 -1.386148,2.181168 -0.505314,0.208221 -0.562111,0.207949 -0.977404,-0.0047 -0.41981,-0.214945 -0.464274,-0.214385 -0.92892,0.01169 -0.549835,0.267521 -0.644683,0.457125 -1.202363,2.403545 -0.884539,3.087229 -1.825179,6.229473 -1.926873,6.43679 -0.06124,0.124854 -0.111352,0.309402 -0.111352,0.410107 0,0.183702 -2.576244,2.933894 -3.085748,3.294098 -0.327317,0.231403 -4.624283,1.635874 -4.939815,1.614586 -0.08414,-0.0057 -0.371084,-0.08785 -0.637644,-0.182602 z m 6.753998,-18.060866 c 0.550266,-0.54842 1.191314,-1.130966 1.424554,-1.294545 0.579581,-0.406476 1.800337,-1.803577 2.338362,-2.67615 0.914565,-1.483248 0.983158,-1.87325 0.988707,-5.621487 l 0.0049,-3.333672 -0.389166,-1.192405 C 33.476055,8.6358818 32.046351,6.9627743 29.118339,6.1496224 28.473052,5.9704172 26.74096,6.0361794 26.036758,6.2666212 24.617877,6.7309325 24.628003,6.7310697 22.91088,6.2240022 22.150313,5.9994068 20.584562,5.946672 20.135726,6.1305362 c -0.153075,0.062707 -0.496413,0.1852436 -0.762973,0.2723048 -2.118658,0.6919749 -3.715079,2.4624661 -4.42576,4.908338 -0.244554,0.841655 -0.607234,1.925433 -0.809352,2.418547 -0.66443,1.621034 -0.674368,3.173835 -0.03598,5.621487 0.121898,0.467367 0.335893,1.376495 0.475546,2.020285 0.290314,1.338339 0.915137,2.573842 1.732863,3.426505 0.522271,0.544586 1.798913,1.482019 2.018283,1.482019 0.06507,0 0.445765,0.210475 0.846001,0.467722 0.633554,0.40721 1.888076,0.860439 2.949832,1.065703 0.185021,0.03577 0.727211,-0.08524 1.243001,-0.277428 1.289588,-0.480504 3.107612,-0.409176 4.316277,0.169344 0.294,0.140721 0.81989,0.259862 1.169468,0.264943 0.627182,0.0091 0.647907,-0.0034 1.63571,-0.987895 z M 23.363025,21.95166 c -0.04566,-0.07971 -0.234484,-1.440543 -0.419613,-3.024067 -0.226618,-1.938418 -0.389877,-2.91557 -0.499662,-2.990642 -0.08969,-0.06133 -0.500619,-0.112406 -0.913187,-0.113507 -0.412567,-10e-4 -0.785042,-0.06297 -0.827724,-0.137478 -0.04268,-0.07451 0.697115,-1.412883 1.643988,-2.974158 2.152415,-3.5490596 2.269145,-3.718601 2.473332,-3.5923359 0.194986,0.1205757 4.480648,5.6670279 4.663187,6.0350419 0.177788,0.358433 0.04535,0.420471 -1.184839,0.555009 -0.571803,0.06254 -1.082781,0.160246 -1.135508,0.217137 -0.05273,0.05689 -0.198963,1.40461 -0.324972,2.994933 -0.126008,1.590324 -0.265643,2.955285 -0.3103,3.033248 -0.112097,0.195699 -3.052475,0.192743 -3.164702,-0.0032 z m 2.725789,-0.432277 c 0.08126,-0.105645 0.238586,-1.401368 0.366743,-3.020489 0.12344,-1.559513 0.279862,-2.895281 0.347606,-2.968373 0.06774,-0.07309 0.481999,-0.172971 0.920569,-0.22195 0.972158,-0.108568 1.15957,-0.262576 0.842768,-0.692553 -1.711218,-2.322543 -3.624755,-4.6775263 -3.800712,-4.6775263 -0.254598,0 -3.193902,4.7298513 -3.205083,5.1575353 -0.006,0.230095 0.0784,0.273566 0.598817,0.30838 0.3332,0.02229 0.652153,0.08993 0.708783,0.150316 0.05663,0.06038 0.255872,1.417685 0.442754,3.016224 0.228939,1.958264 0.392986,2.942809 0.502854,3.017939 0.285098,0.194952 2.114478,0.139061 2.274901,-0.0695 z"
       style="fill:#767676" />
  </g>
</svg>
