<?xml version="1.0" encoding="UTF-8" standalone="no"?>
<!-- Created with Inkscape (http://www.inkscape.org/) -->

<svg
   xmlns:dc="http://purl.org/dc/elements/1.1/"
   xmlns:cc="http://creativecommons.org/ns#"
   xmlns:rdf="http://www.w3.org/1999/02/22-rdf-syntax-ns#"
   xmlns:svg="http://www.w3.org/2000/svg"
   xmlns="http://www.w3.org/2000/svg"
   xmlns:sodipodi="http://sodipodi.sourceforge.net/DTD/sodipodi-0.dtd"
   xmlns:inkscape="http://www.inkscape.org/namespaces/inkscape"
   id="svg4229"
   version="1.1"
   inkscape:version="0.48.5 r10040"
   width="42"
   height="42"
   sodipodi:docname="it.png">
  <metadata
     id="metadata4235">
    <rdf:RDF>
      <cc:Work
         rdf:about="">
        <dc:format>image/svg+xml</dc:format>
        <dc:type
           rdf:resource="http://purl.org/dc/dcmitype/StillImage" />
        <dc:title></dc:title>
      </cc:Work>
    </rdf:RDF>
  </metadata>
  <defs
     id="defs4233" />
  <sodipodi:namedview
     pagecolor="#ffffff"
     bordercolor="#666666"
     borderopacity="1"
     objecttolerance="10"
     gridtolerance="10"
     guidetolerance="10"
     inkscape:pageopacity="0"
     inkscape:pageshadow="2"
     inkscape:window-width="1366"
     inkscape:window-height="705"
     id="namedview4231"
     showgrid="false"
     inkscape:zoom="3.6069128"
     inkscape:cx="40.548661"
     inkscape:cy="49.5"
     inkscape:window-x="-8"
     inkscape:window-y="-8"
     inkscape:window-maximized="1"
     inkscape:current-layer="svg4229" />
  <path
     style="fill:#000000;fill-opacity:1;stroke:none"
     d="M 40.874405,3.0830031 5.9932728,3.584353 l -1.0999083,0 -0.6201611,0.5013501 -0.1638161,0.6768228 0,25.2429741 -2.9837934,5.21404 -0.6201609,0.839762 0,0.676823 0,1.679522 0.783977,0.50135 38.953133,-0.50135 0.631862,-0.175473 0.30423,-1.679523 0,-0.676821 -0.468046,-4.700157 0.783978,-26.584086 0,-1.015234 -0.620162,-0.5013499 z M 5.4550197,5.251342 39.09583,5.5772191 l 0.409541,0.338412 0,0.4386811 L 39.09583,27.711824 38.990521,28.60172 38.580979,28.701987 6.7070434,28.60172 5.4550197,28.376112 5.2561003,28.037702 5.4550197,5.251342 z m 34.1556613,24.014667 0,0.777093 L 6.6017331,29.378812 39.610681,29.266009 z M 9.2812967,30.381512 8.70794,31.196207 l 22.384303,0.02507 0.01169,-0.175473 0.117013,0.175473 7.149403,0 0.09361,0.05012 -7.207908,0.01253 0.152113,0.213075 0,0.651754 6.166507,0.01253 0.07021,0.05013 -6.236714,0.01253 0,1.403779 8.097197,0 0.105312,0.05012 -8.202509,0.01253 0,1.466449 -0.514849,-0.100268 0.07021,-1.366179 -23.9990617,0.02506 -1.006299,1.441381 0.9009878,-1.441381 -2.7731726,0 -1.1233102,1.441381 0.9009889,-1.441381 -0.7956787,0 0.8658855,-0.100267 1.4275397,-2.30621 -0.5265515,0 0.5850573,-0.07521 0.4563453,-0.739491 0.725472,0 -0.5499544,0.70189 2.3753326,0 0.4446452,-0.70189 0.4095404,-0.112803 z m 0.9828973,0.01253 22.688532,0.02507 0.07021,0.05013 -23.3555,0.0376 0.596759,-0.112805 z M 31.092243,31.28394 8.6377328,31.309 l -1.6030571,2.293676 23.9288543,0.02507 0.0819,-1.403781 -16.756048,0.02506 0.596759,-0.112803 16.159289,0.01253 0.04681,-0.86483 z M 5.9698701,31.309 l -1.7902759,2.293676 2.7497712,0 1.4392414,-2.293676 -2.3987367,0 z m 18.4878199,3.183573 0,0.338411 -7.371726,0.112804 -1.146712,1.002701 0.62016,-1.341112 7.898278,-0.112804 z m 15.047681,1.892596 0.10531,0.551485 -0.30423,0.338413 -38.0989493,-0.225609 0,0.889897 L 0.78626031,36.598243 39.505371,36.385169 z"
     id="path4747"
     inkscape:connector-curvature="0" />
</svg>
