<?xml version="1.0" encoding="UTF-8" standalone="no"?>
<!-- Created with Inkscape (http://www.inkscape.org/) -->

<svg
   xmlns:dc="http://purl.org/dc/elements/1.1/"
   xmlns:cc="http://creativecommons.org/ns#"
   xmlns:rdf="http://www.w3.org/1999/02/22-rdf-syntax-ns#"
   xmlns:svg="http://www.w3.org/2000/svg"
   xmlns="http://www.w3.org/2000/svg"
   xmlns:sodipodi="http://sodipodi.sourceforge.net/DTD/sodipodi-0.dtd"
   xmlns:inkscape="http://www.inkscape.org/namespaces/inkscape"
   width="48"
   height="48"
   id="svg2"
   version="1.1"
   inkscape:version="0.48.5 r10040"
   sodipodi:docname="link.svg">
  <defs
     id="defs4" />
  <sodipodi:namedview
     id="base"
     pagecolor="#ffffff"
     bordercolor="#666666"
     borderopacity="1.0"
     inkscape:pageopacity="0.0"
     inkscape:pageshadow="2"
     inkscape:zoom="5.7"
     inkscape:cx="14.770315"
     inkscape:cy="20.52331"
     inkscape:document-units="px"
     inkscape:current-layer="layer1"
     showgrid="false"
     inkscape:window-width="1366"
     inkscape:window-height="705"
     inkscape:window-x="-8"
     inkscape:window-y="-8"
     inkscape:window-maximized="1" />
  <metadata
     id="metadata7">
    <rdf:RDF>
      <cc:Work
         rdf:about="">
        <dc:format>image/svg+xml</dc:format>
        <dc:type
           rdf:resource="http://purl.org/dc/dcmitype/StillImage" />
        <dc:title></dc:title>
      </cc:Work>
    </rdf:RDF>
  </metadata>
  <g
     inkscape:label="Layer 1"
     inkscape:groupmode="layer"
     id="layer1"
     transform="translate(0,-1004.3622)">
    <path
       style="font-size:medium;font-style:normal;font-variant:normal;font-weight:normal;font-stretch:normal;text-indent:0;text-align:start;text-decoration:none;line-height:normal;letter-spacing:normal;word-spacing:normal;text-transform:none;direction:ltr;block-progression:tb;writing-mode:lr-tb;text-anchor:start;baseline-shift:baseline;color:#000000;fill:#000000;fill-opacity:1;fill-rule:nonzero;stroke:none;stroke-width:1.5;marker:none;visibility:visible;display:inline;overflow:visible;enable-background:accumulate;font-family:Sans;-inkscape-font-specification:Sans"
       d="m 68.713252,1005.3638 c -5.39671,0.1132 -9.6875,4.6747 -9.6875,10.0938 l 0,9.5 c 0,1.1862 0.217416,2.3132 0.59375,3.375 0.0067,0.019 -0.0068,0.045 0,0.062 -0.03824,0.1246 -0.0795,0.2373 -0.09375,0.2812 -0.002,0.01 -0.04174,0.073 -0.09375,0.25 -0.02136,0.072 -0.04026,0.1675 -0.0625,0.25 -0.05866,0.2191 -0.117839,0.4034 -0.15625,0.5938 -0.04964,0.2424 -0.09069,0.5047 -0.125,0.7812 -0.0039,0.032 -0.01877,0.1257 -0.03125,0.25 -0.01749,0.1752 -0.0098,0.2018 0,0.094 -0.02,0.2215 -0.02571,0.4177 -0.03125,0.625 -0.0024,0.098 0,0.1869 0,0.25 -4.5e-5,0.014 0,0.023 0,0.031 l 0,9.4688 c 0,0.3181 -0.0048,0.6405 0.03125,1 0.0367,0.3658 0.097,0.7062 0.15625,1 0.06385,0.322 0.147089,0.6322 0.25,0.9687 0.08986,0.294 0.205999,0.5527 0.3125,0.8125 0.0039,0.031 0.02098,0.024 0.03125,0.062 0.0036,0.01 -0.0036,0.023 0,0.031 0.0065,0.019 -0.0084,0.011 0,0.031 0.124351,0.2972 0.262981,0.5744 0.40625,0.8438 0.300086,0.5686 0.616579,1.1097 1.03125,1.625 0.210738,0.2619 0.444176,0.5009 0.65625,0.7187 0.219644,0.2267 0.427856,0.4359 0.6875,0.6563 0.266941,0.2268 0.541896,0.4271 0.78125,0.5937 0.514542,0.3581 1.051961,0.6736 1.65625,0.9375 0.595346,0.26 1.255414,0.456 1.90625,0.5938 0.650838,0.1379 1.318022,0.2187 2,0.2187 l 0.3125,0 0.1875,0 c 5.3967,-0.1132 9.71875,-4.6746 9.71875,-10.0937 l 0,-9.5 c 0,-1.1838 -0.217683,-2.3149 -0.59375,-3.375 0.01973,-0.058 -0.0068,-0.049 0,-0.094 0.01161,-0.026 0.03782,-0.022 0.0625,-0.094 0.08977,-0.2633 0.113716,-0.4986 0.15625,-0.6563 0.04704,-0.1744 0.104742,-0.3682 0.15625,-0.625 0.02026,-0.1011 0.02516,-0.185 0.03125,-0.2187 0.04794,-0.2674 0.100292,-0.5348 0.125,-0.7813 0.03004,-0.2996 0.0625,-0.6051 0.0625,-0.9687 l 0,-0.031 0,-9.4687 c 0,-0.3673 -0.0309,-0.7163 -0.0625,-1.0313 -0.100229,-0.9986 -0.342155,-1.9673 -0.71875,-2.875 -0.13801,-0.3327 -0.301467,-0.6192 -0.4375,-0.875 -1.669245,-3.1395 -4.915453,-5.3125 -8.6875,-5.3125 l -0.3125,0 -0.1875,0 -0.03125,0 z m 0.03125,1.5 0.1875,0 0.3125,0 c 3.199491,0 5.949315,1.8185 7.375,4.5 0.145325,0.2732 0.281866,0.5255 0.375,0.75 0.316837,0.7637 0.506979,1.5729 0.59375,2.4375 0.03072,0.3062 0.0625,0.6376 0.0625,0.9063 l 0,9.4687 0,0.031 c 0,0.2613 -0.0315,0.5345 -0.0625,0.8437 -0.02341,0.2335 -0.05759,0.4546 -0.09375,0.6563 -0.01667,0.092 -0.02625,0.1313 -0.03125,0.1562 -0.02948,0.147 -0.06556,0.3421 -0.125,0.5625 -0.06415,0.2379 -0.114684,0.4093 -0.15625,0.5313 0.0034,-0.01 -0.02348,0.049 -0.0625,0.1562 -0.0079,0.022 0.0059,0.012 0,0.031 -0.81622,2.2372 -2.55482,4.0519 -4.71875,4.9687 l 0,0.031 -0.03125,0 c -0.168049,0.069 -0.367619,0.1362 -0.625,0.2187 l -0.03125,0 c -0.03305,0.012 -0.01459,0.023 -0.03125,0.031 l -0.03125,0 c -0.0093,0.01 -0.09656,0.046 -0.0625,0.031 -0.751329,0.2306 -1.544778,0.375 -2.34375,0.375 l -0.3125,0 c -0.971231,0 -1.87885,-0.2718 -2.75,-0.5937 l 0,-1.1563 c 0,-1.2157 0.560834,-2.1234 1.40625,-2.5937 0.05827,-0.033 0.121862,-0.067 0.1875,-0.094 0.289088,0.1149 0.581299,0.2303 0.90625,0.25 0.03895,0.01 0.116996,0 0.25,0 l 0.0625,0 c 0.441595,-0.032 0.918368,-0.037 1.46875,-0.1875 0.06493,0.025 0.119696,0.035 0.1875,0.062 l 0.34375,0.1563 0.3125,-0.1875 c 1.313958,-0.7349 2.21875,-2.1838 2.21875,-3.9063 l 0,-2.125 0,-0.5 -0.03125,0 0,-7.2187 c 0,-1.2556 -0.47383,-2.3935 -1.25,-3.1875 -0.776142,-0.7939 -1.8474,-1.2188 -3,-1.2188 l -0.3125,0 -0.1875,0 -0.03125,0 c -2.234718,0.1136 -4.03125,1.9847 -4.03125,4.4063 l 0,6.9062 c -1.679812,0.8301 -2.978209,2.1623 -3.96875,3.75 -0.05478,-0.3889 -0.1875,-0.7522 -0.1875,-1.1562 l 0,-9.5 c 0,-4.6254 3.65115,-8.498 8.21875,-8.5938 z m 0,5.6875 0.03125,0 0.15625,0 0.3125,0 c 0.788724,0 1.448972,0.2814 1.9375,0.7813 0.4885,0.4996 0.8125,1.2424 0.8125,2.125 l 0,6.6875 c -0.741227,-0.2034 -1.508064,-0.3342 -2.3125,-0.375 l 0,-0.094 -0.4375,0 -0.3125,0 c -0.319037,0 -0.614271,0.036 -0.875,0.062 l -0.09375,0 -0.09375,0 c -0.104067,0.019 -0.127293,0.035 -0.09375,0.031 -0.517149,0.065 -1.051421,0.1525 -1.59375,0.3125 l 0,-6.625 c 0,-1.7042 1.105674,-2.8175 2.5625,-2.9063 z m 0.1875,10.625 0.3125,0 c 0.979942,0 1.872568,0.2668 2.75,0.5938 l 0,1.1562 c 0,1.2802 -0.689305,2.2469 -1.625,2.6875 -0.337991,-0.1313 -0.687363,-0.2562 -1.125,-0.25 l -0.03125,0 -0.28125,0 c -0.273573,0 -0.572611,0.032 -0.875,0.094 -0.128154,0.026 -0.23011,0.059 -0.34375,0.094 -0.02835,-0.015 -0.0656,-0.015 -0.09375,-0.031 l -0.75,0 c -1.314017,0.7348 -2.21875,2.1836 -2.21875,3.9062 l 0,2.125 0.03125,0.062 0,0.375 0,7.2813 c 0,0.2974 0.0059,0.5739 0.0625,0.875 0.264175,1.4615 1.226833,2.6369 2.5,3.1875 l 0,0.031 0.03125,0 c 0.276624,0.1144 0.548786,0.2022 0.78125,0.25 0.294148,0.058 0.597309,0.062 0.875,0.062 l 0.3125,0 0.1875,0 0.03125,0 c 2.230238,-0.1184 4.03125,-1.9863 4.03125,-4.4062 l 0,-6.9375 c 1.670386,-0.835 2.953996,-2.1645 3.9375,-3.75 0.05794,0.3996 0.21875,0.7718 0.21875,1.1875 l 0,9.5 c 0,4.6147 -3.665892,8.4807 -8.21875,8.5937 -0.01055,3e-4 -0.02069,-2e-4 -0.03125,0 l -0.15625,0 -0.3125,0 c -0.585572,0 -1.144416,-0.041 -1.6875,-0.1562 -0.543086,-0.115 -1.124286,-0.3127 -1.625,-0.5313 -0.491771,-0.2147 -0.915578,-0.4928 -1.375,-0.8125 -0.247628,-0.1724 -0.502525,-0.3116 -0.6875,-0.4687 -0.204036,-0.1731 -0.38986,-0.3833 -0.59375,-0.5938 -0.201748,-0.2072 -0.369292,-0.3926 -0.53125,-0.5937 -0.342533,-0.4257 -0.637846,-0.8666 -0.90625,-1.375 -0.129167,-0.243 -0.242699,-0.4772 -0.34375,-0.7188 l 0,-0.031 c -0.112187,-0.2705 -0.203397,-0.5266 -0.28125,-0.7813 -0.08076,-0.2641 -0.158957,-0.5423 -0.21875,-0.8437 -0.06238,-0.3094 -0.09937,-0.557 -0.125,-0.8125 -0.02624,-0.2614 -0.03125,-0.5572 -0.03125,-0.875 l 0,-9.4688 c 0,-0.012 -2.5e-5,-0.023 0,-0.031 0,-0.087 -0.0013,-0.1355 0,-0.1875 0.0052,-0.1933 0.0156,-0.3891 0.03125,-0.5625 0.01533,-0.1705 0.0113,-0.2064 0,-0.094 0.002,-0.02 0.01741,-0.075 0.03125,-0.1875 0.02599,-0.2095 0.04621,-0.4242 0.09375,-0.6562 0.03927,-0.1948 0.0828,-0.3736 0.125,-0.5313 0.0164,-0.061 0.04196,-0.1179 0.0625,-0.1875 -0.0021,0.01 0.04122,-0.088 0.09375,-0.25 0.04835,-0.1488 0.04922,-0.2443 0.0625,-0.2812 0.820926,-2.2616 2.538143,-4.0872 4.71875,-5 0.131518,-0.056 0.291446,-0.092 0.46875,-0.1563 0.184957,-0.065 0.237519,-0.1093 0.1875,-0.094 0.0493,-0.016 0.08042,-0.027 0.09375,-0.031 0.434042,-0.1379 0.938722,-0.2148 1.46875,-0.2812 0.0718,-0.01 0.05906,-0.023 0.09375,-0.031 l 0.03125,0 0.03125,0 0.03125,0 c 0.282444,-0.028 0.548326,-0.062 0.78125,-0.062 z m 3.0625,11.4375 0,6.6563 c 0,1.6996 -1.108995,2.8143 -2.5625,2.9062 -0.01026,6e-4 -0.02096,-5e-4 -0.03125,0 l -0.15625,0 -0.3125,0 c -0.207635,0 -0.43108,-0.032 -0.59375,-0.062 l 0,0.031 c -0.199111,-0.042 -0.375894,-0.1033 -0.5,-0.1563 -0.818233,-0.3431 -1.441889,-1.0807 -1.625,-2.0937 -0.03621,-0.1926 -0.03125,-0.3877 -0.03125,-0.625 l 0,-6.625 c 0.870565,0.2632 1.793486,0.4062 2.75,0.4062 l 0.3125,0 c 0.971989,0 1.888688,-0.1745 2.75,-0.4375 z"
       id="path3792"
       inkscape:connector-curvature="0" />
    <path
       style="fill:#1a1a1a;fill-opacity:1;stroke:none"
       d="m -28.373125,1004.3846 c -8.103076,0 -14.65625,6.5532 -14.65625,14.6562 0,7.4891 5.596316,13.6379 12.84375,14.5313 -0.667197,0.9362 -1.15625,3.9506 -1.15625,7.5937 l 0,1.9375 c 0,4.3926 0.715238,7.9063 1.59375,7.9063 l 2.75,0 c 0.878513,0 1.59375,-3.5137 1.59375,-7.9063 l 0,-1.9375 c 0,-3.648 -0.487666,-6.662 -1.15625,-7.5937 7.247434,-0.8934 12.875,-7.0422 12.875,-14.5313 0,-8.103 -6.584424,-14.6562 -14.6875,-14.6562 z m 0,1.0937 c 7.409163,0 13.4375,6.0283 13.4375,13.4375 0,7.4092 -6.028337,13.4375 -13.4375,13.4375 -7.409163,0 -13.40625,-6.0283 -13.40625,-13.4375 0,-7.4092 5.997087,-13.4375 13.40625,-13.4375 z m 0,1 c -6.868723,0 -12.40625,5.5688 -12.40625,12.4375 0,6.8687 5.537527,12.4688 12.40625,12.4688 6.868723,0 12.4375,-5.6001 12.4375,-12.4688 0,-6.8687 -5.568777,-12.4375 -12.4375,-12.4375 z m -0.125,0.75 c 6.585996,0 11.90625,5.3515 11.90625,11.9375 0,6.586 -5.320254,11.9375 -11.90625,11.9375 -6.585996,0 -11.9375,-5.3515 -11.9375,-11.9375 0,-6.586 5.351504,-11.9375 11.9375,-11.9375 z"
       id="path2985"
       inkscape:connector-curvature="0" />
  </g>
</svg>
