<?xml version="1.0" encoding="UTF-8" standalone="no"?>
<!-- Created with Inkscape (http://www.inkscape.org/) -->

<svg
   xmlns:dc="http://purl.org/dc/elements/1.1/"
   xmlns:cc="http://creativecommons.org/ns#"
   xmlns:rdf="http://www.w3.org/1999/02/22-rdf-syntax-ns#"
   xmlns:svg="http://www.w3.org/2000/svg"
   xmlns="http://www.w3.org/2000/svg"
   xmlns:sodipodi="http://sodipodi.sourceforge.net/DTD/sodipodi-0.dtd"
   xmlns:inkscape="http://www.inkscape.org/namespaces/inkscape"
   id="svg4229"
   version="1.1"
   inkscape:version="0.48.5 r10040"
   width="42"
   height="42"
   sodipodi:docname="physics.svg">
  <metadata
     id="metadata4235">
    <rdf:RDF>
      <cc:Work
         rdf:about="">
        <dc:format>image/svg+xml</dc:format>
        <dc:type
           rdf:resource="http://purl.org/dc/dcmitype/StillImage" />
        <dc:title></dc:title>
      </cc:Work>
    </rdf:RDF>
  </metadata>
  <defs
     id="defs4233" />
  <sodipodi:namedview
     pagecolor="#ffffff"
     bordercolor="#666666"
     borderopacity="1"
     objecttolerance="10"
     gridtolerance="10"
     guidetolerance="10"
     inkscape:pageopacity="0"
     inkscape:pageshadow="2"
     inkscape:window-width="1366"
     inkscape:window-height="705"
     id="namedview4231"
     showgrid="false"
     inkscape:zoom="1.8"
     inkscape:cx="40.548661"
     inkscape:cy="49.5"
     inkscape:window-x="-8"
     inkscape:window-y="-8"
     inkscape:window-maximized="1"
     inkscape:current-layer="svg4229" />
  <path
     inkscape:connector-curvature="0"
     style="fill:#000000;fill-opacity:1;stroke:none"
     d="M 30.787673,3.8331287 22.520244,8.1376574 20.299653,4.8807919 17.931024,8.5817757 9.3561289,5.0971571 C 7.8366242,6.270835 6.4991058,7.6697036 5.3932294,9.242259 l 0.96795,6.160715 -4.4184054,4.24759 C 1.937564,19.83301 1.9314,20.013478 1.9314,20.197171 c 0,1.799514 0.2515736,3.542318 0.7174214,5.192765 l 3.5757202,2.311692 3.4390677,7.82331 c 0.7481877,0.554533 1.5306777,1.061219 2.3572417,1.50317 l 8.870974,-2.653322 6.513732,3.792085 c 3.732202,-1.331039 6.930945,-3.790248 9.178422,-6.969237 l -4.555058,0.318854 -0.717421,2.163652 -1.54872,0 -0.706034,2.60777 -8.005512,-4.646158 -8.358531,2.516669 L 9.2422481,26.266785 3.1612464,22.338048 9.3561244,16.359535 7.8074054,6.4636745 18.659829,10.870692 20.58434,7.8871296 22.360813,10.517675 32.700792,5.1427077 C 32.091829,4.6689307 31.452408,4.2314411 30.787673,3.8331287 z m 2.197815,1.9814501 -10.68161,5.5571702 -1.628432,-2.3914054 -1.74231,2.7216464 -9.9186359,-4.0312253 1.4120679,9.0417883 -5.659659,5.443292 5.55717,3.598496 3.154377,7.19699 7.629721,-2.288916 7.299478,4.24759 0.660484,-2.391404 1.412067,0 0.660483,-1.970063 4.566445,-0.318853 -1.081826,-6.980626 4.031225,-4.133713 -6.103775,-3.814861 0.43273,-9.4859062 z m 0.990725,0.4099546 -0.398568,8.5862826 6.445405,4.031226 C 39.93858,17.64209 39.749954,16.474505 39.453668,15.346036 L 36.458719,13.478462 36.652308,9.3105848 C 35.869396,8.1873703 34.976791,7.1534268 33.976213,6.2245334 z m -3.18854,2.4255681 -0.353017,7.6297205 4.919462,3.074664 -3.245479,3.336579 0.876849,5.614108 -3.689597,0.261915 -0.523831,1.582883 -1.138764,0 -0.523832,1.924512 -5.887411,-3.416294 -6.13794,1.844799 -2.539444,-5.796311 -4.4753438,-2.89246 4.5550568,-4.395631 -1.138763,-7.276703 7.982737,3.245478 1.412067,-2.197815 1.309579,1.935899 8.597671,-4.4753435 z m -1.093214,1.4120685 -7.561395,3.940124 -1.150152,-1.696759 -1.241253,1.924511 -7.014788,-2.84691 1.002113,6.399854 -4.0084499,3.849024 3.9287359,2.550832 2.231978,5.090276 5.397743,-1.617045 5.16999,3.006338 0.466893,-1.696759 1.002112,0 0.466894,-1.389292 3.234091,-0.227754 -0.762972,-4.942236 2.84691,-2.926624 -4.315916,-2.698872 0.307466,-6.718708 z m -1.560107,2.004225 -0.250528,5.40913 3.484619,2.175039 -2.300304,2.357242 0.62632,3.974287 -2.619158,0.193591 -0.364405,1.115988 -0.808522,0 -0.364404,1.366517 -4.167878,-2.425567 -4.35008,1.309579 -1.799247,-4.099552 -3.165765,-2.049775 3.222703,-3.108827 -0.808523,-5.158602 5.659659,2.300304 0.990725,-1.560108 0.933787,1.377905 6.081001,-3.177151 z m -6.274591,2.972174 c -0.310571,0.100354 -0.570672,0.337314 -0.694646,0.637708 -2.435127,0.463012 -4.270367,2.599159 -4.270367,5.16999 0,2.908415 2.352677,5.26109 5.261091,5.26109 2.908415,0 5.261091,-2.352675 5.261091,-5.26109 0,-2.537735 -1.80022,-4.659033 -4.190652,-5.158603 -0.09367,-0.234902 -0.260492,-0.423029 -0.478281,-0.546607 l -0.58077,1.514558 -0.102489,-0.01137 -0.204977,-1.605658 z m -0.182203,0.307467 0.0911,1.776471 c 0.128183,0.0534 0.262833,0.08972 0.409954,0.0911 l 0.660484,-1.708147 0.421343,0.922399 c 1.980757,0.496844 3.450455,2.284744 3.450455,4.418406 0,2.516899 -2.038158,4.566444 -4.555057,4.566444 -2.516898,0 -4.555057,-2.049545 -4.555057,-4.566444 0,-2.164304 1.497062,-3.975181 3.518782,-4.441181 0.01152,0.03972 0.02988,0.07611 0.04555,0.113876 l 0.02277,-0.113876 0.489668,-1.05905 z m 18.368267,3.871798 -4.190651,4.315916 1.115987,7.094502 c 1.080624,-1.652374 1.908807,-3.488566 2.436956,-5.443293 l -0.136651,-0.899624 0.455506,-0.455506 c 0.226302,-1.174756 0.341628,-2.391846 0.341628,-3.632658 0,-0.329137 -0.0063,-0.654296 -0.02277,-0.979337 z m -17.878598,0.512444 c -0.615238,0 -1.127376,0.50075 -1.127376,1.115989 0,0.615242 0.512138,1.115989 1.127376,1.115989 0.615243,0 1.104601,-0.500747 1.104601,-1.115989 0,-0.615239 -0.489358,-1.115989 -1.104601,-1.115989 z"
     id="path5314" />
</svg>
