<svg aria-hidden="true" style="position: absolute; width: 0; height: 0; overflow: hidden;" version="1.1" xmlns="http://www.w3.org/2000/svg" xmlns:xlink="http://www.w3.org/1999/xlink">
<defs>
<symbol id="icon-plussvg" viewBox="0 0 32 32">
<path d="M3.573 20.687l-0.595-11.313 8.931 0.595v-7.145h8.931l-1.191 7.741h10.718l-1.191 13.099-8.336-1.786v7.145h-8.336l-0.595-8.931z"></path>
</symbol>
<symbol id="icon-door-opened" viewBox="0 0 32 32">
<path d="M1.289 1.644v0.733l0.422 27.933v0.733l0.844-0.178 14.422-3.378v-0.467l-0.022-3.222h0.333l0.022 3.667 13.2 2.511-0.444-25-0.289-2.733-12.667 1.689 0.044 4.911h-0.333l-0.044-4.4v-0.489l-0.556-0.089-14.156-2.089-0.778-0.133zM2.622 3.044l10.956 1.644 0.689 21.333-11.2 3.156-0.444-26.133zM16.822 9.511h0.333l0.111 13.822h-0.311l-0.133-13.822zM28.733 14.289l0.089 3.489-0.956 0.022-0.089-3.489 0.956-0.022z"></path>
</symbol>
</defs>
</svg>


