<?xml version="1.0" encoding="UTF-8" standalone="no"?>
<!-- Created with Inkscape (http://www.inkscape.org/) -->

<svg
   xmlns:dc="http://purl.org/dc/elements/1.1/"
   xmlns:cc="http://creativecommons.org/ns#"
   xmlns:rdf="http://www.w3.org/1999/02/22-rdf-syntax-ns#"
   xmlns:svg="http://www.w3.org/2000/svg"
   xmlns="http://www.w3.org/2000/svg"
   xmlns:sodipodi="http://sodipodi.sourceforge.net/DTD/sodipodi-0.dtd"
   xmlns:inkscape="http://www.inkscape.org/namespaces/inkscape"
   width="42"
   height="42"
   id="svg2"
   version="1.1"
   inkscape:version="0.48.5 r10040"
   sodipodi:docname="processing.svg">
  <defs
     id="defs4" />
  <sodipodi:namedview
     id="base"
     pagecolor="#ffffff"
     bordercolor="#666666"
     borderopacity="1.0"
     inkscape:pageopacity="0.0"
     inkscape:pageshadow="2"
     inkscape:zoom="3.31"
     inkscape:cx="85.794562"
     inkscape:cy="23.339802"
     inkscape:document-units="px"
     inkscape:current-layer="layer1"
     showgrid="false"
     inkscape:window-width="1366"
     inkscape:window-height="705"
     inkscape:window-x="-8"
     inkscape:window-y="-8"
     inkscape:window-maximized="1" />
  <metadata
     id="metadata7">
    <rdf:RDF>
      <cc:Work
         rdf:about="">
        <dc:format>image/svg+xml</dc:format>
        <dc:type
           rdf:resource="http://purl.org/dc/dcmitype/StillImage" />
        <dc:title></dc:title>
      </cc:Work>
    </rdf:RDF>
  </metadata>
  <g
     inkscape:label="Layer 1"
     inkscape:groupmode="layer"
     id="layer1"
     transform="translate(0,-1010.3622)">
    <path
       style="fill:#000000;fill-opacity:1;stroke:none"
       d="M 19.78125 2.5625 C 9.603176 2.5625 1.34375 10.8218 1.34375 21 C 1.34375 31.178 9.603176 39.4375 19.78125 39.4375 C 20.190691 39.4375 20.597342 39.401296 21 39.375 C 21.402658 39.401296 21.809309 39.4375 22.21875 39.4375 C 32.396824 39.4375 40.65625 31.178 40.65625 21 C 40.65625 10.8218 32.396824 2.5625 22.21875 2.5625 C 21.809309 2.5625 21.402658 2.5987043 21 2.625 C 20.597342 2.5987043 20.190691 2.5625 19.78125 2.5625 z M 21 7.0625 C 25.518113 7.4537687 29.419021 9.9669692 31.6875 13.625 L 34.125 13.625 C 35.453143 15.766689 36.21875 18.295374 36.21875 21 C 36.21875 23.704591 35.453143 26.233309 34.125 28.375 L 31.6875 28.375 C 29.419021 32.033031 25.518113 34.546231 21 34.9375 C 16.481887 34.546231 12.580979 32.033031 10.3125 28.375 L 7.875 28.375 C 6.5468567 26.233309 5.78125 23.704591 5.78125 21 C 5.78125 18.295374 6.5468567 15.766689 7.875 13.625 L 10.3125 13.625 C 12.580979 9.9669692 16.481887 7.4537687 21 7.0625 z "
       transform="translate(0,1010.3622)"
       id="path2985" />
    <g
       id="g3777"
       transform="translate(84,0)">
      <path
         style="fill:#000000;fill-opacity:1;stroke:none"
         d="m 19.563688,1012.9351 c 7.556625,0 14.026809,4.5486 16.870341,11.0563 l -4.956258,0 c -2.470873,-3.9844 -6.882412,-6.6402 -11.914083,-6.6402 -7.736295,0 -14.010962,6.2747 -14.010962,14.011 0,7.7362 6.274667,14.011 14.010962,14.011 5.031671,0 9.44321,-2.6558 11.914083,-6.6402 l 4.956258,0 c -2.843532,6.5076 -9.313716,11.0563 -16.870341,11.0563 -10.178074,0 -18.427115,-8.2491 -18.427115,-18.4271 0,-10.1782 8.249041,-18.4271 18.427115,-18.4271 z"
         id="path3779"
         inkscape:connector-curvature="0" />
      <path
         style="fill:#000000;fill-opacity:1;stroke:none"
         d="m 28.675926,1023.8963 c -0.19563,0.023 -0.365181,0.078 -0.5,0.1562 -0.674094,0.3892 -1.122215,1.8326 -1.375,3.6875 l -8.65625,0 c -0.795247,0 -1.4375,1.1813 -1.4375,2.6563 l 0,1.9375 c 0,1.4749 0.642253,2.6562 1.4375,2.6562 l 8.65625,0 c 0.252785,1.8549 0.700906,3.2983 1.375,3.6875 2.1571,1.2454 12.6875,-4.8217 12.6875,-7.3125 0,-2.3351 -9.253055,-7.8178 -12.1875,-7.4687 z"
         id="path3781"
         inkscape:connector-curvature="0" />
    </g>
    <path
       id="path3788"
       d="m 85.642277,970.62862 c -10.178074,0 -18.4375,8.2593 -18.4375,18.4375 0,10.17798 8.259426,18.43748 18.4375,18.43748 0.409441,0 0.816092,-0.036 1.21875,-0.062 0.402658,0.026 0.809309,0.062 1.21875,0.062 10.178074,0 18.437503,-8.2595 18.437503,-18.43748 0,-10.1782 -8.259429,-18.4375 -18.437503,-18.4375 -0.409441,0 -0.816092,0.0362 -1.21875,0.0625 -0.402658,-0.0263 -0.809309,-0.0625 -1.21875,-0.0625 z m 1.21875,4.5 c 4.518113,0.39127 8.419021,2.90447 10.6875,6.5625 l 2.4375,0 c 1.328143,2.14169 2.093753,4.67038 2.093753,7.375 0,2.70459 -0.76561,5.23328 -2.093753,7.37498 l -2.4375,0 c -2.268479,3.658 -6.169387,6.1712 -10.6875,6.5625 -4.518113,-0.3913 -8.419021,-2.9045 -10.6875,-6.5625 l -2.4375,0 c -1.328143,-2.1417 -2.09375,-4.67039 -2.09375,-7.37498 0,-2.70462 0.765607,-5.23331 2.09375,-7.375 l 2.4375,0 c 2.268479,-3.65803 6.169387,-6.17123 10.6875,-6.5625 z"
       style="fill:#000000;fill-opacity:1;stroke:none"
       inkscape:connector-curvature="0" />
    <g
       transform="matrix(0.36704038,0,0,0.42054317,12.87547,1008.7778)"
       style="font-size:40px;font-style:normal;font-variant:normal;font-weight:normal;font-stretch:normal;line-height:125%;letter-spacing:0px;word-spacing:0px;fill:#000000;fill-opacity:1;stroke:#170d0d;font-family:Arial;-inkscape-font-specification:Arial;stroke-opacity:0"
       id="text3790">
      <path
         d="m -6.7417035,52.101257 c 1.002602,-0.02603 1.8196585,-0.296211 2.4511719,-0.810547 0.6315062,-0.514309 1.0514276,-1.220689 1.2597656,-2.11914 0.2083283,-0.898422 0.3190053,-2.434879 0.3320312,-4.609375 0.013016,-2.174458 0.052078,-3.606748 0.1171875,-4.296875 0.1171821,-1.093725 0.3352809,-1.972631 0.6542969,-2.636719 0.3190042,-0.664035 0.712884,-1.194634 1.18164064,-1.591797 0.46874242,-0.397107 1.06770016,-0.699841 1.79687496,-0.908203 0.4947823,-0.130179 1.3020732,-0.195283 2.421875,-0.195312 l 1.09375,0 0,3.066406 -0.6054687,0 c -1.3541771,2.6e-5 -2.2526137,0.244166 -2.6953125,0.732422 -0.44271702,0.488306 -0.66407097,1.578799 -0.66406251,3.271484 -8.46e-6,3.411477 -0.071623,5.566423 -0.21484375,6.464844 -0.23438301,1.393243 -0.63477323,2.467461 -1.20117188,3.222656 -0.56641276,0.75522 -1.45508366,1.425792 -2.66601566,2.011719 1.4322859,0.598968 2.4706963,1.513681 3.11523441,2.74414 0.64452312,1.230476 0.96678842,3.245448 0.96679688,6.044922 -8.46e-6,2.539062 0.0260332,4.049477 0.078125,4.53125 0.10415803,0.885413 0.36782961,1.503902 0.79101561,1.855469 0.4231673,0.351557 1.2532446,0.527338 2.4902344,0.527344 l 0.6054687,0 0,3.066406 -1.09375,0 c -1.2760517,-8e-6 -2.2005299,-0.104175 -2.77343746,-0.3125 C -0.13363831,71.860364 -0.82374179,71.375339 -1.3706098,70.704773 -1.9174907,70.034194 -2.2723081,69.184586 -2.4350629,68.155945 -2.5978286,67.127296 -2.6857191,65.4411 -2.6987348,63.097351 -2.7117607,60.753604 -2.8224377,59.132512 -3.030766,58.23407 -3.239104,57.335639 -3.6590254,56.626004 -4.2905316,56.105164 -4.922045,55.584339 -5.7391015,55.310901 -6.7417035,55.284851 z"
         id="path3795"
         inkscape:connector-curvature="0"
         style="stroke:#170d0d;stroke-opacity:0" />
      <path
         d="m 9.1372027,64.054382 0,-4.003906 4.0039063,0 0,4.003906 z"
         id="path3797"
         inkscape:connector-curvature="0"
         style="stroke:#170d0d;stroke-opacity:0" />
      <path
         d="m 20.230953,64.054382 0,-4.003906 4.003906,0 0,4.003906 z"
         id="path3799"
         inkscape:connector-curvature="0"
         style="stroke:#170d0d;stroke-opacity:0" />
      <path
         d="m 31.324703,64.054382 0,-4.003906 4.003906,0 0,4.003906 z"
         id="path3801"
         inkscape:connector-curvature="0"
         style="stroke:#170d0d;stroke-opacity:0" />
      <path
         d="m 51.012203,52.101257 0,3.183594 c -1.002616,0.02605 -1.819672,0.299488 -2.451172,0.820313 -0.63152,0.52084 -1.051441,1.22722 -1.259766,2.11914 -0.208341,0.891932 -0.319018,2.425134 -0.332031,4.59961 -0.01303,2.174478 -0.05209,3.606768 -0.117188,4.296875 -0.117195,1.106766 -0.335294,1.988927 -0.654296,2.646484 -0.319018,0.657546 -0.712898,1.184889 -1.181641,1.582031 -0.468756,0.397128 -1.067714,0.699862 -1.796875,0.908203 -0.494796,0.143221 -1.302086,0.214836 -2.421875,0.214844 l -1.09375,0 0,-3.066406 0.605469,0 c 1.354164,-6e-6 2.2526,-0.244146 2.695312,-0.732422 0.442704,-0.488285 0.664058,-1.58529 0.664063,-3.291016 -5e-6,-3.255206 0.05859,-5.319006 0.175781,-6.191406 0.208328,-1.445306 0.624994,-2.600904 1.25,-3.466797 0.624993,-0.865876 1.510409,-1.539703 2.65625,-2.021484 -1.497403,-0.716135 -2.55209,-1.6634 -3.164063,-2.841797 -0.611984,-1.178371 -0.917973,-3.167301 -0.917968,-5.966797 -5e-6,-2.539041 -0.03256,-4.055966 -0.09766,-4.550781 -0.09115,-0.872371 -0.348311,-1.481095 -0.771484,-1.826172 -0.423181,-0.345026 -1.253258,-0.517552 -2.490234,-0.517578 l -0.605469,0 0,-3.066406 1.09375,0 c 1.276038,2.9e-5 2.200517,0.104195 2.773437,0.3125 0.833328,0.286486 1.523432,0.768257 2.070313,1.445312 0.546868,0.67711 0.901685,1.529974 1.064453,2.558594 0.162752,1.028669 0.250643,2.714866 0.263672,5.058594 0.01301,2.343767 0.12369,3.961604 0.332031,4.853515 0.208325,0.891941 0.628246,1.598321 1.259766,2.119141 0.6315,0.520845 1.448556,0.794283 2.451172,0.820312 z"
         id="path3803"
         inkscape:connector-curvature="0"
         style="stroke:#170d0d;stroke-opacity:0" />
    </g>
  </g>
</svg>
