<?xml version="1.0" encoding="UTF-8" standalone="no"?>
<!-- Created with Inkscape (http://www.inkscape.org/) -->

<svg
   xmlns:dc="http://purl.org/dc/elements/1.1/"
   xmlns:cc="http://creativecommons.org/ns#"
   xmlns:rdf="http://www.w3.org/1999/02/22-rdf-syntax-ns#"
   xmlns:svg="http://www.w3.org/2000/svg"
   xmlns="http://www.w3.org/2000/svg"
   xmlns:sodipodi="http://sodipodi.sourceforge.net/DTD/sodipodi-0.dtd"
   xmlns:inkscape="http://www.inkscape.org/namespaces/inkscape"
   width="48"
   height="48"
   id="svg6353"
   version="1.1"
   inkscape:version="0.48.5 r10040"
   sodipodi:docname="clock.svg">
  <defs
     id="defs6355" />
  <sodipodi:namedview
     id="base"
     pagecolor="#ffffff"
     bordercolor="#666666"
     borderopacity="1.0"
     inkscape:pageopacity="0.0"
     inkscape:pageshadow="2"
     inkscape:zoom="2.8832329"
     inkscape:cx="-0.22486772"
     inkscape:cy="12.695756"
     inkscape:document-units="px"
     inkscape:current-layer="layer1"
     showgrid="false"
     inkscape:window-width="1366"
     inkscape:window-height="705"
     inkscape:window-x="-8"
     inkscape:window-y="-8"
     inkscape:window-maximized="1" />
  <metadata
     id="metadata6358">
    <rdf:RDF>
      <cc:Work
         rdf:about="">
        <dc:format>image/svg+xml</dc:format>
        <dc:type
           rdf:resource="http://purl.org/dc/dcmitype/StillImage" />
        <dc:title></dc:title>
      </cc:Work>
    </rdf:RDF>
  </metadata>
  <g
     inkscape:label="Layer 1"
     inkscape:groupmode="layer"
     id="layer1"
     transform="translate(0,-1004.3622)">
    <g
       id="g6312"
       transform="matrix(0.48732227,0,0,0.48732227,-250.83853,670.12278)">
      <g
         id="g6306">
        <path
           style="fill:#ff0000;fill-opacity:1;stroke:#8e2323;stroke-width:4.39955282;stroke-miterlimit:4.69999981;stroke-opacity:0;stroke-dasharray:none"
           d="m 563.84869,698.18156 c -20.47559,0 -37.00067,16.5859 -37.00067,36.93654 0,20.35064 16.52508,36.93655 37.00067,36.93655 20.47558,0 37.25718,-16.58591 37.25718,-36.93655 0,-20.35064 -16.7816,-36.93654 -37.25718,-36.93654 z m 0.12826,5.51483 c 0.73147,0 1.34664,2.0931 1.34664,4.68119 l 0,17.95527 c 0,1.49345 -0.20659,2.73701 -0.51301,3.59105 2.54254,0.38894 4.48882,2.57727 4.48882,5.1942 0,2.89208 -2.39047,5.25833 -5.32245,5.25833 -2.93197,0 -5.32246,-2.36625 -5.32246,-5.25833 0,-2.61693 1.94628,-4.80526 4.48882,-5.1942 -0.30642,-0.85404 -0.51301,-2.0976 -0.51301,-3.59105 l 0,-17.95527 c 0,-2.58809 0.61519,-4.68119 1.34665,-4.68119 z"
           id="path6253"
           inkscape:connector-curvature="0" />
      </g>
    </g>
    <path
       style="fill:#000000;fill-opacity:1;stroke:#1f0b0b;stroke-width:2.31749034;stroke-miterlimit:4;stroke-opacity:0;stroke-dasharray:none"
       d="m -36.939591,972.85408 c -10.321934,0.52243 -18.625,9.05366 -18.625,19.4375 0,10.71872 8.840464,19.43752 19.625,19.43752 10.784541,0 19.5,-8.7188 19.5,-19.43752 0,-10.7188 -8.715459,-19.4375 -19.5,-19.4375 -0.337017,0 -0.667034,-0.0168 -1,0 z m 0.9375,9.625 c 0.963158,0 1.75,0.59622 1.75,1.34375 l 0,5.1875 c 0,0.33372 -0.180713,0.63994 -0.4375,0.875 0.878394,0.46504 1.46875,1.35407 1.46875,2.40625 0,1.22067 -0.792168,2.23054 -1.90625,2.59375 0.382806,0.39504 0.625,1.04554 0.625,1.78125 l 0,8.37502 c 0,1.2092 -0.665263,2.1875 -1.5,2.1875 -0.834737,0 -1.5,-0.9783 -1.5,-2.1875 l 0,-8.37502 c 0,-0.73571 0.242194,-1.38621 0.625,-1.78125 -1.114082,-0.36321 -1.90625,-1.37308 -1.90625,-2.59375 0,-1.05218 0.590356,-1.94121 1.46875,-2.40625 -0.256787,-0.23506 -0.4375,-0.54128 -0.4375,-0.875 l 0,-5.1875 c 0,-0.74753 0.786842,-1.34375 1.75,-1.34375 z"
       id="path6324"
       inkscape:connector-curvature="0" />
  </g>
</svg>
