<?xml version="1.0" encoding="UTF-8" standalone="no"?>
<!-- Created with Inkscape (http://www.inkscape.org/) -->

<svg
   xmlns:dc="http://purl.org/dc/elements/1.1/"
   xmlns:cc="http://creativecommons.org/ns#"
   xmlns:rdf="http://www.w3.org/1999/02/22-rdf-syntax-ns#"
   xmlns:svg="http://www.w3.org/2000/svg"
   xmlns="http://www.w3.org/2000/svg"
   xmlns:sodipodi="http://sodipodi.sourceforge.net/DTD/sodipodi-0.dtd"
   xmlns:inkscape="http://www.inkscape.org/namespaces/inkscape"
   id="svg2"
   version="1.1"
   inkscape:version="0.48.5 r10040"
   width="45"
   height="45"
   sodipodi:docname="head.svg">
  <metadata
     id="metadata8">
    <rdf:RDF>
      <cc:Work
         rdf:about="">
        <dc:format>image/svg+xml</dc:format>
        <dc:type
           rdf:resource="http://purl.org/dc/dcmitype/StillImage" />
        <dc:title></dc:title>
      </cc:Work>
    </rdf:RDF>
  </metadata>
  <defs
     id="defs6" />
  <sodipodi:namedview
     pagecolor="#ffffff"
     bordercolor="#666666"
     borderopacity="1"
     objecttolerance="10"
     gridtolerance="10"
     guidetolerance="10"
     inkscape:pageopacity="0"
     inkscape:pageshadow="2"
     inkscape:window-width="1366"
     inkscape:window-height="705"
     id="namedview4"
     showgrid="false"
     inkscape:zoom="1.1942822"
     inkscape:cx="39.30493"
     inkscape:cy="101.53153"
     inkscape:window-x="-8"
     inkscape:window-y="-8"
     inkscape:window-maximized="1"
     inkscape:current-layer="svg2" />
  <path
     style="fill:none;stroke:#918686;stroke-width:2.47049785;stroke-linecap:butt;stroke-linejoin:miter;stroke-miterlimit:4;stroke-opacity:1;stroke-dasharray:none"
     d="m -113.66691,39.303329 -2.90207,-17.054127 -9.43173,0 17.41244,-17.054119 19.588984,16.552531 -10.882776,1.003184 -1.451038,17.054119 z"
     id="path2987"
     inkscape:connector-curvature="0" />
  <path
     style="fill:#4d4d4d;stroke:none"
     d="m -52.859069,-78.534147 c -7.602436,0 -13.7667,5.731462 -13.7667,12.801726 0,0.604266 0.04738,1.197698 0.134464,1.779662 3.85e-4,0.0028 -3.86e-4,0.0056 0,0.0079 -0.101498,1.393114 -0.129441,2.882066 -0.0791,4.429389 -0.657782,-0.206821 -1.455207,-0.457313 -1.99718,-0.44689 -0.363366,0.007 -0.609041,0.133062 -0.609041,0.466665 0,0.266326 1.215497,2.408647 1.348591,2.629951 -0.301037,0.351267 -0.383617,0.975538 -0.383617,1.475145 -0.164715,0.758398 0.36741,1.561763 0.415256,1.918086 -0.342193,0.837003 -0.57827,1.001385 -0.585313,1.902266 0,1.112012 0.215085,1.443505 1.249721,1.443505 0.795672,0 1.332417,-0.401206 1.538422,-1.091527 1.098753,5.38495 2.943804,9.59025 4.935604,11.579685 1.598861,2.447181 4.494851,4.081367 7.798889,4.081367 3.304038,0 6.196073,-1.634186 7.794934,-4.081367 1.992824,-1.989435 3.840251,-6.194735 4.939561,-11.579685 0.206005,0.690321 0.74275,1.091527 1.538422,1.091527 1.034637,0 1.24972,-0.331493 1.24972,-1.443505 -0.007,-0.900881 -0.243119,-1.065263 -0.585312,-1.902266 0.04784,-0.356323 0.579971,-1.159688 0.415256,-1.918086 0,-0.499607 -0.07863,-1.123878 -0.379663,-1.475145 0.133093,-0.221304 1.344637,-2.363625 1.344637,-2.629951 0,-0.333603 -0.245676,-0.459681 -0.609042,-0.466665 -0.542957,-0.01044 -1.342698,0.239853 -2.001135,0.44689 0.04934,-1.544712 0.02228,-3.030363 -0.07909,-4.421479 0.08863,-0.58697 0.138418,-1.185778 0.138418,-1.795482 0,-7.070264 -6.164265,-12.801726 -13.766701,-12.801726 z"
     id="path3759"
     inkscape:connector-curvature="0" />
  <path
     style="fill:#4d4d4d;fill-opacity:1;stroke:none"
     d="M 9.2027651,1.900416 C 9.0987998,1.8976795 8.9919891,1.899707 8.8876874,1.9041671 6.9515345,1.9864557 5.2607782,3.1838893 4.0089146,4.3089346 2.8646587,5.3372754 2.2734707,6.6994159 1.8969188,8.0151931 1.176189,12.059942 1.5272538,15.007656 4.0089146,17.436047 c 2.1293359,2.181405 5.6713911,6.911366 5.6713911,6.911366 2.4247663,-2.308994 5.0069483,-3.901483 7.7833863,-4.607577 0,0 0.245877,-7.739 -1.058461,-11.4254492 C 15.808002,6.6264582 14.992545,4.8470019 13.372608,3.6058268 12.269334,2.7605046 10.762253,1.9411729 9.2027651,1.9004242 z M 35.797228,14.10751 c -1.559487,0.04077 -3.066567,0.860079 -4.169843,1.705402 -1.619928,1.241171 -2.435393,3.020628 -3.032615,4.708554 -1.304343,3.686449 -1.058461,11.425451 -1.058461,11.425451 2.776431,0.706093 5.358614,2.298582 7.783387,4.607577 0,0 3.542049,-4.729961 5.671384,-6.911366 2.481661,-2.428392 2.832732,-5.376106 2.112002,-9.420855 -0.376551,-1.315779 -0.967746,-2.677917 -2.112002,-3.706256 -1.251864,-1.125048 -2.942621,-2.322482 -4.878773,-2.404771 -0.104306,-0.0045 -0.211109,-0.0065 -0.315079,-0.0036 z m -17.609846,7.610731 c -0.249917,-10e-4 -0.490087,0.06801 -0.72369,0.224395 -1.315558,0.880664 -4.640043,2.105801 -5.937234,3.758619 -0.973881,1.240864 2.843051,4.278919 5.804305,5.060109 2.9593,0.780668 7.015389,-2.062439 5.67139,-4.057811 -1.010713,-1.500558 -3.065367,-4.97768 -4.814771,-4.985312 z m 8.625231,12.207093 c -1.749397,0.0076 -3.80406,3.484753 -4.814766,4.985311 -1.344005,1.995378 2.712084,4.83848 5.671384,4.057812 2.961254,-0.781192 6.778186,-3.819247 5.804306,-5.060109 -1.297191,-1.652818 -4.621676,-2.877957 -5.937228,-3.758618 -0.23361,-0.156384 -0.473779,-0.225486 -0.723696,-0.224396 z"
     id="path3824"
     inkscape:connector-curvature="0" />
</svg>
